<?xml version="1.0" encoding="UTF-8" standalone="no"?>
<!-- Created with Inkscape (http://www.inkscape.org/) -->

<svg
   xmlns:dc="http://purl.org/dc/elements/1.1/"
   xmlns:cc="http://creativecommons.org/ns#"
   xmlns:rdf="http://www.w3.org/1999/02/22-rdf-syntax-ns#"
   xmlns:svg="http://www.w3.org/2000/svg"
   xmlns="http://www.w3.org/2000/svg"
   xmlns:sodipodi="http://sodipodi.sourceforge.net/DTD/sodipodi-0.dtd"
   xmlns:inkscape="http://www.inkscape.org/namespaces/inkscape"
   width="298.24097"
   height="343.84155"
   id="svg3937"
   version="1.1"
   inkscape:version="0.48.3.1 r9886"
   sodipodi:docname="FaceLogo_white.svg"
   inkscape:export-filename="/home/marion/Pictures/LogoWolfgang/FaceLogo.png"
   inkscape:export-xdpi="300"
   inkscape:export-ydpi="300">
  <defs
     id="defs3939" />
  <sodipodi:namedview
     id="base"
     pagecolor="#ffffff"
     bordercolor="#666666"
     borderopacity="1.0"
     inkscape:pageopacity="0"
     inkscape:pageshadow="2"
     inkscape:zoom="0.98994949"
     inkscape:cx="18.349303"
     inkscape:cy="168.53927"
     inkscape:document-units="px"
     inkscape:current-layer="layer1"
     showgrid="false"
     fit-margin-top="10"
     fit-margin-left="10"
     fit-margin-right="10"
     fit-margin-bottom="10"
     inkscape:window-width="1319"
     inkscape:window-height="780"
     inkscape:window-x="319"
     inkscape:window-y="93"
     inkscape:window-maximized="0" />
  <metadata
     id="metadata3942">
    <rdf:RDF>
      <cc:Work
         rdf:about="">
        <dc:format>image/svg+xml</dc:format>
        <dc:type
           rdf:resource="http://purl.org/dc/dcmitype/StillImage" />
        <dc:title></dc:title>
      </cc:Work>
    </rdf:RDF>
  </metadata>
  <g
     inkscape:label="Layer 1"
     inkscape:groupmode="layer"
     id="layer1"
     transform="translate(-377.06061,-508.39417)">
    <path
       style="color:#000000;fill:none;fill-opacity:1;fill-rule:nonzero;stroke:#505a64;stroke-width:7.08661417;stroke-linecap:butt;stroke-linejoin:miter;stroke-miterlimit:4;stroke-opacity:1;stroke-dasharray:none;stroke-dashoffset:0;marker:none;visibility:visible;display:inline;overflow:visible;enable-background:accumulate"
       d="m 542.05569,534.02771 c -105.41854,-1.467 -119.44078,99.10296 -119.20974,154.21578 0.29009,69.19595 49.15702,135.7213 110.50644,135.7213 37.7449,0 95.02175,-25.05338 110.74416,-66.35895 -1.61022,-0.17525 -9.58646,-1.18994 -19.30554,-5.24922 -3.54596,-1.48102 -6.98009,-5.20702 -7.69887,-8.98202 -0.73791,-3.87515 2.09966,-11.66496 2.09966,-11.66496 l -3.14953,-5.54087 c 0,0 -1.99564,-4.14933 -0.52492,-4.49101 2.79945,-0.65046 6.96634,-0.8364 10.0319,-0.93319 -3.5104,0.0624 -8.69848,-0.14859 -11.08171,-1.86641 -1.76621,-1.27307 1.14875,-4.33214 0.75818,-6.47404 -0.375,-2.05714 -1.26389,-4.25933 -2.9162,-5.54086 -2.4345,-1.88811 -6.60126,-0.1443 -8.98205,-2.09969 -1.64718,-1.353 -3.39412,-3.84457 -2.62457,-5.83248 2.89265,-7.47294 10.32161,-18.71928 14.52282,-28.46253 1.36673,-3.16955 -0.57004,-6.48686 -1.86635,-10.20684 -1.01657,-2.91705 -0.31494,-4.5716 1.63306,-10.3235 7.03586,-20.77407 8.09006,-23.10677 16.21432,-32.02032 3.85568,-71.78694 -58.24491,-83.4601 -89.15106,-83.89019 z"
       id="path10577-2-3"
       inkscape:connector-curvature="0"
       sodipodi:nodetypes="ssscscccccsccssssscs"
       clip-path="none"
       mask="none"
       inkscape:export-filename="/home/wolfgang/projects/swi/codeface-website/img/logo/facelogo_tiny.png"
       inkscape:export-xdpi="11.32"
       inkscape:export-ydpi="11.32" />
    <flowRoot
       xml:space="preserve"
       id="flowRoot3802"
       style="font-size:6px;font-style:normal;font-weight:normal;line-height:125%;letter-spacing:0px;word-spacing:0px;fill:#879baa;fill-opacity:1;stroke:#505a64;stroke-width:1.20197004;stroke-miterlimit:4;stroke-opacity:1;stroke-dasharray:none;font-family:Sans"
       transform="matrix(5.8958326,0,0,5.8958326,-102.63479,-705.17303)"
       inkscape:export-filename="/home/wolfgang/projects/swi/codeface-website/img/logo/facelogo_tiny.png"
       inkscape:export-xdpi="11.32"
       inkscape:export-ydpi="11.32"><flowRegion
         id="flowRegion3804"><rect
           id="rect3806"
           width="176.16296"
           height="260.01346"
           x="79.234871"
           y="189.45038"
           style="fill:#879baa;fill-opacity:1;stroke:#505a64;stroke-width:1.20197004;stroke-miterlimit:4;stroke-opacity:1;stroke-dasharray:none" /></flowRegion><flowPara
         id="flowPara3808"
         style="font-size:72px;font-style:normal;font-variant:normal;font-weight:normal;font-stretch:normal;fill:#879baa;fill-opacity:1;stroke:#505a64;stroke-width:1.20197004;stroke-miterlimit:4;stroke-opacity:1;stroke-dasharray:none;font-family:DejaVu Serif;-inkscape-font-specification:DejaVu Serif">C</flowPara></flowRoot>  </g>
</svg>
