<?xml version="1.0" encoding="UTF-8" standalone="no"?>
<!-- Created with Inkscape (http://www.inkscape.org/) -->

<svg
   xmlns:dc="http://purl.org/dc/elements/1.1/"
   xmlns:cc="http://creativecommons.org/ns#"
   xmlns:rdf="http://www.w3.org/1999/02/22-rdf-syntax-ns#"
   xmlns:svg="http://www.w3.org/2000/svg"
   xmlns="http://www.w3.org/2000/svg"
   version="1.1"
   width="713.75"
   height="1146.25"
   id="svg2"
   xml:space="preserve"><metadata
     id="metadata8"><rdf:RDF><cc:Work
         rdf:about=""><dc:format>image/svg+xml</dc:format><dc:type
           rdf:resource="http://purl.org/dc/dcmitype/StillImage" /><dc:title></dc:title></cc:Work></rdf:RDF></metadata><defs
     id="defs6" /><g
     transform="matrix(1.25,0,0,-1.25,0,1146.25)"
     id="g10"><g
       id="g12" /><g
       id="g14"><g
         transform="translate(40,41)"
         id="g16"><path
           d="m -0.2618829,0.1408883 0,837.0000117 490.9999829,0 0,-837.0000117 -490.9999829,0 z"
           id="path18"
           style="fill:#4dff4d;fill-opacity:0.50199998;fill-rule:nonzero;stroke:#e495a5;stroke-width:75;stroke-linecap:butt;stroke-linejoin:round;stroke-miterlimit:1;stroke-opacity:1;stroke-dasharray:none" /></g><g
         transform="translate(40,41)"
         id="g20"><text
           transform="matrix(1,0,0,-1,136.9276,713.1409)"
           id="text22"><tspan
             x="0 39.959999 126.624 156.62399"
             y="0"
             id="tspan24"
             style="font-size:120px;font-variant:normal;font-weight:normal;writing-mode:lr-tb;fill:#000000;fill-opacity:1;fill-rule:nonzero;stroke:none;font-family:Times;-inkscape-font-specification:Times-Roman">ID 1</tspan></text>
</g><g
         transform="translate(40,41)"
         id="g26"><path
           d="m 302.6394,434.212 c 0,0 180,0 180,0 0,2.9454 -0.0723,5.8903 -0.2168,8.8322 -0.1445,2.9418 -0.3612,5.8797 -0.6499,8.8109 -0.2887,2.9312 -0.6493,5.8549 -1.0815,8.7684 -0.4322,2.9135 -0.9358,5.8159 -1.5104,8.7047 -0.5747,2.8888 -1.2201,5.7631 -1.9358,8.6202 -0.7156,2.8571 -1.5013,5.6963 -2.3563,8.5148 -0.855,2.8186 -1.7791,5.6157 -2.7714,8.389 -0.9922,2.7732 -2.0524,5.5216 -3.1796,8.2428 -1.1271,2.7212 -2.3209,5.4143 -3.5802,8.0769 -1.2593,2.6626 -2.5838,5.2939 -3.9723,7.8915 -1.3884,2.5976 -2.8404,5.1607 -4.3546,7.6871 -1.5143,2.5263 -3.0903,5.0151 -4.7267,7.4641 -1.6363,2.449 -3.3326,4.8575 -5.0871,7.2233 -1.7546,2.3657 -3.567,4.6881 -5.4355,6.9649 -1.8685,2.2768 -3.7927,4.5074 -5.7707,6.6898 -1.978,2.1824 -4.0093,4.3159 -6.092,6.3986 -2.0827,2.0827 -4.2162,4.114 -6.3986,6.092 -2.1824,1.978 -4.413,3.9021 -6.6898,5.7707 -2.2768,1.8685 -4.5992,3.6809 -6.9649,5.4354 -2.3658,1.7546 -4.7742,3.4508 -7.2232,5.0872 -2.449,1.6364 -4.9378,3.2124 -7.4642,4.7266 -2.5263,1.5143 -5.0895,2.9663 -7.6871,4.3547 -2.5976,1.3885 -5.2289,2.7129 -7.8915,3.9723 -2.6626,1.2593 -5.3557,2.453 -8.0769,3.5802 -2.7212,1.1271 -5.4696,2.1873 -8.2428,3.1796 -2.7732,0.9923 -5.5704,1.9163 -8.3889,2.7713 -2.8186,0.855 -5.6577,1.6407 -8.5149,2.3564 -2.8571,0.7157 -5.7313,1.3611 -8.6201,1.9357 -2.8888,0.5746 -5.7913,1.0783 -8.7048,1.5104 -2.9135,0.4322 -5.8372,0.7928 -8.7684,1.0815 -2.9312,0.2887 -5.8691,0.5054 -8.8109,0.65 -2.9418,0.1445 -5.8868,0.2168 -8.8322,0.2168 -2.9454,0 -5.8903,-0.0723 -8.8322,-0.2168 -2.9418,-0.1446 -5.8797,-0.3613 -8.8109,-0.65 -2.9312,-0.2887 -5.8549,-0.6493 -8.7684,-1.0815 -2.9135,-0.4321 -5.8159,-0.9358 -8.7047,-1.5104 -2.8888,-0.5746 -5.7631,-1.22 -8.6202,-1.9357 -2.8571,-0.7157 -5.6963,-1.5014 -8.5148,-2.3564 -2.8186,-0.855 -5.6157,-1.779 -8.389,-2.7713 -2.7732,-0.9923 -5.5216,-2.0525 -8.2428,-3.1796 -2.7212,-1.1272 -5.4143,-2.3209 -8.0769,-3.5802 -2.6626,-1.2594 -5.2939,-2.5838 -7.8915,-3.9723 -2.5976,-1.3884 -5.1607,-2.8404 -7.6871,-4.3547 -2.5263,-1.5142 -5.0151,-3.0902 -7.4641,-4.7266 -2.449,-1.6364 -4.8575,-3.3326 -7.2233,-5.0872 -2.3657,-1.7545 -4.6881,-3.5669 -6.9649,-5.4354 -2.2768,-1.8686 -4.5074,-3.7927 -6.6898,-5.7707 -2.1824,-1.978 -4.3159,-4.0093 -6.3986,-6.092 -2.0827,-2.0827 -4.114,-4.2162 -6.092,-6.3986 -1.978,-2.1824 -3.9021,-4.413 -5.7707,-6.6898 -1.8685,-2.2768 -3.6809,-4.5992 -5.4354,-6.9649 -1.7546,-2.3658 -3.4508,-4.7743 -5.0872,-7.2233 -1.6364,-2.449 -3.2124,-4.9378 -4.7266,-7.4641 -1.5143,-2.5264 -2.9663,-5.0895 -4.3547,-7.6871 -1.3885,-2.5976 -2.7129,-5.2289 -3.9723,-7.8915 -1.2593,-2.6626 -2.4531,-5.3557 -3.5802,-8.0769 -1.1272,-2.7212 -2.1873,-5.4696 -3.1796,-8.2428 -0.9923,-2.7733 -1.9163,-5.5704 -2.7713,-8.389 -0.8551,-2.8185 -1.6407,-5.6577 -2.3564,-8.5148 -0.7157,-2.8571 -1.3611,-5.7314 -1.9357,-8.6202 -0.5747,-2.8888 -1.0783,-5.7912 -1.5105,-8.7047 -0.4321,-2.9135 -0.7927,-5.8372 -1.0814,-8.7684 -0.2887,-2.9312 -0.5054,-5.8691 -0.65,-8.8109 -0.1445,-2.9419 -0.2168,-5.8868 -0.2168,-8.8322 0,-2.9454 0.0723,-5.8904 0.2168,-8.8322 0.1446,-2.9418 0.3613,-5.8797 0.65,-8.8109 0.2887,-2.9312 0.6493,-5.8549 1.0814,-8.7684 0.4322,-2.9135 0.9358,-5.816 1.5105,-8.7048 0.5746,-2.8888 1.22,-5.763 1.9357,-8.6202 0.7157,-2.8571 1.5013,-5.6962 2.3564,-8.5148 0.855,-2.8185 1.779,-5.6157 2.7713,-8.3889 0.9923,-2.7732 2.0524,-5.5217 3.1796,-8.2428 1.1271,-2.7212 2.3209,-5.4143 3.5802,-8.0769 1.2594,-2.6626 2.5838,-5.2939 3.9723,-7.8915 1.3884,-2.5976 2.8404,-5.1608 4.3547,-7.6871 1.5142,-2.5264 3.0902,-5.0152 4.7266,-7.4642 1.6364,-2.449 3.3326,-4.8574 5.0872,-7.2232 1.7545,-2.3658 3.5669,-4.6881 5.4354,-6.9649 1.8686,-2.2768 3.7927,-4.5074 5.7707,-6.6898 1.978,-2.1824 4.0093,-4.3159 6.092,-6.3986 2.0827,-2.0827 4.2162,-4.114 6.3986,-6.092 2.1824,-1.978 4.413,-3.9022 6.6898,-5.7707 2.2768,-1.8685 4.5992,-3.6809 6.9649,-5.4355 2.3658,-1.7545 4.7743,-3.4508 7.2233,-5.0872 2.449,-1.6363 4.9378,-3.2123 7.4641,-4.7266 2.5264,-1.5142 5.0895,-2.9662 7.6871,-4.3547 2.5976,-1.3884 5.2289,-2.7129 7.8915,-3.9722 2.6626,-1.2593 5.3557,-2.4531 8.0769,-3.5802 2.7212,-1.1272 5.4696,-2.1874 8.2428,-3.1797 2.7733,-0.9922 5.5704,-1.9163 8.389,-2.7713 2.8185,-0.855 5.6577,-1.6407 8.5148,-2.3563 2.8571,-0.7157 5.7314,-1.3612 8.6202,-1.9358 2.8888,-0.5746 5.7912,-1.0782 8.7047,-1.5104 2.9135,-0.4322 5.8372,-0.7928 8.7684,-1.0815 2.9312,-0.2887 5.8691,-0.5054 8.8109,-0.6499 2.9419,-0.1445 5.8868,-0.2168 8.8322,-0.2168 2.9454,0 5.8904,0.0723 8.8322,0.2168 2.9418,0.1445 5.8797,0.3612 8.8109,0.6499 2.9312,0.2887 5.8549,0.6493 8.7684,1.0815 2.9135,0.4322 5.816,0.9358 8.7048,1.5104 2.8888,0.5746 5.763,1.2201 8.6201,1.9358 2.8572,0.7156 5.6963,1.5013 8.5149,2.3563 2.8185,0.855 5.6157,1.7791 8.3889,2.7713 2.7732,0.9923 5.5216,2.0525 8.2428,3.1797 2.7212,1.1271 5.4143,2.3209 8.0769,3.5802 2.6626,1.2593 5.2939,2.5838 7.8915,3.9722 2.5976,1.3885 5.1608,2.8405 7.6871,4.3547 2.5264,1.5143 5.0152,3.0903 7.4642,4.7266 2.449,1.6364 4.8574,3.3327 7.2232,5.0872 2.3657,1.7546 4.6881,3.567 6.9649,5.4355 2.2768,1.8685 4.5074,3.7927 6.6898,5.7707 2.1824,1.978 4.3159,4.0093 6.3986,6.092 2.0827,2.0827 4.114,4.2162 6.092,6.3986 1.978,2.1824 3.9022,4.413 5.7707,6.6898 1.8685,2.2768 3.6809,4.5991 5.4355,6.9649 1.7545,2.3658 3.4508,4.7742 5.0871,7.2232 1.6364,2.449 3.2124,4.9378 4.7267,7.4642 1.5142,2.5263 2.9662,5.0895 4.3546,7.6871 1.3885,2.5976 2.713,5.2289 3.9723,7.8915 1.2593,2.6626 2.4531,5.3557 3.5802,8.0769 1.1272,2.7211 2.1874,5.4696 3.1796,8.2428 0.9923,2.7732 1.9164,5.5704 2.7714,8.3889 0.855,2.8186 1.6407,5.6577 2.3563,8.5148 0.7157,2.8572 1.3611,5.7314 1.9358,8.6202 0.5746,2.8888 1.0782,5.7913 1.5104,8.7048 0.4322,2.9135 0.7928,5.8372 1.0815,8.7684 0.2887,2.9312 0.5054,5.8691 0.6499,8.8109 0.1445,2.9418 0.2168,5.8868 0.2168,8.8322 0,0 -180,0 -180,0"
           id="path28"
           style="fill:#e495a5;fill-opacity:1;fill-rule:nonzero;stroke:#000000;stroke-width:0.5;stroke-linecap:butt;stroke-linejoin:round;stroke-miterlimit:1;stroke-opacity:1;stroke-dasharray:none" /></g><g
         transform="translate(40,41)"
         id="g30"><path
           d="m 482.6394,434.212 c 0,99.4112 -80.5887,180 -180,180 -99.4112,0 -180,-80.5888 -180,-180 0,-99.4113 80.5888,-180 180,-180 99.4113,0 180,80.5887 180,180 z"
           id="path32"
           style="fill:none;stroke:#000000;stroke-width:1;stroke-linecap:butt;stroke-linejoin:round;stroke-miterlimit:1;stroke-opacity:1;stroke-dasharray:none" /></g><g
         transform="translate(40,41)"
         id="g34"><text
           transform="matrix(1,0,0,-1,285.1394,428.612)"
           id="text36"><tspan
             x="0 7 14 21 28"
             y="0"
             id="tspan38"
             style="font-size:14px;font-variant:normal;font-weight:normal;writing-mode:lr-tb;fill:#000000;fill-opacity:1;fill-rule:nonzero;stroke:none;font-family:Times;-inkscape-font-specification:Times-Roman">19639</tspan></text>
</g><g
         transform="translate(40,41)"
         id="g40"><path
           d="m 349.4851,126.6001 c 0,0 118,0 118,0 0,1.9309 -0.0474,3.8615 -0.1421,5.79 -0.0948,1.9286 -0.2369,3.8545 -0.4261,5.7761 -0.1893,1.9215 -0.4257,3.8382 -0.709,5.7481 -0.2833,1.91 -0.6135,3.8127 -0.9901,5.7065 -0.3767,1.8938 -0.7999,3.778 -1.269,5.651 -0.4692,1.873 -0.9843,3.7342 -1.5448,5.5819 -0.5605,1.8477 -1.1662,3.6814 -1.8167,5.4994 -0.6505,1.818 -1.3455,3.6198 -2.0844,5.4037 -0.7389,1.7839 -1.5215,3.5493 -2.3471,5.2948 -0.8255,1.7455 -1.6938,3.4705 -2.604,5.1733 -0.9102,1.7029 -1.8621,3.3832 -2.8547,5.0394 -0.9927,1.6561 -2.0259,3.2877 -3.0986,4.8931 -1.0727,1.6055 -2.1847,3.1844 -3.3349,4.7352 -1.1502,1.5509 -2.3383,3.0734 -3.5633,4.5659 -1.2249,1.4926 -2.4863,2.9549 -3.783,4.3856 -1.2967,1.4307 -2.6283,2.8293 -3.9936,4.1946 -1.3653,1.3654 -2.764,2.697 -4.1947,3.9937 -1.4306,1.2967 -2.8929,2.558 -4.3855,3.783 -1.4926,1.2249 -3.015,2.413 -4.5659,3.5632 -1.5509,1.1502 -3.1298,2.2622 -4.7352,3.3349 -1.6055,1.0728 -3.237,2.1059 -4.8932,3.0986 -1.6561,0.9927 -3.3364,1.9445 -5.0393,2.8547 -1.7029,0.9102 -3.4278,1.7785 -5.1733,2.6041 -1.7455,0.8255 -3.511,1.6081 -5.2949,2.347 -1.7839,0.7389 -3.5856,1.4339 -5.4036,2.0844 -1.818,0.6505 -3.6517,1.2563 -5.4994,1.8168 -1.8477,0.5605 -3.7089,1.0756 -5.582,1.5447 -1.873,0.4692 -3.7572,0.8923 -5.651,1.269 -1.8937,0.3767 -3.7964,0.7068 -5.7064,0.9902 -1.91,0.2833 -3.8266,0.5197 -5.7482,0.7089 -1.9216,0.1893 -3.8475,0.3313 -5.776,0.4261 -1.9286,0.0947 -3.8591,0.1421 -5.79,0.1421 -1.9309,0 -3.8615,-0.0474 -5.79,-0.1421 -1.9285,-0.0948 -3.8545,-0.2368 -5.776,-0.4261 -1.9216,-0.1892 -3.8382,-0.4256 -5.7482,-0.7089 -1.91,-0.2834 -3.8127,-0.6135 -5.7065,-0.9902 -1.8937,-0.3767 -3.778,-0.7998 -5.651,-1.269 -1.873,-0.4691 -3.7342,-0.9842 -5.5819,-1.5447 -1.8477,-0.5605 -3.6814,-1.1663 -5.4994,-1.8168 -1.818,-0.6505 -3.6198,-1.3455 -5.4037,-2.0844 -1.7838,-0.7389 -3.5493,-1.5215 -5.2948,-2.347 -1.7455,-0.8256 -3.4705,-1.6939 -5.1733,-2.6041 -1.7029,-0.9102 -3.3832,-1.862 -5.0393,-2.8547 -1.6562,-0.9927 -3.2877,-2.0258 -4.8932,-3.0986 -1.6055,-1.0727 -3.1843,-2.1847 -4.7352,-3.3349 -1.5509,-1.1502 -3.0733,-2.3383 -4.5659,-3.5632 -1.4926,-1.225 -2.9549,-2.4863 -4.3856,-3.783 -1.4306,-1.2967 -2.8293,-2.6283 -4.1946,-3.9937 -1.3653,-1.3653 -2.697,-2.7639 -3.9936,-4.1946 -1.2967,-1.4307 -2.5581,-2.893 -3.783,-4.3856 -1.225,-1.4925 -2.4131,-3.015 -3.5633,-4.5659 -1.1502,-1.5508 -2.2622,-3.1297 -3.3349,-4.7352 -1.0728,-1.6054 -2.1059,-3.237 -3.0986,-4.8931 -0.9927,-1.6562 -1.9445,-3.3365 -2.8547,-5.0394 -0.9102,-1.7028 -1.7785,-3.4278 -2.604,-5.1733 -0.8256,-1.7455 -1.6082,-3.5109 -2.3471,-5.2948 -0.7389,-1.7839 -1.4339,-3.5857 -2.0844,-5.4037 -0.6505,-1.818 -1.2563,-3.6517 -1.8168,-5.4994 -0.5605,-1.8477 -1.0755,-3.7089 -1.5447,-5.5819 -0.4692,-1.873 -0.8923,-3.7572 -1.269,-5.651 -0.3767,-1.8938 -0.7068,-3.7965 -0.9901,-5.7065 -0.2834,-1.9099 -0.5198,-3.8266 -0.709,-5.7481 -0.1893,-1.9216 -0.3313,-3.8475 -0.4261,-5.7761 -0.0947,-1.9285 -0.1421,-3.8591 -0.1421,-5.79 0,-1.9308 0.0474,-3.8614 0.1421,-5.79 0.0948,-1.9285 0.2368,-3.8544 0.4261,-5.776 0.1892,-1.9216 0.4256,-3.8382 0.709,-5.7482 0.2833,-1.9099 0.6134,-3.8127 0.9901,-5.7064 0.3767,-1.8938 0.7998,-3.77803 1.269,-5.65103 0.4692,-1.87301 0.9842,-3.73421 1.5447,-5.58193 0.5605,-1.84773 1.1663,-3.68142 1.8168,-5.49941 0.6505,-1.818 1.3455,-3.61976 2.0844,-5.40365 0.7389,-1.78389 1.5215,-3.54937 2.3471,-5.29485 0.8255,-1.74549 1.6938,-3.47044 2.604,-5.17332 0.9102,-1.70287 1.862,-3.38315 2.8547,-5.03931 0.9927,-1.65616 2.0258,-3.2877 3.0986,-4.89316 1.0727,-1.60546 2.1847,-3.18434 3.3349,-4.73523 1.1502,-1.55089 2.3383,-3.07331 3.5633,-4.56589 1.2249,-1.49258 2.4863,-2.95487 3.783,-4.38555 1.2966,-1.43068 2.6283,-2.82931 3.9936,-4.19464 1.3653,-1.36533 2.764,-2.69694 4.1946,-3.99364 1.4307,-1.29669 2.893,-2.55807 4.3856,-3.783 1.4926,-1.22493 3.015,-2.41303 4.5659,-3.56325 1.5509,-1.15022 3.1297,-2.26219 4.7352,-3.33493 1.6055,-1.07273 3.237,-2.10589 4.8932,-3.09856 1.6561,-0.99266 3.3364,-1.94453 5.0393,-2.85473 1.7028,-0.91021 3.4278,-1.77848 5.1733,-2.60403 1.7455,-0.82555 3.511,-1.60814 5.2948,-2.34705 1.7839,-0.73891 3.5857,-1.43392 5.4037,-2.08441 1.818,-0.65049 3.6517,-1.25626 5.4994,-1.81676 1.8477,-0.5605 3.7089,-1.07557 5.5819,-1.54473 1.873,-0.46916 3.7573,-0.89228 5.651,-1.26898 1.8938,-0.37669 3.7965,-0.70684 5.7065,-0.99016 1.91,-0.283318 3.8266,-0.519712 5.7482,-0.70897 1.9215,-0.189258 3.8475,-0.331323 5.776,-0.426066 1.9285,-0.094743 3.8591,-0.142136 5.79,-0.142136 1.9309,0 3.8614,0.047393 5.79,0.142136 1.9285,0.094743 3.8544,0.236808 5.776,0.426066 1.9216,0.189258 3.8382,0.425652 5.7482,0.70897 1.91,0.28332 3.8127,0.61347 5.7064,0.99016 1.8938,0.3767 3.778,0.79982 5.651,1.26898 1.8731,0.46916 3.7343,0.98423 5.582,1.54473 1.8477,0.5605 3.6814,1.16627 5.4994,1.81676 1.818,0.65049 3.6197,1.3455 5.4036,2.08441 1.7839,0.73891 3.5494,1.5215 5.2949,2.34705 1.7455,0.82555 3.4704,1.69382 5.1733,2.60403 1.7029,0.9102 3.3832,1.86207 5.0393,2.85473 1.6562,0.99267 3.2877,2.02583 4.8932,3.09856 1.6054,1.07274 3.1843,2.18471 4.7352,3.33493 1.5509,1.15022 3.0733,2.33832 4.5659,3.56325 1.4926,1.22493 2.9549,2.48631 4.3855,3.783 1.4307,1.2967 2.8294,2.62831 4.1947,3.99364 1.3653,1.36533 2.6969,2.76396 3.9936,4.19464 1.2967,1.43068 2.5581,2.89297 3.783,4.38555 1.225,1.49258 2.4131,3.015 3.5633,4.56589 1.1502,1.55089 2.2622,3.12977 3.3349,4.73523 1.0727,1.60546 2.1059,3.237 3.0986,4.89316 0.9926,1.65616 1.9445,3.33644 2.8547,5.03931 0.9102,1.70288 1.7785,3.42783 2.604,5.17332 0.8256,1.74548 1.6082,3.51096 2.3471,5.29485 0.7389,1.78389 1.4339,3.58565 2.0844,5.40365 0.6505,1.81799 1.2562,3.65168 1.8167,5.49941 0.5605,1.84772 1.0756,3.70892 1.5448,5.58193 0.4691,1.873 0.8923,3.75723 1.269,5.65103 0.3766,1.8937 0.7068,3.7965 0.9901,5.7064 0.2833,1.91 0.5197,3.8266 0.709,5.7482 0.1892,1.9216 0.3313,3.8475 0.4261,5.776 0.0947,1.9286 0.1421,3.8592 0.1421,5.79 0,0 -118,0 -118,0"
           id="path42"
           style="fill:#e495a5;fill-opacity:1;fill-rule:nonzero;stroke:#000000;stroke-width:0.5;stroke-linecap:butt;stroke-linejoin:round;stroke-miterlimit:1;stroke-opacity:1;stroke-dasharray:none" /></g><g
         transform="translate(40,41)"
         id="g44"><path
           d="m 467.4851,126.6001 c 0,65.1696 -52.8304,118 -118,118 -65.1696,0 -118,-52.8304 -118,-118 0,-65.16957 52.8304,-117.999972 118,-117.999972 65.1696,0 118,52.830402 118,117.999972 z"
           id="path46"
           style="fill:none;stroke:#000000;stroke-width:1;stroke-linecap:butt;stroke-linejoin:round;stroke-miterlimit:1;stroke-opacity:1;stroke-dasharray:none" /></g><g
         transform="translate(40,41)"
         id="g48"><text
           transform="matrix(1,0,0,-1,331.9851,121.0001)"
           id="text50"><tspan
             x="0 7 14 21 28"
             y="0"
             id="tspan52"
             style="font-size:14px;font-variant:normal;font-weight:normal;writing-mode:lr-tb;fill:#000000;fill-opacity:1;fill-rule:nonzero;stroke:none;font-family:Times;-inkscape-font-specification:Times-Roman">19617</tspan></text>
</g><g
         transform="translate(40,41)"
         id="g54"><path
           d="m 329.7541,256.1637 c 0.4654,-3.0559 0.9287,-6.0987 1.3894,-9.1234"
           id="path56"
           style="fill:none;stroke:#000000;stroke-width:1;stroke-linecap:butt;stroke-linejoin:round;stroke-miterlimit:1;stroke-opacity:1;stroke-dasharray:none" /></g><g
         transform="translate(40,41)"
         id="g58"><path
           d="m 331.6829,243.4982 0.981,3.5212 -1.232,-1.8736 -0.2509,1.6477 0,0 0,0 0.2509,-1.6477 -1.7338,1.4218 1.9848,-3.0694 z"
           id="path60"
           style="fill:#000000;fill-opacity:1;fill-rule:nonzero;stroke:#000000;stroke-width:1;stroke-linecap:butt;stroke-linejoin:round;stroke-miterlimit:1;stroke-opacity:1;stroke-dasharray:none" /></g><g
         transform="translate(40,41)"
         id="g62"><path
           d="m 59.75006,323.0332 c 0,0 52.00004,0 52.00004,0 0,1.7021 -0.0836,3.4031 -0.2504,5.0969 -0.1669,1.6939 -0.4168,3.3785 -0.7488,5.0478 -0.3321,1.6693 -0.7459,3.3214 -1.2399,4.9501 -0.4941,1.6288 -1.0679,3.2323 -1.7192,4.8048 -0.6513,1.5724 -1.3795,3.112 -2.1818,4.613 -0.8024,1.5011 -1.6779,2.9619 -2.6235,4.3771 -0.9456,1.4152 -1.9601,2.7831 -3.03989,4.0988 -1.07976,1.3157 -2.22347,2.5775 -3.42699,3.7811 -1.20353,1.2035 -2.46541,2.3472 -3.7811,3.427 -1.3157,1.0797 -2.68361,2.0942 -4.0988,3.0398 -1.4152,0.9456 -2.87596,1.8212 -4.37703,2.6235 -1.50106,0.8024 -3.04061,1.5305 -4.61309,2.1819 -1.57248,0.6513 -3.17598,1.225 -4.80473,1.7191 -1.62875,0.4941 -3.28078,0.9079 -4.95011,1.24 -1.66933,0.332 -3.35396,0.5819 -5.0478,0.7487 -1.69385,0.1669 -3.39486,0.2504 -5.0969,0.2504 -1.70203,0 -3.40305,-0.0835 -5.09689,-0.2504 -1.69384,-0.1668 -3.37847,-0.4167 -5.0478,-0.7487 -1.66934,-0.3321 -3.32136,-0.7459 -4.95011,-1.24 -1.62875,-0.4941 -3.23226,-1.0678 -4.80473,-1.7191 -1.57248,-0.6514 -3.11203,-1.3795 -4.6131,-2.1819 -1.50106,-0.8023 -2.96183,-1.6779 -4.37702,-2.6235 -1.41519,-0.9456 -2.7831,-1.9601 -4.0988,-3.0398 -1.31569,-1.0798 -2.57758,-2.2235 -3.7811,-3.427 -1.20352,-1.2036 -2.34723,-2.4654 -3.42699,-3.7811 -1.07976,-1.3157 -2.09427,-2.6836 -3.03988,-4.0988 -0.9456,-1.4152 -1.82115,-2.876 -2.62348,-4.3771 -0.80234,-1.501 -1.53049,-3.0406 -2.18183,-4.613 -0.65134,-1.5725 -1.22509,-3.176 -1.719163,-4.8048 -0.494076,-1.6287 -0.907886,-3.2808 -1.239937,-4.9501 -0.332051,-1.6693 -0.581943,-3.3539 -0.748772,-5.0478 -0.166828,-1.6938 -0.250394,-3.3948 -0.250394,-5.0969 0,-1.702 0.083566,-3.403 0.250394,-5.0969 0.166829,-1.6938 0.416721,-3.3784 0.748772,-5.0478 0.332051,-1.6693 0.745861,-3.3213 1.239937,-4.9501 0.494073,-1.6287 1.067823,-3.2322 1.719163,-4.8047 0.65134,-1.5725 1.37949,-3.112 2.18183,-4.6131 0.80233,-1.5011 1.67788,-2.9618 2.62348,-4.377 0.94561,-1.4152 1.96012,-2.7831 3.03988,-4.0988 1.07976,-1.3157 2.22347,-2.5776 3.42699,-3.7811 1.20352,-1.2036 2.46541,-2.3473 3.7811,-3.427 1.3157,-1.0798 2.68361,-2.0943 4.0988,-3.0399 1.41519,-0.9456 2.87596,-1.8212 4.37702,-2.6235 1.50107,-0.8023 3.04062,-1.5305 4.6131,-2.1818 1.57247,-0.6514 3.17598,-1.2251 4.80473,-1.7192 1.62875,-0.4941 3.28077,-0.9079 4.95011,-1.2399 1.66933,-0.3321 3.35396,-0.582 5.0478,-0.7488 1.69384,-0.1668 3.39486,-0.2504 5.09689,-0.2504 1.70204,0 3.40305,0.0836 5.0969,0.2504 1.69384,0.1668 3.37847,0.4167 5.0478,0.7488 1.66933,0.332 3.32136,0.7458 4.95011,1.2399 1.62875,0.4941 3.23225,1.0678 4.80473,1.7192 1.57248,0.6513 3.11203,1.3795 4.61309,2.1818 1.50107,0.8023 2.96183,1.6779 4.37703,2.6235 1.41519,0.9456 2.7831,1.9601 4.0988,3.0399 1.31569,1.0797 2.57757,2.2234 3.7811,3.427 1.20352,1.2035 2.34723,2.4654 3.42699,3.7811 1.07979,1.3157 2.09429,2.6836 3.03989,4.0988 0.9456,1.4152 1.8211,2.8759 2.6235,4.377 0.8023,1.5011 1.5305,3.0406 2.1818,4.6131 0.6513,1.5725 1.2251,3.176 1.7192,4.8047 0.494,1.6288 0.9078,3.2808 1.2399,4.9501 0.332,1.6694 0.5819,3.354 0.7488,5.0478 0.1668,1.6939 0.2504,3.3949 0.2504,5.0969 0,0 -52.00004,0 -52.00004,0"
           id="path64"
           style="fill:#e495a5;fill-opacity:1;fill-rule:nonzero;stroke:#000000;stroke-width:0.5;stroke-linecap:butt;stroke-linejoin:round;stroke-miterlimit:1;stroke-opacity:1;stroke-dasharray:none" /></g><g
         transform="translate(40,41)"
         id="g66"><path
           d="m 111.7501,323.0332 c 0,28.7188 -23.28123,52 -52.00004,52 -28.7188,0 -51.999996,-23.2812 -51.999996,-52 0,-28.7188 23.281196,-52 51.999996,-52 28.71881,0 52.00004,23.2812 52.00004,52 z"
           id="path68"
           style="fill:none;stroke:#000000;stroke-width:1;stroke-linecap:butt;stroke-linejoin:round;stroke-miterlimit:1;stroke-opacity:1;stroke-dasharray:none" /></g><g
         transform="translate(40,41)"
         id="g70"><text
           transform="matrix(1,0,0,-1,42.25006,317.4332)"
           id="text72"><tspan
             x="0 7 14 21 28"
             y="0"
             id="tspan74"
             style="font-size:14px;font-variant:normal;font-weight:normal;writing-mode:lr-tb;fill:#000000;fill-opacity:1;fill-rule:nonzero;stroke:none;font-family:Times;-inkscape-font-specification:Times-Roman">19618</tspan></text>
</g><g
         transform="translate(40,41)"
         id="g76"><path
           d="m 107.1582,344.7335 c 2.567,1.175 5.2053,2.3827 7.9065,3.6191"
           id="path78"
           style="fill:none;stroke:#000000;stroke-width:7.71354198;stroke-linecap:butt;stroke-linejoin:round;stroke-miterlimit:1;stroke-opacity:1;stroke-dasharray:none" /></g><g
         transform="translate(40,41)"
         id="g80"><path
           d="m 138.7273,359.1838 -28.1947,-0.1809 15.1081,-2.1176 -11.6895,-5.3507 1.3971,-3.0522 1.3971,-3.0523 11.6895,5.3508 -8.271,-12.8191 18.5634,21.222 z"
           id="path82"
           style="fill:#000000;fill-opacity:1;fill-rule:nonzero;stroke:#000000;stroke-width:1;stroke-linecap:butt;stroke-linejoin:round;stroke-miterlimit:1;stroke-opacity:1;stroke-dasharray:none" /></g><g
         transform="translate(40,41)"
         id="g84"><path
           d="m 86.14465,650.61 c 0,0 26.99995,0 26.99995,0 0,0.8838 -0.0433,1.767 -0.13,2.6465 -0.0866,0.8795 -0.2163,1.7542 -0.3887,2.621 -0.1725,0.8667 -0.3873,1.7245 -0.6439,2.5702 -0.2565,0.8457 -0.5544,1.6783 -0.8926,2.4948 -0.3382,0.8165 -0.7163,1.6158 -1.1329,2.3952 -0.4166,0.7794 -0.8712,1.5379 -1.3622,2.2727 -0.491,0.7348 -1.0177,1.4451 -1.5784,2.1283 -0.5606,0.6831 -1.1545,1.3383 -1.7794,1.9632 -0.6249,0.6249 -1.2801,1.2188 -1.9632,1.7794 -0.6832,0.5607 -1.3934,1.0874 -2.1283,1.5784 -0.7348,0.491 -1.49324,0.9456 -2.27264,1.3622 -0.7794,0.4166 -1.57878,0.7947 -2.39526,1.1329 -0.81648,0.3382 -1.64907,0.6361 -2.49476,0.8926 -0.8457,0.2566 -1.70348,0.4714 -2.57025,0.6438 -0.86677,0.1724 -1.74148,0.3022 -2.62098,0.3888 -0.87949,0.0866 -1.76271,0.13 -2.64646,0.13 -0.88375,0 -1.76697,-0.0434 -2.64646,-0.13 -0.8795,-0.0866 -1.75421,-0.2164 -2.62098,-0.3888 -0.86677,-0.1724 -1.72455,-0.3872 -2.57025,-0.6438 -0.84569,-0.2565 -1.67828,-0.5544 -2.49476,-0.8926 -0.81648,-0.3382 -1.61586,-0.7163 -2.39526,-1.1329 -0.7794,-0.4166 -1.53788,-0.8712 -2.27269,-1.3622 -0.73481,-0.491 -1.44507,-1.0177 -2.12822,-1.5784 -0.68315,-0.5606 -1.33836,-1.1545 -1.96326,-1.7794 -0.62491,-0.6249 -1.21876,-1.2801 -1.7794,-1.9632 -0.56065,-0.6832 -1.08742,-1.3935 -1.5784,-2.1283 -0.49099,-0.7348 -0.9456,-1.4933 -1.3622,-2.2727 -0.41659,-0.7794 -0.79467,-1.5787 -1.13287,-2.3952 -0.33819,-0.8165 -0.6361,-1.6491 -0.89264,-2.4948 -0.25654,-0.8457 -0.4714,-1.7035 -0.64381,-2.5702 -0.17241,-0.8668 -0.30217,-1.7415 -0.38879,-2.621 -0.08662,-0.8795 -0.13001,-1.7627 -0.13001,-2.6465 0,-0.8837 0.04339,-1.7669 0.13001,-2.6464 0.08662,-0.8795 0.21638,-1.7542 0.38879,-2.621 0.17241,-0.8668 0.38727,-1.7246 0.64381,-2.5703 0.25654,-0.8457 0.55445,-1.6782 0.89264,-2.4947 0.3382,-0.8165 0.71628,-1.6159 1.13287,-2.3953 0.4166,-0.7794 0.87121,-1.5379 1.3622,-2.2727 0.49098,-0.7348 1.01775,-1.445 1.5784,-2.1282 0.56064,-0.6831 1.15449,-1.3383 1.7794,-1.9633 0.6249,-0.6249 1.28011,-1.2187 1.96326,-1.7794 0.68315,-0.5606 1.39341,-1.0874 2.12822,-1.5783 0.73481,-0.491 1.49329,-0.9456 2.27269,-1.3622 0.7794,-0.4166 1.57878,-0.7947 2.39526,-1.1329 0.81648,-0.3382 1.64907,-0.6361 2.49476,-0.8927 0.8457,-0.2565 1.70348,-0.4714 2.57025,-0.6438 0.86677,-0.1724 1.74148,-0.3021 2.62098,-0.3888 0.87949,-0.0866 1.76271,-0.13 2.64646,-0.13 0.88375,0 1.76697,0.0434 2.64646,0.13 0.8795,0.0867 1.75421,0.2164 2.62098,0.3888 0.86677,0.1724 1.72455,0.3873 2.57025,0.6438 0.84569,0.2566 1.67828,0.5545 2.49476,0.8927 0.81648,0.3382 1.61586,0.7163 2.39526,1.1329 0.7794,0.4166 1.53784,0.8712 2.27264,1.3622 0.7349,0.4909 1.4451,1.0177 2.1283,1.5783 0.6831,0.5607 1.3383,1.1545 1.9632,1.7794 0.6249,0.625 1.2188,1.2802 1.7794,1.9633 0.5607,0.6832 1.0874,1.3934 1.5784,2.1282 0.491,0.7348 0.9456,1.4933 1.3622,2.2727 0.4166,0.7794 0.7947,1.5788 1.1329,2.3953 0.3382,0.8165 0.6361,1.649 0.8926,2.4947 0.2566,0.8457 0.4714,1.7035 0.6439,2.5703 0.1724,0.8668 0.3021,1.7415 0.3887,2.621 0.0867,0.8795 0.13,1.7627 0.13,2.6464 0,0 -26.99995,0 -26.99995,0"
           id="path86"
           style="fill:#e495a5;fill-opacity:1;fill-rule:nonzero;stroke:#000000;stroke-width:0.5;stroke-linecap:butt;stroke-linejoin:round;stroke-miterlimit:1;stroke-opacity:1;stroke-dasharray:none" /></g><g
         transform="translate(40,41)"
         id="g88"><path
           d="m 113.1446,650.61 c 0,14.9117 -12.0883,27 -26.99995,27 -14.91169,0 -27,-12.0883 -27,-27 0,-14.9117 12.08831,-27 27,-27 14.91165,0 26.99995,12.0883 26.99995,27 z"
           id="path90"
           style="fill:none;stroke:#000000;stroke-width:1;stroke-linecap:butt;stroke-linejoin:round;stroke-miterlimit:1;stroke-opacity:1;stroke-dasharray:none" /></g><g
         transform="translate(40,41)"
         id="g92"><text
           transform="matrix(1,0,0,-1,68.64465,645.01)"
           id="text94"><tspan
             x="0 7 14 21 28"
             y="0"
             id="tspan96"
             style="font-size:14px;font-variant:normal;font-weight:normal;writing-mode:lr-tb;fill:#000000;fill-opacity:1;fill-rule:nonzero;stroke:none;font-family:Times;-inkscape-font-specification:Times-Roman">19637</tspan></text>
</g><g
         transform="translate(40,41)"
         id="g98"><path
           d="m 105.3571,631.4061 c 11.7149,-11.7096 27.8936,-27.881 45.9896,-45.9689"
           id="path100"
           style="fill:none;stroke:#000000;stroke-width:10;stroke-linecap:butt;stroke-linejoin:round;stroke-miterlimit:1;stroke-opacity:1;stroke-dasharray:none" /></g><g
         transform="translate(40,41)"
         id="g102"><path
           d="m 175.1019,561.6925 -12.9712,34.174 4.3647,-19.2088 -11.7877,11.7825 -3.1813,-3.1827 -3.1813,-3.1827 11.7878,-11.7825 -19.2107,4.3562 34.1797,-12.956 z"
           id="path104"
           style="fill:#000000;fill-opacity:1;fill-rule:nonzero;stroke:#000000;stroke-width:1;stroke-linecap:butt;stroke-linejoin:round;stroke-miterlimit:1;stroke-opacity:1;stroke-dasharray:none" /></g></g></g></svg>