<?xml version="1.0" encoding="UTF-8" standalone="no"?>
<!-- Created with Inkscape (http://www.inkscape.org/) -->

<svg
   xmlns:dc="http://purl.org/dc/elements/1.1/"
   xmlns:cc="http://creativecommons.org/ns#"
   xmlns:rdf="http://www.w3.org/1999/02/22-rdf-syntax-ns#"
   xmlns:svg="http://www.w3.org/2000/svg"
   xmlns="http://www.w3.org/2000/svg"
   version="1.1"
   width="1665"
   height="1640"
   id="svg2"
   xml:space="preserve"><metadata
     id="metadata8"><rdf:RDF><cc:Work
         rdf:about=""><dc:format>image/svg+xml</dc:format><dc:type
           rdf:resource="http://purl.org/dc/dcmitype/StillImage" /><dc:title></dc:title></cc:Work></rdf:RDF></metadata><defs
     id="defs6" /><g
     transform="matrix(1.25,0,0,-1.25,0,1640)"
     id="g10"><g
       id="g12" /><g
       id="g14"><g
         transform="translate(40,41)"
         id="g16"><path
           d="m 454.5993,215.6194 0,374 233,0 0,-374 -233,0 z"
           id="path18"
           style="fill:#c5ff8a;fill-opacity:0.50199998;fill-rule:nonzero;stroke:#e495a5;stroke-width:75;stroke-linecap:butt;stroke-linejoin:round;stroke-miterlimit:1;stroke-opacity:1;stroke-dasharray:none" /></g><g
         transform="translate(40,41)"
         id="g20"><text
           transform="matrix(1,0,0,-1,462.7888,465.6194)"
           id="text22"><tspan
             x="0 39.959999 126.624 156.62399"
             y="0"
             id="tspan24"
             style="font-size:120px;font-variant:normal;font-weight:normal;writing-mode:lr-tb;fill:#000000;fill-opacity:1;fill-rule:nonzero;stroke:none;font-family:Times;-inkscape-font-specification:Times-Roman">ID 1</tspan></text>
</g><g
         transform="translate(40,41)"
         id="g26"><path
           d="m 695.5993,-0.08695387 0,631.99995387 472.9997,0 0,-631.99995387 -472.9997,0 z"
           id="path28"
           style="fill:#58ff5d;fill-opacity:0.50199998;fill-rule:nonzero;stroke:#abb065;stroke-width:75;stroke-linecap:butt;stroke-linejoin:round;stroke-miterlimit:1;stroke-opacity:1;stroke-dasharray:none" /></g><g
         transform="translate(40,41)"
         id="g30"><text
           transform="matrix(1,0,0,-1,823.7888,507.913)"
           id="text32"><tspan
             x="0 39.959999 126.624 156.62399"
             y="0"
             id="tspan34"
             style="font-size:120px;font-variant:normal;font-weight:normal;writing-mode:lr-tb;fill:#000000;fill-opacity:1;fill-rule:nonzero;stroke:none;font-family:Times;-inkscape-font-specification:Times-Roman">ID 2</tspan></text>
</g><g
         transform="translate(40,41)"
         id="g36"><path
           d="m -0.06187624,178.9117 0,539 357.99997624,0 0,-539 -357.99997624,0 z"
           id="path38"
           style="fill:#66ff71;fill-opacity:0.50199998;fill-rule:nonzero;stroke:#39beb1;stroke-width:75;stroke-linecap:butt;stroke-linejoin:round;stroke-miterlimit:1;stroke-opacity:1;stroke-dasharray:none" /></g><g
         transform="translate(40,41)"
         id="g40"><text
           transform="matrix(1,0,0,-1,70.62758,593.9117)"
           id="text42"><tspan
             x="0 39.959999 126.624 156.62399"
             y="0"
             id="tspan44"
             style="font-size:120px;font-variant:normal;font-weight:normal;writing-mode:lr-tb;fill:#000000;fill-opacity:1;fill-rule:nonzero;stroke:none;font-family:Times;-inkscape-font-specification:Times-Roman">ID 3</tspan></text>
</g><g
         transform="translate(40,41)"
         id="g46"><path
           d="m 880.2381,719.6409 0,512.0001 371.9999,0 0,-512.0001 -371.9999,0 z"
           id="path48"
           style="fill:#4dff4d;fill-opacity:0.50199998;fill-rule:nonzero;stroke:#aca4e2;stroke-width:75;stroke-linecap:butt;stroke-linejoin:round;stroke-miterlimit:1;stroke-opacity:1;stroke-dasharray:none" /></g><g
         transform="translate(40,41)"
         id="g50"><text
           transform="matrix(1,0,0,-1,957.9276,1107.641)"
           id="text52"><tspan
             x="0 39.959999 126.624 156.62399"
             y="0"
             id="tspan54"
             style="font-size:120px;font-variant:normal;font-weight:normal;writing-mode:lr-tb;fill:#000000;fill-opacity:1;fill-rule:nonzero;stroke:none;font-family:Times;-inkscape-font-specification:Times-Roman">ID 4</tspan></text>
</g><g
         transform="translate(40,41)"
         id="g56"><path
           d="m 610.2021,299.7578 c 0,0 64,0 64,0 0,2.3215 -0.1263,4.6412 -0.3784,6.9489 -0.2521,2.3078 -0.6295,4.6001 -1.1306,6.8668 -0.5011,2.2667 -1.1252,4.5045 -1.8695,6.7034 -0.7443,2.1989 -1.6077,4.3556 -2.5863,6.4607 -0.9786,2.1051 -2.0711,4.1554 -3.2725,6.1418 -1.2014,1.9864 -2.51,3.9059 -3.92,5.7501 -1.4099,1.8442 -2.9192,3.6104 -4.5211,5.2906 -1.6019,1.6802 -3.294,3.272 -5.0688,4.7683 -1.7749,1.4964 -3.6298,2.8951 -5.5566,4.1899 -1.9269,1.2948 -3.9227,2.4838 -5.9787,3.5617 -2.056,1.0779 -4.1692,2.0432 -6.33,2.8915 -2.1609,0.8483 -4.3664,1.5785 -6.6066,2.1872 -2.2403,0.6086 -4.5119,1.095 -6.805,1.4569 -2.2931,0.3618 -4.6042,0.5986 -6.923,0.7094 -2.3188,0.1107 -4.6419,0.0952 -6.959,-0.0465 -2.3171,-0.1417 -4.6248,-0.4093 -6.9129,-0.8017 -2.288,-0.3925 -4.553,-0.9091 -6.7849,-1.5476 -2.2319,-0.6386 -4.4274,-1.3981 -6.5768,-2.2752 -2.1494,-0.8771 -4.2494,-1.8705 -6.2909,-2.9758 -2.0414,-1.1052 -4.0212,-2.3208 -5.9306,-3.6412 -1.9093,-1.3204 -3.7454,-2.7437 -5.5001,-4.2636 -1.7548,-1.5199 -3.4255,-3.1342 -5.0048,-4.8356 -1.5793,-1.7014 -3.0649,-3.4875 -4.4501,-5.3504 -1.3852,-1.8629 -2.6681,-3.7997 -3.8429,-5.802 -1.1748,-2.0022 -2.2397,-4.0669 -3.1902,-6.1849 -0.9504,-2.1179 -1.7849,-4.2861 -2.4998,-6.4947 -0.7148,-2.2086 -1.309,-4.4545 -1.7798,-6.7277 -0.4708,-2.2732 -0.8176,-4.5704 -1.0389,-6.8813 -0.2212,-2.3108 -0.3165,-4.6321 -0.2855,-6.9533 0.0309,-2.3212 0.1882,-4.6391 0.471,-6.9432 0.2829,-2.3042 0.6909,-4.5912 1.2222,-6.8511 0.5314,-2.2598 1.1853,-4.489 1.9588,-6.6778 0,0 60.3423,21.3264 60.3423,21.3264"
           id="path58"
           style="fill:#e495a5;fill-opacity:1;fill-rule:nonzero;stroke:#000000;stroke-width:0.5;stroke-linecap:butt;stroke-linejoin:round;stroke-miterlimit:1;stroke-opacity:1;stroke-dasharray:none" /></g><g
         transform="translate(40,41)"
         id="g60"><path
           d="m 610.2021,299.7578 c 0,0 -60.3423,-21.3264 -60.3423,-21.3264 0.5732,-1.6218 1.2116,-3.2199 1.9135,-4.7903 0.702,-1.5704 1.467,-3.1119 2.2931,-4.6207 0.8261,-1.5087 1.7128,-2.9836 2.6577,-4.4209 0.945,-1.4374 1.9475,-2.836 3.0052,-4.1926 1.0576,-1.3566 2.1695,-2.67 3.333,-3.937 1.1634,-1.267 2.3775,-2.4865 3.6392,-3.6557 1.2618,-1.1692 2.5701,-2.287 3.9219,-3.3508 1.3518,-1.0638 2.7459,-2.0726 4.1789,-3.024 1.4331,-0.9515 2.9039,-1.8448 4.4089,-2.6777 1.5051,-0.833 3.0431,-1.6049 4.6103,-2.314 1.5672,-0.709 3.1624,-1.3546 4.7816,-1.9351 1.6192,-0.5805 3.2612,-1.0955 4.9219,-1.5437 1.6607,-0.4483 3.3389,-0.8294 5.0303,-1.1424 1.6914,-0.313 3.3948,-0.5578 5.1059,-0.7336 1.7112,-0.1758 3.4287,-0.2825 5.1484,-0.3199 1.7198,-0.0375 3.4403,-0.005 5.1575,0.0957 1.7172,0.1012 3.4296,0.2715 5.133,0.5107 1.7034,0.2392 3.3965,0.5469 5.0752,0.9225 1.6786,0.3755 3.3415,0.8186 4.9844,1.3281 1.643,0.5096 3.2647,1.0851 4.8613,1.7253 1.5966,0.6402 3.1667,1.3445 4.7065,2.1112 1.5399,0.7667 3.0482,1.5951 4.5213,2.4833 1.4731,0.8882 2.9097,1.8355 4.3065,2.8394 1.3968,1.004 2.7525,2.0639 4.0639,3.177 1.3114,1.1132 2.5774,2.2788 3.7949,3.494 1.2174,1.2152 2.3854,2.4789 3.5011,3.7882 1.1156,1.3093 2.1781,2.663 3.1847,4.0579 1.0066,1.3949 1.9565,2.8298 2.8475,4.3012 0.891,1.4714 1.7223,2.9781 2.4919,4.5165 0.7696,1.5384 1.4769,3.1072 2.1201,4.7025 0.6432,1.5954 1.2218,3.216 1.7345,4.858 0.5126,1.642 0.9588,3.304 1.3376,4.9819 0,0 -62.4294,14.0914 -62.4294,14.0914"
           id="path62"
           style="fill:#abb065;fill-opacity:1;fill-rule:nonzero;stroke:#000000;stroke-width:0.5;stroke-linecap:butt;stroke-linejoin:round;stroke-miterlimit:1;stroke-opacity:1;stroke-dasharray:none" /></g><g
         transform="translate(40,41)"
         id="g64"><path
           d="m 610.2021,299.7578 c 0,0 62.4294,-14.0914 62.4294,-14.0914 0.5215,2.3105 0.9143,4.6481 1.1767,7.0021 0.2624,2.354 0.3939,4.7207 0.3939,7.0893 0,0 -64,0 -64,0"
           id="path66"
           style="fill:#39beb1;fill-opacity:1;fill-rule:nonzero;stroke:#000000;stroke-width:0.5;stroke-linecap:butt;stroke-linejoin:round;stroke-miterlimit:1;stroke-opacity:1;stroke-dasharray:none" /></g><g
         transform="translate(40,41)"
         id="g68"><path
           d="m 674.2021,299.7578 c 0,35.3462 -28.6538,64 -64,64 -35.3463,0 -64,-28.6538 -64,-64 0,-35.3462 28.6537,-64 64,-64 35.3462,0 64,28.6538 64,64 z"
           id="path70"
           style="fill:none;stroke:#000000;stroke-width:1;stroke-linecap:butt;stroke-linejoin:round;stroke-miterlimit:1;stroke-opacity:1;stroke-dasharray:none" /></g><g
         transform="translate(40,41)"
         id="g72"><text
           transform="matrix(1,0,0,-1,592.7021,294.1578)"
           id="text74"><tspan
             x="0 7 14 21 28"
             y="0"
             id="tspan76"
             style="font-size:14px;font-variant:normal;font-weight:normal;writing-mode:lr-tb;fill:#000000;fill-opacity:1;fill-rule:nonzero;stroke:none;font-family:Times;-inkscape-font-specification:Times-Roman">19750</tspan></text>
</g><g
         transform="translate(40,41)"
         id="g78"><path
           d="m 496.8697,396.8376 c 0,0 29.5,0 29.5,0 0,0.9656 -0.0474,1.9306 -0.142,2.8915 -0.0946,0.9609 -0.2364,1.9166 -0.4248,2.8636 -0.1884,0.9471 -0.4231,1.8843 -0.7034,2.8083 -0.2803,0.924 -0.6058,1.8337 -0.9753,2.7257 -0.3695,0.8921 -0.7826,1.7655 -1.2378,2.6171 -0.4551,0.8515 -0.9518,1.6803 -1.4883,2.4831 -0.5364,0.8028 -1.112,1.5789 -1.7245,2.3253 -0.6126,0.7464 -1.2614,1.4623 -1.9442,2.145 -0.6828,0.6828 -1.3986,1.3316 -2.145,1.9442 -0.7465,0.6125 -1.5225,1.1881 -2.3253,1.7245 -0.8029,0.5365 -1.6316,1.0332 -2.4831,1.4884 -0.8516,0.4551 -1.725,0.8682 -2.6171,1.2377 -0.8921,0.3695 -1.8018,0.695 -2.7258,0.9753 -0.924,0.2803 -1.8612,0.5151 -2.8082,0.7034 -0.947,0.1884 -1.9027,0.3302 -2.8636,0.4248 -0.961,0.0947 -1.926,0.1421 -2.8916,0.1421 -0.9655,0 -1.9305,-0.0474 -2.8915,-0.1421 -0.9609,-0.0946 -1.9166,-0.2364 -2.8636,-0.4248 -0.947,-0.1883 -1.8842,-0.4231 -2.8082,-0.7034 -0.9241,-0.2803 -1.8337,-0.6058 -2.7258,-0.9753 -0.8921,-0.3695 -1.7655,-0.7826 -2.6171,-1.2377 -0.8515,-0.4552 -1.6802,-0.9519 -2.4831,-1.4884 -0.8028,-0.5364 -1.5788,-1.112 -2.3253,-1.7245 -0.7464,-0.6126 -1.4622,-1.2614 -2.145,-1.9442 -0.6828,-0.6827 -1.3316,-1.3986 -1.9442,-2.145 -0.6125,-0.7464 -1.1881,-1.5225 -1.7245,-2.3253 -0.5365,-0.8028 -1.0332,-1.6316 -1.4883,-2.4831 -0.4552,-0.8516 -0.8683,-1.725 -1.2378,-2.6171 -0.3695,-0.892 -0.695,-1.8017 -0.9753,-2.7257 -0.2803,-0.924 -0.515,-1.8612 -0.7034,-2.8083 -0.1884,-0.947 -0.3302,-1.9027 -0.4248,-2.8636 -0.0946,-0.9609 -0.1421,-1.9259 -0.1421,-2.8915 0,-0.9656 0.0475,-1.9306 0.1421,-2.8915 0.0946,-0.961 0.2364,-1.9167 0.4248,-2.8637 0.1884,-0.947 0.4231,-1.8842 0.7034,-2.8082 0.2803,-0.924 0.6058,-1.8337 0.9753,-2.7258 0.3695,-0.8921 0.7826,-1.7655 1.2378,-2.617 0.4551,-0.8516 0.9518,-1.6803 1.4883,-2.4831 0.5364,-0.8029 1.112,-1.5789 1.7245,-2.3253 0.6126,-0.7464 1.2614,-1.4623 1.9442,-2.1451 0.6828,-0.6827 1.3986,-1.3316 2.145,-1.9441 0.7465,-0.6126 1.5225,-1.1881 2.3253,-1.7246 0.8029,-0.5364 1.6316,-1.0331 2.4831,-1.4883 0.8516,-0.4552 1.725,-0.8683 2.6171,-1.2378 0.8921,-0.3695 1.8017,-0.695 2.7258,-0.9753 0.924,-0.2803 1.8612,-0.515 2.8082,-0.7034 0.947,-0.1884 1.9027,-0.3301 2.8636,-0.4248 0.961,-0.0946 1.926,-0.142 2.8915,-0.142 0.9656,0 1.9306,0.0474 2.8916,0.142 0.9609,0.0947 1.9166,0.2364 2.8636,0.4248 0.947,0.1884 1.8842,0.4231 2.8082,0.7034 0.924,0.2803 1.8337,0.6058 2.7258,0.9753 0.8921,0.3695 1.7655,0.7826 2.6171,1.2378 0.8515,0.4552 1.6802,0.9519 2.4831,1.4883 0.8028,0.5365 1.5788,1.112 2.3253,1.7246 0.7464,0.6125 1.4622,1.2614 2.145,1.9441 0.6828,0.6828 1.3316,1.3987 1.9442,2.1451 0.6125,0.7464 1.1881,1.5224 1.7245,2.3253 0.5365,0.8028 1.0332,1.6315 1.4883,2.4831 0.4552,0.8515 0.8683,1.7249 1.2378,2.617 0.3695,0.8921 0.695,1.8018 0.9753,2.7258 0.2803,0.924 0.515,1.8612 0.7034,2.8082 0.1884,0.947 0.3302,1.9027 0.4248,2.8637 0.0946,0.9609 0.142,1.9259 0.142,2.8915 0,0 -29.5,0 -29.5,0"
           id="path80"
           style="fill:#e495a5;fill-opacity:1;fill-rule:nonzero;stroke:#000000;stroke-width:0.5;stroke-linecap:butt;stroke-linejoin:round;stroke-miterlimit:1;stroke-opacity:1;stroke-dasharray:none" /></g><g
         transform="translate(40,41)"
         id="g82"><path
           d="m 526.3697,396.8376 c 0,16.2924 -13.2076,29.5 -29.5,29.5 -16.2924,0 -29.5,-13.2076 -29.5,-29.5 0,-16.2924 13.2076,-29.5 29.5,-29.5 16.2924,0 29.5,13.2076 29.5,29.5 z"
           id="path84"
           style="fill:none;stroke:#000000;stroke-width:1;stroke-linecap:butt;stroke-linejoin:round;stroke-miterlimit:1;stroke-opacity:1;stroke-dasharray:none" /></g><g
         transform="translate(40,41)"
         id="g86"><text
           transform="matrix(1,0,0,-1,479.3697,391.2376)"
           id="text88"><tspan
             x="0 7 14 21 28"
             y="0"
             id="tspan90"
             style="font-size:14px;font-variant:normal;font-weight:normal;writing-mode:lr-tb;fill:#000000;fill-opacity:1;fill-rule:nonzero;stroke:none;font-family:Times;-inkscape-font-specification:Times-Roman">19751</tspan></text>
</g><g
         transform="translate(40,41)"
         id="g92"><path
           d="m 561.4812,341.4918 c -11.5507,9.8943 -23.5507,20.1734 -34.0289,29.1489"
           id="path94"
           style="fill:none;stroke:#000000;stroke-width:3.05965304;stroke-linecap:butt;stroke-linejoin:round;stroke-miterlimit:1;stroke-opacity:1;stroke-dasharray:none" /></g><g
         transform="translate(40,41)"
         id="g96"><path
           d="m 519.413,377.5271 4.76,-10.1204 -1.5571,6.0209 3.8728,-3.3175 0.67,0.7821 0.6699,0.7822 -3.8728,3.3174 6.1886,-0.614 -10.7314,3.1493 z"
           id="path98"
           style="fill:#000000;fill-opacity:1;fill-rule:nonzero;stroke:#000000;stroke-width:1;stroke-linecap:butt;stroke-linejoin:round;stroke-miterlimit:1;stroke-opacity:1;stroke-dasharray:none" /></g><g
         transform="translate(40,41)"
         id="g100"><path
           d="m 883.7177,291.4442 c 0,0 180.0003,0 180.0003,0 0,2.7553 -0.064,5.5102 -0.19,8.2626 -0.127,2.7523 -0.316,5.5014 -0.569,8.2451 -0.253,2.7436 -0.568,5.4811 -0.947,8.2103 -0.378,2.7291 -0.819,5.4493 -1.322,8.1582 -0.503,2.7089 -1.069,5.4059 -1.696,8.0889 -0.627,2.6829 -1.315,5.3511 -2.065,8.0025 -0.749,2.6514 -1.56,5.2851 -2.43,7.8993 -0.871,2.6141 -1.801,5.208 -2.791,7.7794 -0.989,2.5714 -2.038,5.1198 -3.144,7.6431 -1.107,2.5233 -2.271,5.0209 -3.492,7.4907 -1.221,2.4699 -2.499,4.9114 -3.832,7.3226 -1.334,2.4112 -2.722,4.7914 -4.165,7.1389 -1.442,2.3474 -2.939,4.6614 -4.487,6.9402 -1.549,2.2788 -3.15,4.5217 -4.802,6.7269 -1.652,2.2053 -3.354,4.3723 -5.105,6.4994 -1.751,2.1271 -3.551,4.2138 -5.398,6.2583 -1.847,2.0444 -3.741,4.0463 -5.68,6.0038 -1.939,1.9575 -3.923,3.8703 -5.949,5.7368 -2.027,1.8665 -4.096,3.6862 -6.2067,5.4576 -2.1103,1.7715 -4.261,3.4943 -6.4504,5.1671 -2.1893,1.6727 -4.4168,3.2949 -6.6807,4.8654 -2.2639,1.5705 -4.5635,3.0888 -6.8971,4.5537 -2.3335,1.4649 -4.7004,2.876 -7.0988,4.2323 -2.3983,1.3562 -4.8275,2.6572 -7.2856,3.9019 -2.4581,1.2448 -4.9444,2.4329 -7.457,3.5635 -2.5127,1.1305 -5.0509,2.2033 -7.6128,3.2173 -2.5619,1.0141 -5.1467,1.9692 -7.7524,2.8645 -2.6057,0.8954 -5.2317,1.7309 -7.8757,2.5057 -2.6441,0.7748 -5.3056,1.4888 -7.9825,2.1415 -2.6768,0.6526 -5.3683,1.2437 -8.0723,1.7728 -2.704,0.5291 -5.4198,0.996 -8.1452,1.4004 -2.7254,0.4044 -5.4598,0.7461 -8.2009,1.025 -2.7411,0.2789 -5.4883,0.4948 -8.2393,0.6475 -2.751,0.1528 -5.5052,0.2423 -8.2604,0.2686 -2.7551,0.0263 -5.5105,-0.0106 -8.2639,-0.1108 -2.7535,-0.1002 -5.5042,-0.2636 -8.2502,-0.4901 -2.7459,-0.2265 -5.4863,-0.516 -8.219,-0.8682 -2.7326,-0.3523 -5.4568,-0.7673 -8.1704,-1.2447 -2.7136,-0.4773 -5.4159,-1.0169 -8.1047,-1.6183 -2.6889,-0.6014 -5.3635,-1.2645 -8.0219,-1.9887 -2.6584,-0.7242 -5.2998,-1.5093 -7.9221,-2.3548 -2.6224,-0.8455 -5.225,-1.751 -7.8057,-2.716 -2.5808,-0.9649 -5.1391,-1.989 -7.6728,-3.0714 -2.5338,-1.0824 -5.0424,-2.2228 -7.5238,-3.4204 -2.4814,-1.1975 -4.9349,-2.4519 -7.3587,-3.7621 -2.4239,-1.3102 -4.8173,-2.6759 -7.1784,-4.096 -2.3611,-1.42 -4.6893,-2.8941 -6.9827,-4.4211 -2.2935,-1.527 -4.5515,-3.1064 -6.7725,-4.737 -2.2209,-1.6307 -4.4041,-3.3121 -6.5478,-5.0429 -2.1438,-1.7309 -4.2475,-3.5107 -6.3095,-5.3382 -2.0621,-1.8274 -4.0818,-3.702 -6.0578,-5.6221 -1.976,-1.9202 -3.9076,-3.8855 -5.7933,-5.8943 -1.8858,-2.0089 -3.7252,-4.0608 -5.5167,-6.154 -1.7916,-2.0933 -3.5348,-4.2275 -5.2284,-6.4008 -1.6935,-2.1733 -3.337,-4.3852 -4.929,-6.634 -1.592,-2.2488 -3.1322,-4.5338 -4.6193,-6.8533 -1.4871,-2.3195 -2.9208,-4.6728 -4.2999,-7.0581 -1.3791,-2.3853 -2.7032,-4.8019 -3.9713,-7.248 -1.2682,-2.4461 -2.48,-4.9209 -3.6345,-7.4227 -1.1545,-2.5017 -2.2514,-5.0296 -3.2899,-7.5816 -1.0384,-2.5521 -2.0182,-5.1277 -2.9384,-7.7248 -0.9202,-2.597 -1.7807,-5.2149 -2.5807,-7.8514 -0.8,-2.6366 -1.5394,-5.2911 -2.2176,-7.9616 -0.6782,-2.6705 -1.2949,-5.3563 -1.8498,-8.0551 -0.5549,-2.6988 -1.0477,-5.41 -1.4781,-8.1314 -0.4304,-2.7215 -0.7983,-5.4525 -1.1033,-8.1908 -0.305,-2.7383 -0.5471,-5.4833 -0.7261,-8.2327 -0.179,-2.7495 -0.2949,-5.5027 -0.3475,-8.2574 -0.0526,-2.7548 -0.042,-5.5104 0.0319,-8.2647 0.0739,-2.7542 0.2111,-5.5065 0.4113,-8.2544 0.2003,-2.748 0.4636,-5.491 0.7898,-8.2269 0.3261,-2.7359 0.7151,-5.464 1.1665,-8.182 0.4514,-2.718 0.9652,-5.4253 1.5409,-8.1198 0.5757,-2.6944 1.2132,-5.3753 1.912,-8.0405 0.6988,-2.6652 1.4587,-5.314 2.2791,-7.9443 0.8204,-2.6302 1.701,-5.2414 2.6413,-7.8312 0.9403,-2.5899 1.9399,-5.1578 2.998,-7.7018 1.0582,-2.544 2.1746,-5.0633 3.3484,-7.556 1.1738,-2.4927 2.4047,-4.9582 3.6917,-7.3944 1.287,-2.4362 2.6298,-4.8425 4.0273,-7.2171 1.3974,-2.3746 2.8493,-4.7167 4.3542,-7.0247 1.505,-2.3079 3.0628,-4.5809 4.6722,-6.8173 1.6093,-2.2364 3.2698,-4.4356 4.9802,-6.5957 1.7103,-2.1602 3.47,-4.2808 5.2776,-6.3602 1.8077,-2.0794 3.6629,-4.117 5.5641,-6.1112 1.9012,-1.9942 3.8479,-3.9445 5.8387,-5.8493 1.9907,-1.9049 4.025,-3.7637 6.1011,-5.5752 2.076,-1.8114 4.1934,-3.575 6.3505,-5.2892 2.157,-1.7143 4.3532,-3.3787 6.5866,-4.9922 2.2335,-1.6134 4.5037,-3.1753 6.8089,-4.6845 2.3052,-1.5092 4.6447,-2.9653 7.0167,-4.3671 2.372,-1.4018 4.7759,-2.7489 7.2098,-4.0403 2.4338,-1.2915 4.897,-2.5268 7.3876,-3.7052 2.4906,-1.1783 5.0079,-2.2993 7.55,-3.3621 2.542,-1.0628 5.1081,-2.0671 7.6963,-3.012 2.5881,-0.945 5.1976,-1.8304 7.8264,-2.6556 2.6288,-0.8252 5.2762,-1.5899 7.9401,-2.2935 2.6639,-0.7036 5.3436,-1.346 8.037,-1.9266 2.6934,-0.5806 5.3998,-1.0993 8.117,-1.5557 2.7172,-0.4564 5.4445,-0.8503 8.1798,-1.1814 2.7353,-0.3312 5.4779,-0.5995 8.2255,-0.8047 2.7476,-0.2053 5.4995,-0.3474 8.2537,-0.4263 2.7541,-0.0789 5.5097,-0.0946 8.2645,-0.047 2.7549,0.0476 5.5083,0.1584 8.2581,0.3324 2.7497,0.174 5.4951,0.4112 8.234,0.7112 2.7389,0.3 5.4705,0.6629 8.1928,1.0884 2.7222,0.4254 5.4343,0.9133 8.1341,1.4633 2.6998,0.5499 5.3866,1.1618 8.0584,1.8351 2.6717,0.6733 5.3276,1.4079 7.9656,2.2031 2.638,0.7953 5.2574,1.651 7.8562,2.5665 2.5987,0.9155 5.176,1.8905 7.73,2.9243 2.554,1.0338 5.0839,2.1262 7.5877,3.2761 2.5038,1.15 4.9809,2.3573 7.4292,3.621 2.4484,1.2637 4.8675,2.5834 7.2553,3.9581 2.3878,1.3748 4.7437,2.8041 7.0659,4.287 2.3222,1.4829 4.61,3.019 6.8616,4.6069 2.2517,1.5879 4.4666,3.2273 6.643,4.9169 2.1764,1.6897 4.3137,3.429 6.4099,5.2168 2.097,1.7877 4.152,3.6233 6.164,5.5054 2.013,1.8821 3.981,3.8101 5.905,5.7826 1.924,1.9725 3.802,3.9889 5.633,6.0476 1.832,2.0587 3.615,4.1591 5.35,6.2997 1.735,2.1406 3.42,4.3207 5.055,6.5387 1.634,2.218 3.218,4.4732 4.749,6.7638 1.531,2.2907 3.01,4.6162 4.434,6.9747 1.424,2.3585 2.794,4.7495 4.109,7.1709 1.315,2.4214 2.573,4.8727 3.776,7.3519 1.202,2.4792 2.347,4.9857 3.434,7.5175 0,0 -165.4003,71.0132 -165.4003,71.0132"
           id="path102"
           style="fill:#abb065;fill-opacity:1;fill-rule:nonzero;stroke:#000000;stroke-width:0.5;stroke-linecap:butt;stroke-linejoin:round;stroke-miterlimit:1;stroke-opacity:1;stroke-dasharray:none" /></g><g
         transform="translate(40,41)"
         id="g104"><path
           d="m 883.7177,291.4442 c 0,0 165.4003,-71.0132 165.4003,-71.0132 1.2,2.795 2.329,5.62 3.385,8.4722 1.057,2.8523 2.042,5.7308 2.953,8.633 0.911,2.9021 1.748,5.8268 2.511,8.7714 0.762,2.9445 1.45,5.9079 2.063,8.8873 0.612,2.9795 1.149,5.9739 1.61,8.9806 0.461,3.0066 0.846,6.0244 1.153,9.0505 0.308,3.0262 0.539,6.0596 0.693,9.0974 0.155,3.0378 0.232,6.0791 0.232,9.1208 0,0 -180.0003,0 -180.0003,0"
           id="path106"
           style="fill:#e495a5;fill-opacity:1;fill-rule:nonzero;stroke:#000000;stroke-width:0.5;stroke-linecap:butt;stroke-linejoin:round;stroke-miterlimit:1;stroke-opacity:1;stroke-dasharray:none" /></g><g
         transform="translate(40,41)"
         id="g108"><path
           d="m 1063.718,291.4442 c 0,99.4113 -80.5891,180 -180.0003,180 -99.4113,0 -180,-80.5887 -180,-180 0,-99.4112 80.5887,-180 180,-180 99.4112,0 180.0003,80.5888 180.0003,180 z"
           id="path110"
           style="fill:none;stroke:#000000;stroke-width:1;stroke-linecap:butt;stroke-linejoin:round;stroke-miterlimit:1;stroke-opacity:1;stroke-dasharray:none" /></g><g
         transform="translate(40,41)"
         id="g112"><text
           transform="matrix(1,0,0,-1,866.2177,285.8442)"
           id="text114"><tspan
             x="0 7 14 21 28"
             y="0"
             id="tspan116"
             style="font-size:14px;font-variant:normal;font-weight:normal;writing-mode:lr-tb;fill:#000000;fill-opacity:1;fill-rule:nonzero;stroke:none;font-family:Times;-inkscape-font-specification:Times-Roman">19776</tspan></text>
</g><g
         transform="translate(40,41)"
         id="g118"><path
           d="m 703.1667,296.9321 c 0.0798,-0.002 0.1595,-0.005 0.2393,-0.007"
           id="path120"
           style="fill:none;stroke:#ff0000;stroke-width:20;stroke-linecap:butt;stroke-linejoin:round;stroke-miterlimit:1;stroke-opacity:1;stroke-dasharray:none" /></g><g
         transform="translate(40,41)"
         id="g122"><path
           d="m 674.3293,297.8087 65.7244,-32.0118 -32.6951,21.5033 33.318,-1.0128 0.2886,9.4956 0.2887,9.4956 -33.318,1.0128 33.9409,19.4778 -67.5475,-27.9605 z"
           id="path124"
           style="fill:#ff0000;fill-opacity:1;fill-rule:nonzero;stroke:#ff0000;stroke-width:1;stroke-linecap:butt;stroke-linejoin:round;stroke-miterlimit:1;stroke-opacity:1;stroke-dasharray:none" /></g><g
         transform="translate(40,41)"
         id="g126"><path
           d="m 703.6455,296.9176 -65.7123,32.0385 32.6868,-21.5167 -33.3179,1.0262 -0.2925,-9.4956 -0.2925,-9.4956 33.318,-1.0262 -33.9491,-19.4644 67.5595,27.9338 z"
           id="path128"
           style="fill:#ff0000;fill-opacity:1;fill-rule:nonzero;stroke:#ff0000;stroke-width:1;stroke-linecap:butt;stroke-linejoin:round;stroke-miterlimit:1;stroke-opacity:1;stroke-dasharray:none" /></g><g
         transform="translate(40,41)"
         id="g130"><path
           d="m 210.606,325.7785 c 0,0 139,0 139,0 0,1.9312 -0.0403,3.8621 -0.1207,5.7916 -0.0805,1.9295 -0.2012,3.857 -0.3619,5.7815 -0.1608,1.9244 -0.3617,3.8453 -0.6025,5.7614 -0.2409,1.9161 -0.5216,3.8269 -0.842,5.7313 -0.3205,1.9044 -0.6806,3.8018 -1.0801,5.6912 -0.3996,1.8894 -0.8384,3.7702 -1.3163,5.6413 -0.4779,1.8711 -0.9948,3.732 -1.5502,5.5816 -0.5555,1.8495 -1.1494,3.6873 -1.7814,5.5121 -0.632,1.8248 -1.302,3.6362 -2.0095,5.4331 -0.7075,1.7968 -1.4524,3.5788 -2.2342,5.3446 -0.7818,1.7659 -1.6002,3.5152 -2.4549,5.2469 -0.8547,1.7318 -1.7453,3.4455 -2.6714,5.1401 -0.9261,1.6946 -1.8873,3.3698 -2.8832,5.0243 -0.9959,1.6546 -2.0261,3.2882 -3.0901,4.8998 -1.0639,1.6117 -2.1614,3.201 -3.2915,4.7669 -1.1302,1.5659 -2.2929,3.108 -3.4873,4.6255 -1.1945,1.5174 -2.4204,3.0098 -3.677,4.4762 -1.2567,1.4663 -2.5437,2.9064 -3.8603,4.3191 -1.3167,1.4127 -2.6626,2.7979 -4.037,4.1545 -1.3743,1.3567 -2.7768,2.6845 -4.2065,3.9827 -1.4297,1.2982 -2.8862,2.5665 -4.3688,3.804 -1.4825,1.2375 -2.9907,2.444 -4.5235,3.6187 -1.5328,1.1746 -3.0899,2.3172 -4.6703,3.427 -1.5805,1.1098 -3.1838,2.1865 -4.8091,3.2295 -1.6253,1.0429 -3.2722,2.0519 -4.9395,3.0262 -1.6673,0.9744 -3.3548,1.9139 -5.0613,2.8179 -1.7064,0.904 -3.4316,1.7724 -5.1743,2.6045 -1.7426,0.8321 -3.5024,1.6279 -5.2783,2.3867 -1.7758,0.7588 -3.5672,1.4805 -5.3731,2.1646 -1.8059,0.6842 -3.6259,1.3306 -5.4587,1.9389 -1.8329,0.6084 -3.6782,1.1784 -5.5348,1.7098 -1.8566,0.5314 -3.724,1.0241 -5.6012,1.4777 -1.8771,0.4536 -3.7634,0.868 -5.6578,1.243 -1.8944,0.375 -3.7964,0.7105 -5.7048,1.0062 -1.9084,0.2958 -3.8227,0.5517 -5.7417,0.7677 -1.9191,0.2159 -3.8424,0.3919 -5.7688,0.5277 -1.9263,0.1358 -3.8553,0.2315 -5.7857,0.2869 -1.9303,0.0555 -3.8616,0.0707 -5.7926,0.0456 -1.931,-0.025 -3.8612,-0.0903 -5.7895,-0.1958 -1.9283,-0.1054 -3.8541,-0.2511 -5.7763,-0.4368 -1.9222,-0.1857 -3.8404,-0.4115 -5.7531,-0.6771 -1.9128,-0.2657 -3.8199,-0.5712 -5.7199,-0.9163 -1.9001,-0.3451 -3.7928,-0.7298 -5.6768,-1.1538 -1.884,-0.424 -3.759,-0.8872 -5.6237,-1.3893 -1.8648,-0.5021 -3.7188,-1.0431 -5.561,-1.6224 -1.8422,-0.5794 -3.6721,-1.1971 -5.4886,-1.8528 -1.8164,-0.6556 -3.619,-1.349 -5.4065,-2.0798 -1.7876,-0.7307 -3.5597,-1.4986 -5.3153,-2.3032 -1.7555,-0.8046 -3.4941,-1.6457 -5.2146,-2.5228 -1.7205,-0.877 -3.4226,-1.7898 -5.105,-2.7378 -1.6825,-0.9479 -3.345,-1.9309 -4.9866,-2.9481 -1.6415,-1.0173 -3.2616,-2.0686 -4.8593,-3.1534 -1.5977,-1.0847 -3.1726,-2.2026 -4.7237,-3.353 -1.5511,-1.1504 -3.0781,-2.333 -4.5799,-3.547 -1.5019,-1.214 -2.9782,-2.4592 -4.4282,-3.7347 -1.4499,-1.2756 -2.8731,-2.5812 -4.2687,-3.916 -1.3955,-1.3349 -2.7631,-2.6986 -4.1018,-4.0905 -1.3387,-1.3918 -2.6483,-2.8114 -3.9279,-4.2578 -1.2795,-1.4464 -2.5288,-2.9193 -3.747,-4.4177 -1.2182,-1.4985 -2.405,-3.0222 -3.55966,-4.5701 -1.15469,-1.5479 -2.277,-3.1197 -3.36619,-4.7144 -1.08919,-1.5947 -2.14503,-3.2119 -3.16684,-4.8505 -1.0218,-1.6387 -2.00934,-3.2985 -2.96198,-4.9783 -0.95263,-1.6799 -1.87016,-3.3794 -2.75198,-5.0974 -0.88182,-1.7181 -1.72774,-3.4543 -2.53721,-5.2076 -0.80947,-1.7533 -1.58231,-3.5233 -2.31802,-5.3088 -0.73572,-1.7856 -1.43414,-3.5862 -2.09482,-5.4008 -0.66068,-1.8147 -1.28347,-3.6428 -1.86796,-5.4834 -0.5845,-1.8406 -1.13058,-3.6931 -1.63788,-5.5565 -0.5073,-1.8633 -0.97571,-3.737 -1.40494,-5.6198 -0.42922,-1.8829 -0.81916,-3.7745 -1.16956,-5.6736 -0.3504,-1.899 -0.66118,-3.8052 -0.93215,-5.7173 -0.27097,-1.912 -0.50206,-3.8295 -0.69313,-5.7512 -0.19106,-1.9217 -0.34206,-3.8471 -0.45289,-5.7751 -0.11083,-1.9279 -0.18147,-3.858 -0.21188,-5.7889 -0.0304,-1.9309 -0.02056,-3.8623 0.02951,-5.7928 0.05008,-1.9305 0.14038,-3.8597 0.27084,-5.7864 0.13047,-1.9268 0.30108,-3.8506 0.51171,-5.7702 0.21063,-1.9196 0.46125,-3.8347 0.75168,-5.7439 0.29043,-1.9091 0.62062,-3.8121 0.99035,-5.7075 0.36973,-1.8954 0.77892,-3.7829 1.2273,-5.6613 0.44839,-1.8784 0.93586,-3.7472 1.46212,-5.6053 0.52626,-1.858 1.09118,-3.7049 1.6944,-5.5394 0.60322,-1.8346 1.2446,-3.6563 1.92373,-5.4641 0.67913,-1.8078 1.39586,-3.6012 2.14973,-5.3792 0.75386,-1.7779 1.5447,-3.5399 2.37199,-5.2849 0.82729,-1.745 1.69085,-3.4725 2.59013,-5.1815 0.89927,-1.709 1.83407,-3.399 2.80377,-5.0691 0.9697,-1.67 1.9741,-3.3197 3.01255,-4.9478 1.03844,-1.6282 2.1107,-3.2346 3.21608,-4.8181 1.10538,-1.5835 2.24365,-3.1438 3.414,-4.6798 1.1704,-1.5361 2.3727,-3.0476 3.6061,-4.5336 1.2334,-1.4859 2.4976,-2.946 3.7918,-4.3793 1.2943,-1.4333 2.6182,-2.8395 3.971,-4.2176 1.3529,-1.3781 2.7343,-2.7279 4.1433,-4.0484 1.4091,-1.3206 2.8455,-2.6116 4.3084,-3.8723 1.4629,-1.2607 2.9519,-2.4908 4.466,-3.6895 1.5141,-1.1986 3.053,-2.3656 4.6158,-3.5001 1.5628,-1.1345 3.149,-2.2364 4.7576,-3.3048 1.6087,-1.0684 3.2395,-2.1032 4.8913,-3.1037 1.6517,-1.0004 3.3242,-1.9664 5.0162,-2.8971 1.6921,-0.9308 3.4033,-1.8262 5.1327,-2.6857 1.7293,-0.8595 3.4764,-1.6828 5.2401,-2.4695 1.7636,-0.7866 3.5435,-1.5365 5.3384,-2.249 1.7949,-0.7125 3.6044,-1.3875 5.4275,-2.0246 1.823,-0.6371 3.6591,-1.2361 5.5071,-1.7967 1.848,-0.5606 3.7075,-1.0826 5.5772,-1.5657 1.8698,-0.4831 3.7494,-0.9272 5.6376,-1.3319 1.8883,-0.4048 3.7848,-0.7702 5.6883,-1.0959 1.9034,-0.3258 3.8135,-0.6118 5.7289,-0.858 1.9154,-0.2461 3.8357,-0.4523 5.7597,-0.6185 1.924,-0.1661 3.8512,-0.2921 5.7805,-0.3779 1.9292,-0.0859 3.86,-0.1315 5.7912,-0.1368 1.9311,-0.005 3.8622,0.0295 5.7918,0.1046 1.9297,0.0751 3.8576,0.1904 5.7825,0.3458 1.9249,0.1555 3.8463,0.351 5.7631,0.5865 1.9167,0.2355 3.8283,0.5109 5.7336,0.8261 1.9052,0.3152 3.8037,0.67 5.6942,1.0643 1.8905,0.3942 3.7725,0.8279 5.6449,1.3006 1.8724,0.4727 3.7348,0.9843 5.5859,1.5346 1.851,0.5504 3.6905,1.1392 5.517,1.7661 1.8265,0.627 3.6398,1.2919 5.4387,1.9944 1.7988,0.7026 3.5828,1.4425 5.3508,2.2193 1.768,0.7769 3.5196,1.5905 5.2537,2.4404 1.7341,0.8498 3.4503,1.7357 5.1475,2.657 1.6972,0.9214 3.375,1.878 5.0323,2.8693 1.6573,0.9913 3.2938,2.017 4.9084,3.0765 1.6146,1.0594 3.2069,2.1524 4.7759,3.2782 0,0 -81.0341,112.9357 -81.0341,112.9357"
           id="path132"
           style="fill:#39beb1;fill-opacity:1;fill-rule:nonzero;stroke:#000000;stroke-width:0.5;stroke-linecap:butt;stroke-linejoin:round;stroke-miterlimit:1;stroke-opacity:1;stroke-dasharray:none" /></g><g
         transform="translate(40,41)"
         id="g134"><path
           d="m 210.606,325.7785 c 0,0 81.0341,-112.9357 81.0341,-112.9357 2.2316,1.6013 4.4153,3.2683 6.5481,4.9989 2.1328,1.7306 4.2139,3.5241 6.2404,5.378 2.0266,1.8539 3.9977,3.7675 5.9109,5.7382 1.9132,1.9708 3.7675,3.9977 5.5605,6.0783 1.7931,2.0806 3.5241,4.2139 5.1908,6.3971 1.6666,2.1832 3.2682,4.4153 4.8026,6.6933 1.5344,2.2781 3.0009,4.6011 4.3976,6.9661 1.3968,2.365 2.7231,4.7708 3.9773,7.2144 1.2542,2.4435 2.4357,4.9237 3.5429,7.4373 1.1073,2.5135 2.1397,5.0594 3.0961,7.6341 0.9564,2.5747 1.8363,5.1773 2.6384,7.8041 0.8022,2.6269 1.5263,5.277 2.1715,7.9468 0.6451,2.6697 1.211,5.3581 1.6968,8.0614 0.4859,2.7033 0.8915,5.4204 1.2164,8.1478 0.3248,2.7273 0.5688,5.4637 0.7315,8.2055 0.1627,2.7418 0.2441,5.4878 0.2441,8.2344 0,0 -139,0 -139,0"
           id="path136"
           style="fill:#e495a5;fill-opacity:1;fill-rule:nonzero;stroke:#000000;stroke-width:0.5;stroke-linecap:butt;stroke-linejoin:round;stroke-miterlimit:1;stroke-opacity:1;stroke-dasharray:none" /></g><g
         transform="translate(40,41)"
         id="g138"><path
           d="m 349.606,325.7785 c 0,76.7676 -62.2324,139 -139,139 -76.7676,0 -139.00002,-62.2324 -139.00002,-139 0,-76.7676 62.23242,-139 139.00002,-139 76.7676,0 139,62.2324 139,139 z"
           id="path140"
           style="fill:none;stroke:#000000;stroke-width:1;stroke-linecap:butt;stroke-linejoin:round;stroke-miterlimit:1;stroke-opacity:1;stroke-dasharray:none" /></g><g
         transform="translate(40,41)"
         id="g142"><text
           transform="matrix(1,0,0,-1,193.106,320.1785)"
           id="text144"><tspan
             x="0 7 14 21 28"
             y="0"
             id="tspan146"
             style="font-size:14px;font-variant:normal;font-weight:normal;writing-mode:lr-tb;fill:#000000;fill-opacity:1;fill-rule:nonzero;stroke:none;font-family:Times;-inkscape-font-specification:Times-Roman">19790</tspan></text>
</g><g
         transform="translate(40,41)"
         id="g148"><path
           d="m 548.1521,317.0539 c -15.6249,3.6194 -32.4505,6.8937 -48.2546,8.7329 -48.5745,5.6528 -102.0484,7.0044 -149.6679,6.5089"
           id="path150"
           style="fill:none;stroke:#ff0000;stroke-width:1;stroke-linecap:butt;stroke-linejoin:round;stroke-miterlimit:1;stroke-opacity:1;stroke-dasharray:none" /></g><g
         transform="translate(40,41)"
         id="g152"><path
           d="m 548.521,316.9684 -0.0703,1.1713 -0.0921,-1.1336 -0.1624,0.0377 0,0 0,0 0.1624,-0.0377 -0.4168,-1.0583 0.5792,1.0206 z"
           id="path154"
           style="fill:#ff0000;fill-opacity:1;fill-rule:nonzero;stroke:#ff0000;stroke-width:1;stroke-linecap:butt;stroke-linejoin:round;stroke-miterlimit:1;stroke-opacity:1;stroke-dasharray:none" /></g><g
         transform="translate(40,41)"
         id="g156"><path
           d="m 349.6696,332.2898 0.3454,-1.1214 -0.1787,1.1232 0.1666,0.002 0,0 0,0 -0.1666,-0.002 0.1546,1.1267 -0.3213,-1.1285 z"
           id="path158"
           style="fill:#ff0000;fill-opacity:1;fill-rule:nonzero;stroke:#ff0000;stroke-width:1;stroke-linecap:butt;stroke-linejoin:round;stroke-miterlimit:1;stroke-opacity:1;stroke-dasharray:none" /></g><g
         transform="translate(40,41)"
         id="g160"><path
           d="m 500.1234,295.6876 c 0,0 28.5,0 28.5,0 0,0.9329 -0.0458,1.8651 -0.1372,2.7935 -0.0914,0.9284 -0.2284,1.8517 -0.4104,2.7666 -0.182,0.9149 -0.4088,1.8203 -0.6796,2.713 -0.2707,0.8927 -0.5852,1.7716 -0.9422,2.6334 -0.357,0.8618 -0.7561,1.7056 -1.1958,2.5283 -0.4397,0.8227 -0.9196,1.6233 -1.4379,2.399 -0.5182,0.7756 -1.0743,1.5253 -1.6661,2.2464 -0.5917,0.7211 -1.2186,1.4127 -1.8782,2.0724 -0.6596,0.6596 -1.3512,1.2864 -2.0723,1.8782 -0.7211,0.5918 -1.4709,1.1478 -2.2465,1.6661 -0.7756,0.5183 -1.5762,0.9981 -2.3989,1.4379 -0.8227,0.4397 -1.6665,0.8388 -2.5284,1.1958 -0.8618,0.357 -1.7407,0.6714 -2.6333,0.9422 -0.8927,0.2708 -1.7982,0.4976 -2.7131,0.6796 -0.9149,0.182 -1.8382,0.3189 -2.7666,0.4104 -0.9283,0.0914 -1.8606,0.1372 -2.7935,0.1372 -0.9328,0 -1.8651,-0.0458 -2.7934,-0.1372 -0.9284,-0.0915 -1.8517,-0.2284 -2.7666,-0.4104 -0.9149,-0.182 -1.8204,-0.4088 -2.7131,-0.6796 -0.8926,-0.2708 -1.7715,-0.5852 -2.6333,-0.9422 -0.8619,-0.357 -1.7057,-0.7561 -2.5284,-1.1958 -0.8227,-0.4398 -1.6233,-0.9196 -2.3989,-1.4379 -0.7756,-0.5183 -1.5254,-1.0743 -2.2465,-1.6661 -0.7211,-0.5918 -1.4127,-1.2186 -2.0723,-1.8782 -0.6596,-0.6597 -1.2865,-1.3513 -1.8783,-2.0724 -0.5917,-0.7211 -1.1478,-1.4708 -1.666,-2.2464 -0.5183,-0.7757 -0.9982,-1.5763 -1.4379,-2.399 -0.4397,-0.8227 -0.8388,-1.6665 -1.1958,-2.5283 -0.357,-0.8618 -0.6715,-1.7407 -0.9423,-2.6334 -0.2707,-0.8927 -0.4975,-1.7981 -0.6795,-2.713 -0.182,-0.9149 -0.319,-1.8382 -0.4104,-2.7666 -0.0915,-0.9284 -0.1373,-1.8606 -0.1373,-2.7935 0,-0.9328 0.0458,-1.8651 0.1373,-2.7935 0.0914,-0.9283 0.2284,-1.8516 0.4104,-2.7666 0.182,-0.9149 0.4088,-1.8203 0.6795,-2.713 0.2708,-0.8927 0.5853,-1.7715 0.9423,-2.6334 0.357,-0.8618 0.7561,-1.7056 1.1958,-2.5283 0.4397,-0.8227 0.9196,-1.6233 1.4379,-2.3989 0.5182,-0.7757 1.0743,-1.5254 1.666,-2.2465 0.5918,-0.7211 1.2187,-1.4127 1.8783,-2.0723 0.6596,-0.6597 1.3512,-1.2865 2.0723,-1.8783 0.7211,-0.5918 1.4709,-1.1478 2.2465,-1.6661 0.7756,-0.5182 1.5762,-0.9981 2.3989,-1.4378 0.8227,-0.4398 1.6665,-0.8389 2.5284,-1.1959 0.8618,-0.3569 1.7407,-0.6714 2.6333,-0.9422 0.8927,-0.2708 1.7982,-0.4976 2.7131,-0.6796 0.9149,-0.182 1.8382,-0.3189 2.7666,-0.4104 0.9283,-0.0914 1.8606,-0.1372 2.7934,-0.1372 0.9329,0 1.8652,0.0458 2.7935,0.1372 0.9284,0.0915 1.8517,0.2284 2.7666,0.4104 0.9149,0.182 1.8204,0.4088 2.7131,0.6796 0.8926,0.2708 1.7715,0.5853 2.6333,0.9422 0.8619,0.357 1.7057,0.7561 2.5284,1.1959 0.8227,0.4397 1.6233,0.9196 2.3989,1.4378 0.7756,0.5183 1.5254,1.0743 2.2465,1.6661 0.7211,0.5918 1.4127,1.2186 2.0723,1.8783 0.6596,0.6596 1.2865,1.3512 1.8782,2.0723 0.5918,0.7211 1.1479,1.4708 1.6661,2.2465 0.5183,0.7756 0.9982,1.5762 1.4379,2.3989 0.4397,0.8227 0.8388,1.6665 1.1958,2.5283 0.357,0.8619 0.6715,1.7407 0.9422,2.6334 0.2708,0.8927 0.4976,1.7981 0.6796,2.713 0.182,0.915 0.319,1.8383 0.4104,2.7666 0.0914,0.9284 0.1372,1.8607 0.1372,2.7935 0,0 -28.5,0 -28.5,0"
           id="path162"
           style="fill:#e495a5;fill-opacity:1;fill-rule:nonzero;stroke:#000000;stroke-width:0.5;stroke-linecap:butt;stroke-linejoin:round;stroke-miterlimit:1;stroke-opacity:1;stroke-dasharray:none" /></g><g
         transform="translate(40,41)"
         id="g164"><path
           d="m 528.6234,295.6876 c 0,15.7401 -12.7598,28.5 -28.5,28.5 -15.7401,0 -28.5,-12.7599 -28.5,-28.5 0,-15.7401 12.7599,-28.5 28.5,-28.5 15.7402,0 28.5,12.7599 28.5,28.5 z"
           id="path166"
           style="fill:none;stroke:#000000;stroke-width:1;stroke-linecap:butt;stroke-linejoin:round;stroke-miterlimit:1;stroke-opacity:1;stroke-dasharray:none" /></g><g
         transform="translate(40,41)"
         id="g168"><text
           transform="matrix(1,0,0,-1,482.6234,290.0876)"
           id="text170"><tspan
             x="0 7 14 21 28"
             y="0"
             id="tspan172"
             style="font-size:14px;font-variant:normal;font-weight:normal;writing-mode:lr-tb;fill:#000000;fill-opacity:1;fill-rule:nonzero;stroke:none;font-family:Times;-inkscape-font-specification:Times-Roman">19766</tspan></text>
</g><g
         transform="translate(40,41)"
         id="g174"><path
           d="m 528.7579,296.7464 c 0.0837,0.003 0.1674,0.006 0.2512,0.009"
           id="path176"
           style="fill:none;stroke:#000000;stroke-width:5.15318298;stroke-linecap:butt;stroke-linejoin:round;stroke-miterlimit:1;stroke-opacity:1;stroke-dasharray:none" /></g><g
         transform="translate(40,41)"
         id="g178"><path
           d="m 545.833,297.3777 -17.4512,7.0897 8.7917,-5.3319 -8.5828,-0.3174 0.0767,-2.0752 0.0768,-2.0751 8.5827,0.3174 -8.3738,-5.9668 16.8799,8.3593 z"
           id="path180"
           style="fill:#000000;fill-opacity:1;fill-rule:nonzero;stroke:#000000;stroke-width:1;stroke-linecap:butt;stroke-linejoin:round;stroke-miterlimit:1;stroke-opacity:1;stroke-dasharray:none" /></g><g
         transform="translate(40,41)"
         id="g182"><path
           d="m 609.0198,402.9383 c 0,0 27,0 27,0 0,0.8837 -0.0434,1.767 -0.13,2.6465 -0.0866,0.8795 -0.2164,1.7542 -0.3888,2.6209 -0.1724,0.8668 -0.3873,1.7246 -0.6438,2.5703 -0.2566,0.8457 -0.5545,1.6783 -0.8927,2.4947 -0.3382,0.8165 -0.7162,1.6159 -1.1328,2.3953 -0.4166,0.7794 -0.8712,1.5379 -1.3622,2.2727 -0.491,0.7348 -1.0178,1.4451 -1.5784,2.1282 -0.5607,0.6832 -1.1545,1.3384 -1.7794,1.9633 -0.6249,0.6249 -1.2801,1.2187 -1.9633,1.7794 -0.6831,0.5606 -1.3934,1.0874 -2.1282,1.5784 -0.7348,0.491 -1.4933,0.9456 -2.2727,1.3622 -0.7794,0.4166 -1.5788,0.7946 -2.3952,1.1328 -0.8165,0.3382 -1.6491,0.6361 -2.4948,0.8927 -0.8457,0.2565 -1.7035,0.4714 -2.5703,0.6438 -0.8667,0.1724 -1.7414,0.3022 -2.6209,0.3888 -0.8795,0.0866 -1.7628,0.13 -2.6465,0.13 -0.8838,0 -1.767,-0.0434 -2.6465,-0.13 -0.8795,-0.0866 -1.7542,-0.2164 -2.6209,-0.3888 -0.8668,-0.1724 -1.7246,-0.3873 -2.5703,-0.6438 -0.8457,-0.2566 -1.6783,-0.5545 -2.4948,-0.8927 -0.8164,-0.3382 -1.6158,-0.7162 -2.3952,-1.1328 -0.7794,-0.4166 -1.5379,-0.8712 -2.2727,-1.3622 -0.7348,-0.491 -1.4451,-1.0178 -2.1282,-1.5784 -0.6832,-0.5607 -1.3384,-1.1545 -1.9633,-1.7794 -0.6249,-0.6249 -1.2187,-1.2801 -1.7794,-1.9633 -0.5606,-0.6831 -1.0874,-1.3934 -1.5784,-2.1282 -0.491,-0.7348 -0.9456,-1.4933 -1.3622,-2.2727 -0.4166,-0.7794 -0.7947,-1.5788 -1.1328,-2.3953 -0.3382,-0.8164 -0.6362,-1.649 -0.8927,-2.4947 -0.2565,-0.8457 -0.4714,-1.7035 -0.6438,-2.5703 -0.1724,-0.8667 -0.3022,-1.7414 -0.3888,-2.6209 -0.0866,-0.8795 -0.13,-1.7628 -0.13,-2.6465 0,-0.8838 0.0434,-1.767 0.13,-2.6465 0.0866,-0.8795 0.2164,-1.7542 0.3888,-2.6209 0.1724,-0.8668 0.3873,-1.7246 0.6438,-2.5703 0.2565,-0.8457 0.5545,-1.6783 0.8927,-2.4948 0.3381,-0.8164 0.7162,-1.6158 1.1328,-2.3952 0.4166,-0.7794 0.8712,-1.5379 1.3622,-2.2727 0.491,-0.7348 1.0178,-1.4451 1.5784,-2.1282 0.5607,-0.6832 1.1545,-1.3384 1.7794,-1.9633 0.6249,-0.6249 1.2801,-1.2187 1.9633,-1.7794 0.6831,-0.5606 1.3934,-1.0874 2.1282,-1.5784 0.7348,-0.491 1.4933,-0.9456 2.2727,-1.3622 0.7794,-0.4166 1.5788,-0.7947 2.3952,-1.1329 0.8165,-0.3381 1.6491,-0.6361 2.4948,-0.8926 0.8457,-0.2565 1.7035,-0.4714 2.5703,-0.6438 0.8667,-0.1724 1.7414,-0.3022 2.6209,-0.3888 0.8795,-0.0866 1.7627,-0.13 2.6465,-0.13 0.8837,0 1.767,0.0434 2.6465,0.13 0.8795,0.0866 1.7542,0.2164 2.6209,0.3888 0.8668,0.1724 1.7246,0.3873 2.5703,0.6438 0.8457,0.2565 1.6783,0.5545 2.4948,0.8926 0.8164,0.3382 1.6158,0.7163 2.3952,1.1329 0.7794,0.4166 1.5379,0.8712 2.2727,1.3622 0.7348,0.491 1.4451,1.0178 2.1282,1.5784 0.6832,0.5607 1.3384,1.1545 1.9633,1.7794 0.6249,0.6249 1.2187,1.2801 1.7794,1.9633 0.5606,0.6831 1.0874,1.3934 1.5784,2.1282 0.491,0.7348 0.9456,1.4933 1.3622,2.2727 0.4166,0.7794 0.7946,1.5788 1.1328,2.3952 0.3382,0.8165 0.6361,1.6491 0.8927,2.4948 0.2565,0.8457 0.4714,1.7035 0.6438,2.5703 0.1724,0.8667 0.3022,1.7414 0.3888,2.6209 0.0866,0.8795 0.13,1.7627 0.13,2.6465 0,0 -27,0 -27,0"
           id="path184"
           style="fill:#e495a5;fill-opacity:1;fill-rule:nonzero;stroke:#000000;stroke-width:0.5;stroke-linecap:butt;stroke-linejoin:round;stroke-miterlimit:1;stroke-opacity:1;stroke-dasharray:none" /></g><g
         transform="translate(40,41)"
         id="g186"><path
           d="m 636.0198,402.9383 c 0,14.9117 -12.0883,27 -27,27 -14.9117,0 -27,-12.0883 -27,-27 0,-14.9117 12.0883,-27 27,-27 14.9117,0 27,12.0883 27,27 z"
           id="path188"
           style="fill:none;stroke:#000000;stroke-width:1;stroke-linecap:butt;stroke-linejoin:round;stroke-miterlimit:1;stroke-opacity:1;stroke-dasharray:none" /></g><g
         transform="translate(40,41)"
         id="g190"><text
           transform="matrix(1,0,0,-1,591.5198,397.3383)"
           id="text192"><tspan
             x="0 7 14 21 28"
             y="0"
             id="tspan194"
             style="font-size:14px;font-variant:normal;font-weight:normal;writing-mode:lr-tb;fill:#000000;fill-opacity:1;fill-rule:nonzero;stroke:none;font-family:Times;-inkscape-font-specification:Times-Roman">19739</tspan></text>
</g><g
         transform="translate(40,41)"
         id="g196"><path
           d="m 609.3304,375.8288 c 0.0315,-2.7465 0.0643,-5.6136 0.0981,-8.5574"
           id="path198"
           style="fill:none;stroke:#000000;stroke-width:1;stroke-linecap:butt;stroke-linejoin:round;stroke-miterlimit:1;stroke-opacity:1;stroke-dasharray:none" /></g><g
         transform="translate(40,41)"
         id="g200"><path
           d="m 609.4684,363.7831 1.4617,3.3503 -1.4808,-1.6838 -0.0191,1.6666 0,0 0,0 0.0191,-1.6666 -1.519,1.6493 1.5381,-3.3158 z"
           id="path202"
           style="fill:#000000;fill-opacity:1;fill-rule:nonzero;stroke:#000000;stroke-width:1;stroke-linecap:butt;stroke-linejoin:round;stroke-miterlimit:1;stroke-opacity:1;stroke-dasharray:none" /></g><g
         transform="translate(40,41)"
         id="g204"><path
           d="m 979.3507,55.01712 c 0,0 47.5003,0 47.5003,0 0,1.54609 -0.076,3.09126 -0.227,4.62999 -0.15,1.53873 -0.376,3.06919 -0.676,4.5859 -0.3,1.51672 -0.674,3.01788 -1.12,4.49813 -0.447,1.48026 -0.965,2.93783 -1.553,4.36752 -0.589,1.4297 -1.247,2.8298 -1.972,4.19532 -0.725,1.36552 -1.517,2.69482 -2.371,3.98316 -0.855,1.28833 -1.772,2.53417 -2.748,3.73306 -0.977,1.19889 -2.011,2.34939 -3.099,3.44741 -1.089,1.09802 -2.23,2.14224 -3.421,3.12894 -1.19,0.98669 -2.428,1.91468 -3.708,2.78065 -1.281,0.86598 -2.604,1.6689 -3.963,2.4059 -1.359,0.737 -2.7532,1.40721 -4.1776,2.00822 -1.4245,0.60101 -2.8775,1.13212 -4.3538,1.59138 -1.4763,0.4593 -2.9742,0.8463 -4.4882,1.1595 -1.514,0.3132 -3.0425,0.5523 -4.5798,0.7165 -1.5374,0.1641 -3.0818,0.2531 -4.6279,0.2666 -1.546,0.0135 -3.0918,-0.0485 -4.6317,-0.1857 -1.54,-0.1373 -3.0724,-0.3496 -4.5917,-0.6363 -1.5193,-0.2867 -3.0236,-0.6474 -4.5077,-1.0809 -1.4841,-0.4334 -2.9462,-0.93904 -4.381,-1.51507 -1.4347,-0.57602 -2.8405,-1.22176 -4.2123,-1.93489 -1.3718,-0.71314 -2.708,-1.49283 -4.0038,-2.33628 -1.2957,-0.84346 -2.5495,-1.74967 -3.7569,-2.71541 -1.2074,-0.96575 -2.3669,-1.98986 -3.4744,-3.06869 -1.1075,-1.07883 -2.1616,-2.21108 -3.1587,-3.39273 -0.997,-1.18164 -1.9358,-2.41126 -2.8129,-3.68446 -0.8772,-1.2732 -1.6916,-2.58847 -2.4405,-3.94111 -0.7488,-1.35264 -1.4312,-2.74103 -2.0446,-4.16022 -0.6135,-1.41919 -1.1572,-2.86748 -1.6294,-4.3397 -0.4722,-1.47223 -0.8722,-2.96663 -1.1987,-4.47787 -0.3264,-1.51124 -0.5788,-3.03752 -0.7564,-4.57338 -0.1776,-1.53586 -0.2801,-3.07948 -0.3071,-4.62533 -0.027,-1.54586 0.0215,-3.09211 0.1453,-4.63324 0.1237,-1.54113 0.3227,-3.0753 0.5961,-4.59703 0.2734,-1.52172 0.621,-3.02919 1.0414,-4.51702 0.4205,-1.48782 0.9133,-2.95424 1.4768,-4.394 0.5634,-1.43976 1.1969,-2.85115 1.898,-4.22913 0.7011,-1.37798 1.4691,-2.72091 2.3012,-4.02399 0.8321,-1.30308 1.7273,-2.56475 2.6825,-3.78052 0.9551,-1.21576 1.9691,-2.38417 3.0382,-3.50104 1.0691,-1.11688 2.1921,-2.18089 3.365,-3.18823 1.1729,-1.00735 2.3942,-1.95683 3.6597,-2.84505 1.2655,-0.88823 2.5736,-1.71414 3.9196,-2.47478 1.3461,-0.76064 2.7285,-1.45511 4.1422,-2.08093 1.4138,-0.62581 2.8573,-1.18223 4.3253,-1.667263 1.4681,-0.485031 2.9589,-0.898098 4.4673,-1.237724 1.5083,-0.339626 3.0323,-0.605407 4.5666,-0.796393 1.5342,-0.190987 3.0769,-0.306951 4.6224,-0.347479 1.5456,-0.040529 3.0922,-0.00557 4.6344,0.104744 1.5421,0.110317 3.078,0.295861 4.602,0.555971 1.5241,0.260111 3.0345,0.594476 4.526,1.001903 1.4914,0.407427 2.9621,0.887431 4.4067,1.438291 1.4446,0.55086 2.8615,1.17193 4.2454,1.86098 1.384,0.68906 2.734,1.44527 4.044,2.26596 1.31,0.82068 2.58,1.70484 3.804,2.64933 1.224,0.9445 2.401,1.94819 3.527,3.0075 1.127,1.05931 2.2,2.17297 3.218,3.33701 1.017,1.16403 1.978,2.37706 2.877,3.63474 0.899,1.25768 1.736,2.55851 2.509,3.89785 0.772,1.33934 1.479,2.7156 2.117,4.12385 0.638,1.40825 1.207,2.84682 1.705,4.31057 0.498,1.46375 0.924,2.95093 1.277,4.45623 0.352,1.50531 0.631,3.02694 0.836,4.55946 0.204,1.53253 0.334,3.07412 0.388,4.61926 0,0 -47.4713,1.66003 -47.4713,1.66003"
           id="path206"
           style="fill:#abb065;fill-opacity:1;fill-rule:nonzero;stroke:#000000;stroke-width:0.5;stroke-linecap:butt;stroke-linejoin:round;stroke-miterlimit:1;stroke-opacity:1;stroke-dasharray:none" /></g><g
         transform="translate(40,41)"
         id="g208"><path
           d="m 979.3507,55.01712 c 0,0 47.4713,-1.66003 47.4713,-1.66003 0.01,0.27656 0.017,0.5532 0.021,0.82989 0,0.27669 0.01,0.55341 0.01,0.83014 0,0 -47.5003,0 -47.5003,0"
           id="path210"
           style="fill:#e495a5;fill-opacity:1;fill-rule:nonzero;stroke:#000000;stroke-width:0.5;stroke-linecap:butt;stroke-linejoin:round;stroke-miterlimit:1;stroke-opacity:1;stroke-dasharray:none" /></g><g
         transform="translate(40,41)"
         id="g212"><path
           d="m 1026.851,55.01712 c 0,26.23352 -21.267,47.49998 -47.5003,47.49998 -26.2336,0 -47.5,-21.26646 -47.5,-47.49998 0,-26.23353 21.2664,-47.500002 47.5,-47.500002 26.2333,0 47.5003,21.266472 47.5003,47.500002 z"
           id="path214"
           style="fill:none;stroke:#000000;stroke-width:1;stroke-linecap:butt;stroke-linejoin:round;stroke-miterlimit:1;stroke-opacity:1;stroke-dasharray:none" /></g><g
         transform="translate(40,41)"
         id="g216"><text
           transform="matrix(1,0,0,-1,961.8507,49.41712)"
           id="text218"><tspan
             x="0 7 14 21 28"
             y="0"
             id="tspan220"
             style="font-size:14px;font-variant:normal;font-weight:normal;writing-mode:lr-tb;fill:#000000;fill-opacity:1;fill-rule:nonzero;stroke:none;font-family:Times;-inkscape-font-specification:Times-Roman">19754</tspan></text>
</g><g
         transform="translate(40,41)"
         id="g222"><path
           d="m 951.4802,123.9194 c -0.0281,0.0696 -0.0563,0.1391 -0.0844,0.2087"
           id="path224"
           style="fill:none;stroke:#000000;stroke-width:10;stroke-linecap:butt;stroke-linejoin:round;stroke-miterlimit:1;stroke-opacity:1;stroke-dasharray:none" /></g><g
         transform="translate(40,41)"
         id="g226"><path
           d="m 961.475,99.2099 1.4062,36.5258 -3.4842,-19.3878 -6.2497,15.4505 -4.1716,-1.6874 -4.1717,-1.6874 6.2497,-15.4505 -15.9835,11.5132 26.4048,-25.2764 z"
           id="path228"
           style="fill:#000000;fill-opacity:1;fill-rule:nonzero;stroke:#000000;stroke-width:1;stroke-linecap:butt;stroke-linejoin:round;stroke-miterlimit:1;stroke-opacity:1;stroke-dasharray:none" /></g><g
         transform="translate(40,41)"
         id="g230"><path
           d="m 951.3113,124.3369 -1.3974,-36.53104 3.4799,19.39124 6.2543,-15.45106 4.1718,1.68865 4.1718,1.68865 -6.2543,15.45106 15.9884,-11.51088 -26.4145,25.27338 z"
           id="path232"
           style="fill:#000000;fill-opacity:1;fill-rule:nonzero;stroke:#000000;stroke-width:1;stroke-linecap:butt;stroke-linejoin:round;stroke-miterlimit:1;stroke-opacity:1;stroke-dasharray:none" /></g><g
         transform="translate(40,41)"
         id="g234"><path
           d="m 831.3147,68.2317 c 0,0 29.5,0 29.5,0 0,0.88187 -0.0395,1.76329 -0.1185,2.64161 -0.0789,0.87832 -0.1972,1.75267 -0.3545,2.62039 -0.1573,0.86772 -0.3535,1.72796 -0.5878,2.57811 -0.2344,0.85015 -0.5068,1.68937 -0.8164,2.51512 -0.3095,0.82575 -0.6559,1.6372 -1.0382,2.43191 -0.3822,0.79472 -0.7999,1.57189 -1.2518,2.32918 -0.4519,0.75729 -0.9375,1.49394 -1.4554,2.20772 -0.5179,0.71378 -1.0675,1.40399 -1.6472,2.06853 -0.5798,0.66454 -1.189,1.30275 -1.8259,1.91272 -0.6369,0.60996 -1.3008,1.19105 -1.9897,1.74153 -0.689,0.55048 -1.4023,1.06979 -2.1378,1.55636 -0.7355,0.48658 -1.4924,0.93993 -2.2685,1.35869 -0.7761,0.41876 -1.5706,0.8025 -2.3811,1.15009 -0.8104,0.34758 -1.6361,0.65864 -2.4744,0.93225 -0.8384,0.27361 -1.6886,0.50949 -2.5481,0.70693 -0.8594,0.19744 -1.7273,0.35624 -2.601,0.47592 -0.8738,0.11968 -1.7524,0.20013 -2.6333,0.24109 -0.8809,0.04097 -1.7632,0.04241 -2.6443,0.0043 -0.881,-0.03808 -1.7599,-0.11565 -2.634,-0.23247 -0.8741,-0.11683 -1.7425,-0.27279 -2.6026,-0.46741 -0.8602,-0.19463 -1.7111,-0.42772 -2.5504,-0.69859 -0.8392,-0.27086 -1.6659,-0.57922 -2.4775,-0.92415 -0.8116,-0.34493 -1.6073,-0.72607 -2.3848,-1.14229 -0.7774,-0.41622 -1.5359,-0.86709 -2.2729,-1.35125 -0.7371,-0.48417 -1.4521,-1.00114 -2.1428,-1.54936 -0.6908,-0.54822 -1.3566,-1.12714 -1.9955,-1.73502 -0.6389,-0.60787 -1.2502,-1.24409 -1.8321,-1.90673 -0.5819,-0.66264 -1.1338,-1.35104 -1.654,-2.06313 -0.5202,-0.71208 -1.0082,-1.44714 -1.4626,-2.20294 -0.4543,-0.75581 -0.8746,-1.53161 -1.2594,-2.32507 -0.3849,-0.79346 -0.734,-1.60377 -1.0462,-2.42851 -0.3123,-0.82473 -0.5874,-1.66305 -0.8246,-2.51243 -0.2371,-0.84938 -0.436,-1.70897 -0.5962,-2.57617 -0.1601,-0.86721 -0.2813,-1.74115 -0.3631,-2.61921 -0.0819,-0.87806 -0.1243,-1.75935 -0.1272,-2.64122 -0.003,-0.88186 0.0338,-1.7634 0.1099,-2.64198 0.0761,-0.87858 0.1915,-1.7533 0.346,-2.62154 0.1544,-0.86823 0.3478,-1.7291 0.5793,-2.58002 0.2316,-0.85091 0.5013,-1.69101 0.8081,-2.51777 0.3069,-0.82676 0.6506,-1.63934 1.0303,-2.4353 0.3796,-0.79596 0.7948,-1.5745 1.2442,-2.33326 0.4494,-0.75877 0.9326,-1.497 1.4481,-2.21247 0.5156,-0.71548 1.0629,-1.40748 1.6405,-2.07391 0.5775,-0.66644 1.1847,-1.30664 1.8196,-1.91868 0.6348,-0.61204 1.2969,-1.19531 1.984,-1.74804 0.6872,-0.55273 1.3988,-1.07437 2.1326,-1.56335 0.7339,-0.48898 1.4894,-0.9448 2.2641,-1.3661 0.7747,-0.4213 1.5679,-0.80764 2.3773,-1.15787 0.8093,-0.35024 1.634,-0.664 2.4714,-0.94035 0.8375,-0.27635 1.6869,-0.51501 2.5457,-0.71526 0.8588,-0.20025 1.7262,-0.36189 2.5995,-0.48443 0.8733,-0.12255 1.7517,-0.20587 2.6325,-0.24971 0.8807,-0.04385 1.763,-0.04818 2.6442,-0.01298 0.8812,0.0352 1.7603,0.10989 2.6348,0.22385 0.8745,0.11396 1.7434,0.26708 2.6041,0.45889 0.8608,0.19181 1.7125,0.42212 2.5526,0.69024 0.8401,0.26811 1.6678,0.57377 2.4806,0.91604 0.8127,0.34226 1.6097,0.7208 2.3885,1.13448 0.7788,0.41367 1.5387,0.86205 2.2773,1.3438 0.7387,0.48175 1.4554,0.99638 2.1479,1.54234 0.6926,0.54596 1.3603,1.1227 2.0012,1.72848 0.6408,0.60578 1.2542,1.23999 1.8383,1.90072 0.584,0.66074 1.1382,1.34733 1.6607,2.05771 0.5225,0.71038 1.013,1.44383 1.4698,2.19815 0,0 -25.2333,15.28179 -25.2333,15.28179"
           id="path236"
           style="fill:#abb065;fill-opacity:1;fill-rule:nonzero;stroke:#000000;stroke-width:0.5;stroke-linecap:butt;stroke-linejoin:round;stroke-miterlimit:1;stroke-opacity:1;stroke-dasharray:none" /></g><g
         transform="translate(40,41)"
         id="g238"><path
           d="m 831.3147,68.2317 c 0,0 25.2333,-15.28179 25.2333,-15.28179 0.6937,1.14549 1.3087,2.33689 1.8405,3.56593 0.5319,1.22904 0.9794,2.49287 1.3395,3.78273 0.3602,1.28985 0.6321,2.60273 0.8138,3.92952 0.1818,1.32679 0.2729,2.66442 0.2729,4.00361 0,0 -29.5,0 -29.5,0"
           id="path240"
           style="fill:#e495a5;fill-opacity:1;fill-rule:nonzero;stroke:#000000;stroke-width:0.5;stroke-linecap:butt;stroke-linejoin:round;stroke-miterlimit:1;stroke-opacity:1;stroke-dasharray:none" /></g><g
         transform="translate(40,41)"
         id="g242"><path
           d="m 860.8147,68.2317 c 0,16.2924 -13.2076,29.5 -29.5,29.5 -16.2924,0 -29.5,-13.2076 -29.5,-29.5 0,-16.2924 13.2076,-29.5 29.5,-29.5 16.2924,0 29.5,13.2076 29.5,29.5 z"
           id="path244"
           style="fill:none;stroke:#000000;stroke-width:1;stroke-linecap:butt;stroke-linejoin:round;stroke-miterlimit:1;stroke-opacity:1;stroke-dasharray:none" /></g><g
         transform="translate(40,41)"
         id="g246"><text
           transform="matrix(1,0,0,-1,813.8147,62.6317)"
           id="text248"><tspan
             x="0 7 14 21 28"
             y="0"
             id="tspan250"
             style="font-size:14px;font-variant:normal;font-weight:normal;writing-mode:lr-tb;fill:#000000;fill-opacity:1;fill-rule:nonzero;stroke:none;font-family:Times;-inkscape-font-specification:Times-Roman">19756</tspan></text>
</g><g
         transform="translate(40,41)"
         id="g252"><path
           d="m 860.9162,65.58929 c 19.3021,-1.72302 44.9989,-4.01687 67.5229,-6.0275"
           id="path254"
           style="fill:none;stroke:#000000;stroke-width:1;stroke-linecap:butt;stroke-linejoin:round;stroke-miterlimit:1;stroke-opacity:1;stroke-dasharray:none" /></g><g
         transform="translate(40,41)"
         id="g256"><path
           d="m 932.0254,59.24166 -3.1868,1.79052 1.5267,-1.64229 -1.6601,0.14823 0,0 0,0 1.6601,-0.14823 -1.7935,-1.34583 3.4536,1.1976 z"
           id="path258"
           style="fill:#000000;fill-opacity:1;fill-rule:nonzero;stroke:#000000;stroke-width:1;stroke-linecap:butt;stroke-linejoin:round;stroke-miterlimit:1;stroke-opacity:1;stroke-dasharray:none" /></g><g
         transform="translate(40,41)"
         id="g260"><path
           d="m 842.4794,115.7882 c 0.0127,0.0541 0.0255,0.1082 0.0382,0.1624"
           id="path262"
           style="fill:none;stroke:#000000;stroke-width:6.20830679;stroke-linecap:butt;stroke-linejoin:round;stroke-miterlimit:1;stroke-opacity:1;stroke-dasharray:none" /></g><g
         transform="translate(40,41)"
         id="g264"><path
           d="m 838.0582,96.95587 13.7959,18.01823 -8.8957,-8.5401 2.3649,10.0733 -2.5352,0.5952 -2.5352,0.5952 -2.365,-10.0733 -4.1658,11.6065 4.3361,-22.27503 z"
           id="path266"
           style="fill:#000000;fill-opacity:1;fill-rule:nonzero;stroke:#000000;stroke-width:1;stroke-linecap:butt;stroke-linejoin:round;stroke-miterlimit:1;stroke-opacity:1;stroke-dasharray:none" /></g><g
         transform="translate(40,41)"
         id="g268"><path
           d="m 842.5557,116.1132 -13.8054,-18.01427 8.9005,8.53717 -2.3696,-10.07347 2.5352,-0.59639 2.5353,-0.59639 2.3696,10.07345 4.1612,-11.60975 -4.3268,22.27965 z"
           id="path270"
           style="fill:#000000;fill-opacity:1;fill-rule:nonzero;stroke:#000000;stroke-width:1;stroke-linecap:butt;stroke-linejoin:round;stroke-miterlimit:1;stroke-opacity:1;stroke-dasharray:none" /></g><g
         transform="translate(40,41)"
         id="g272"><path
           d="m 1127.647,42.78062 c 0,0 32.5,0 32.5,0 0,1.06377 -0.052,2.12691 -0.157,3.18556 -0.104,1.05865 -0.26,2.11154 -0.468,3.15487 -0.207,1.04334 -0.466,2.07585 -0.775,3.09382 -0.308,1.01797 -0.667,2.02016 -1.074,3.00296 -0.407,0.9828 -0.862,1.94502 -1.364,2.88318 -0.501,0.93817 -1.048,1.85115 -1.639,2.73564 -0.591,0.8845 -1.226,1.73944 -1.9,2.56175 -0.675,0.82231 -1.39,1.61099 -2.142,2.36319 -0.752,0.7522 -1.541,1.46702 -2.363,2.14187 -0.823,0.67485 -1.678,1.30892 -2.562,1.89992 -0.885,0.591 -1.798,1.13822 -2.736,1.63968 -0.938,0.50146 -1.9,0.95656 -2.883,1.36364 -0.983,0.40709 -1.985,0.76568 -3.003,1.07448 -1.018,0.3088 -2.05,0.56743 -3.094,0.77496 -1.043,0.20753 -2.096,0.36371 -3.155,0.46798 -1.058,0.10427 -2.121,0.1565 -3.185,0.1565 -1.064,0 -2.127,-0.05223 -3.186,-0.1565 -1.058,-0.10427 -2.111,-0.26045 -3.155,-0.46798 -1.043,-0.20753 -2.076,-0.46616 -3.093,-0.77496 -1.018,-0.3088 -2.021,-0.66739 -3.003,-1.07448 -0.983,-0.40708 -1.945,-0.86218 -2.884,-1.36364 -0.938,-0.50146 -1.851,-1.04868 -2.735,-1.63968 -0.885,-0.591 -1.74,-1.22507 -2.562,-1.89992 -0.822,-0.67485 -1.611,-1.38967 -2.363,-2.14187 -0.752,-0.7522 -1.467,-1.54088 -2.142,-2.36319 -0.675,-0.82231 -1.309,-1.67725 -1.9,-2.56175 -0.591,-0.88449 -1.138,-1.79747 -1.64,-2.73564 -0.501,-0.93816 -0.956,-1.90038 -1.363,-2.88318 -0.407,-0.9828 -0.766,-1.98499 -1.075,-3.00296 -0.309,-1.01797 -0.567,-2.05048 -0.775,-3.09382 -0.207,-1.04333 -0.363,-2.09622 -0.468,-3.15487 -0.104,-1.05865 -0.156,-2.12179 -0.156,-3.18556 0,-1.06377 0.052,-2.12691 0.156,-3.18556 0.105,-1.05865 0.261,-2.11154 0.468,-3.15488 0.208,-1.04333 0.466,-2.07585 0.775,-3.09381 0.309,-1.01797 0.668,-2.02016 1.075,-3.00296 0.407,-0.9828 0.862,-1.94502 1.363,-2.88318 0.502,-0.93817 1.049,-1.85115 1.64,-2.73564 0.591,-0.8845 1.225,-1.73944 1.9,-2.56175 0.675,-0.82231 1.39,-1.61099 2.142,-2.36319 0.752,-0.7522 1.541,-1.46702 2.363,-2.14187 0.822,-0.67485 1.677,-1.30892 2.562,-1.89992 0.884,-0.591 1.797,-1.13822 2.735,-1.63968 0.939,-0.50146 1.901,-0.95656 2.884,-1.36365 0.982,-0.40708 1.985,-0.76567 3.003,-1.07447 1.017,-0.3088 2.05,-0.56743 3.093,-0.77496 1.044,-0.20753 2.097,-0.36372 3.155,-0.46798 1.059,-0.10427 2.122,-0.1565 3.186,-0.1565 1.064,0 2.127,0.05223 3.185,0.1565 1.059,0.10426 2.112,0.26045 3.155,0.46798 1.044,0.20753 2.076,0.46616 3.094,0.77496 1.018,0.3088 2.02,0.66739 3.003,1.07447 0.983,0.40709 1.945,0.86219 2.883,1.36365 0.938,0.50146 1.851,1.04868 2.736,1.63968 0.884,0.591 1.739,1.22507 2.562,1.89992 0.822,0.67485 1.611,1.38967 2.363,2.14187 0.752,0.7522 1.467,1.54088 2.142,2.36319 0.674,0.82231 1.309,1.67725 1.9,2.56175 0.591,0.88449 1.138,1.79747 1.639,2.73564 0.502,0.93816 0.957,1.90038 1.364,2.88318 0.407,0.9828 0.766,1.98499 1.074,3.00296 0.309,1.01796 0.568,2.05048 0.775,3.09381 0.208,1.04334 0.364,2.09623 0.468,3.15488 0.105,1.05865 0.157,2.12179 0.157,3.18556 0,0 -32.5,0 -32.5,0"
           id="path274"
           style="fill:#abb065;fill-opacity:1;fill-rule:nonzero;stroke:#000000;stroke-width:0.5;stroke-linecap:butt;stroke-linejoin:round;stroke-miterlimit:1;stroke-opacity:1;stroke-dasharray:none" /></g><g
         transform="translate(40,41)"
         id="g276"><path
           d="m 1160.147,42.78062 c 0,17.94925 -14.551,32.5 -32.5,32.5 -17.949,0 -32.5,-14.55075 -32.5,-32.5 0,-17.94926 14.551,-32.5 32.5,-32.5 17.949,0 32.5,14.55074 32.5,32.5 z"
           id="path278"
           style="fill:none;stroke:#000000;stroke-width:1;stroke-linecap:butt;stroke-linejoin:round;stroke-miterlimit:1;stroke-opacity:1;stroke-dasharray:none" /></g><g
         transform="translate(40,41)"
         id="g280"><text
           transform="matrix(1,0,0,-1,1110.147,37.18062)"
           id="text282"><tspan
             x="0 7 14 21 28"
             y="0"
             id="tspan284"
             style="font-size:14px;font-variant:normal;font-weight:normal;writing-mode:lr-tb;fill:#000000;fill-opacity:1;fill-rule:nonzero;stroke:none;font-family:Times;-inkscape-font-specification:Times-Roman">19810</tspan></text>
</g><g
         transform="translate(40,41)"
         id="g286"><path
           d="m 1017.231,155.3398 c 30.246,-30.8337 59.537,-60.69299 80.341,-81.90088"
           id="path288"
           style="fill:none;stroke:#000000;stroke-width:3.05965304;stroke-linecap:butt;stroke-linejoin:round;stroke-miterlimit:1;stroke-opacity:1;stroke-dasharray:none" /></g><g
         transform="translate(40,41)"
         id="g290"><path
           d="m 1009.969,162.7422 3.866,-10.4946 -1.03,6.1331 3.571,-3.6404 0.735,0.7212 0.735,0.7212 -3.571,3.6403 6.113,-1.1476 -10.419,4.0668 z"
           id="path292"
           style="fill:#000000;fill-opacity:1;fill-rule:nonzero;stroke:#000000;stroke-width:1;stroke-linecap:butt;stroke-linejoin:round;stroke-miterlimit:1;stroke-opacity:1;stroke-dasharray:none" /></g><g
         transform="translate(40,41)"
         id="g294"><path
           d="m 1104.839,66.03114 -3.866,10.4946 1.03,-6.1331 -3.571,3.64034 -0.735,-0.72117 -0.735,-0.72116 3.571,-3.64034 -6.112,1.14758 10.418,-4.06675 z"
           id="path296"
           style="fill:#000000;fill-opacity:1;fill-rule:nonzero;stroke:#000000;stroke-width:1;stroke-linecap:butt;stroke-linejoin:round;stroke-miterlimit:1;stroke-opacity:1;stroke-dasharray:none" /></g><g
         transform="translate(40,41)"
         id="g298"><path
           d="m 1095.103,45.46597 c -16.984,1.4014 -38.274,3.15809 -57.948,4.78147"
           id="path300"
           style="fill:none;stroke:#000000;stroke-width:3.05965304;stroke-linecap:butt;stroke-linejoin:round;stroke-miterlimit:1;stroke-opacity:1;stroke-dasharray:none" /></g><g
         transform="translate(40,41)"
         id="g302"><path
           d="m 1026.738,51.10697 9.787,-5.41272 -4.789,3.96699 5.082,-0.4194 0.085,1.02634 0.084,1.02634 -5.082,0.41939 5.375,3.12821 -10.542,-3.73515 z"
           id="path304"
           style="fill:#000000;fill-opacity:1;fill-rule:nonzero;stroke:#000000;stroke-width:1;stroke-linecap:butt;stroke-linejoin:round;stroke-miterlimit:1;stroke-opacity:1;stroke-dasharray:none" /></g><g
         transform="translate(40,41)"
         id="g306"><path
           d="m 159.264,516.6351 c 0,0 41.5,0 41.5,0 0,1.3336 -0.0643,2.6665 -0.1926,3.994 -0.1284,1.3274 -0.3206,2.6479 -0.5762,3.9569 -0.2555,1.3089 -0.5739,2.6048 -0.9542,3.8831 -0.3803,1.2782 -0.822,2.5374 -1.3236,3.7732 -0.5015,1.2357 -1.0624,2.4466 -1.6805,3.6283 -0.6182,1.1818 -1.2929,2.333 -2.0219,3.4498 -0.7291,1.1167 -1.5115,2.1977 -2.3446,3.2391 -0.8331,1.0414 -1.7159,2.0421 -2.6454,2.9985 -0.9295,0.9564 -1.9045,1.8674 -2.9217,2.7299 -1.0172,0.8626 -2.0754,1.6755 -3.1709,2.4361 -1.0955,0.7607 -2.227,1.468 -3.3906,2.1197 -1.1636,0.6516 -2.3579,1.2468 -3.5789,1.7834 -1.2209,0.5367 -2.467,1.0141 -3.7339,1.4308 -1.2669,0.4166 -2.5531,0.772 -3.8542,1.0648 -1.3011,0.2927 -2.6156,0.5226 -3.9389,0.6888 -1.3232,0.1662 -2.6537,0.2686 -3.9868,0.3067 -1.3331,0.038 -2.6673,0.0118 -3.9979,-0.0786 -1.3305,-0.0903 -2.656,-0.2448 -3.9717,-0.4629 -1.3157,-0.218 -2.6201,-0.4993 -3.9088,-0.8429 -1.2886,-0.3437 -2.5599,-0.7492 -3.8094,-1.2153 -1.2496,-0.4661 -2.476,-0.9921 -3.6749,-1.5763 -1.1989,-0.5841 -2.369,-1.2257 -3.5061,-1.9226 -1.1371,-0.6968 -2.24,-1.448 -3.3048,-2.2511 -1.0647,-0.803 -2.0902,-1.6569 -3.0727,-2.5587 -0.9826,-0.9017 -1.9211,-1.8504 -2.8123,-2.8425 -0.8912,-0.9922 -1.7341,-2.0267 -2.5257,-3.1 -0.7916,-1.0734 -1.5309,-2.1842 -2.2155,-3.3287 -0.6847,-1.1446 -1.3137,-2.3214 -1.885,-3.5265 -0.5713,-1.2051 -1.0841,-2.437 -1.5368,-3.6915 -0.4526,-1.2545 -0.8446,-2.5301 -1.1744,-3.8223 -0.3298,-1.2922 -0.5971,-2.5996 -0.8011,-3.9176 -0.2039,-1.3179 -0.3442,-2.645 -0.4203,-3.9764 -0.0761,-1.3315 -0.088,-2.6659 -0.0357,-3.9985 0.0524,-1.3326 0.1689,-2.662 0.3493,-3.9833 0.1804,-1.3214 0.4243,-2.6334 0.731,-3.9313 0.3067,-1.2979 0.6758,-2.5803 1.106,-3.8426 0.4302,-1.2624 0.921,-2.5033 1.4707,-3.7184 0.5497,-1.2151 1.1576,-2.403 1.8217,-3.5595 0.6641,-1.1566 1.3835,-2.2805 2.1558,-3.3677 0.7723,-1.0873 1.5966,-2.1367 2.4699,-3.1446 0.8734,-1.0079 1.7948,-1.9732 2.7611,-2.8923 0.9663,-0.9192 1.9764,-1.7913 3.0266,-2.6132 1.0503,-0.8219 2.1396,-1.5927 3.2641,-2.3097 1.1245,-0.717 2.2829,-1.3794 3.4712,-1.9849 1.1883,-0.6055 2.4051,-1.1533 3.6461,-1.6416 1.2411,-0.4883 2.5049,-0.9165 3.7872,-1.283 1.2823,-0.3666 2.5815,-0.6712 3.8931,-0.9127 1.3116,-0.2414 2.6341,-0.4196 3.9629,-0.5337 1.3287,-0.1141 2.6622,-0.1641 3.9958,-0.1498 1.3335,0.0142 2.6657,0.0928 3.9917,0.2354 1.326,0.1425 2.6443,0.3489 3.9505,0.6184 1.3061,0.2695 2.5985,0.6019 3.8726,0.9958 1.2742,0.394 2.5286,0.8492 3.7589,1.3639 1.2303,0.5148 2.435,1.0885 3.6101,1.7193 1.175,0.6308 2.319,1.3179 3.4279,2.0588 1.1089,0.7409 2.1814,1.5349 3.2138,2.3791 1.0325,0.8442 2.0236,1.7377 2.97,2.6774 0.9464,0.9396 1.8469,1.9244 2.6985,2.9508 0.8516,1.0263 1.6532,2.0932 2.402,3.1967 0.7488,1.1036 1.444,2.2426 2.0832,3.4132 0.6391,1.1705 1.2215,2.3711 1.745,3.5977 0.5236,1.2266 0.9877,2.4777 1.3907,3.749 0.4031,1.2713 0.7446,2.5613 1.0234,3.8654 0.2789,1.3042 0.4947,2.6211 0.6467,3.946 0,0 -41.2295,4.7307 -41.2295,4.7307"
           id="path308"
           style="fill:#39beb1;fill-opacity:1;fill-rule:nonzero;stroke:#000000;stroke-width:0.5;stroke-linecap:butt;stroke-linejoin:round;stroke-miterlimit:1;stroke-opacity:1;stroke-dasharray:none" /></g><g
         transform="translate(40,41)"
         id="g310"><path
           d="m 159.264,516.6351 c 0,0 41.2295,-4.7307 41.2295,-4.7307 0.0901,0.7851 0.1577,1.5726 0.2028,2.3615 0.0451,0.7889 0.0677,1.579 0.0677,2.3692 0,0 -41.5,0 -41.5,0"
           id="path312"
           style="fill:#e495a5;fill-opacity:1;fill-rule:nonzero;stroke:#000000;stroke-width:0.5;stroke-linecap:butt;stroke-linejoin:round;stroke-miterlimit:1;stroke-opacity:1;stroke-dasharray:none" /></g><g
         transform="translate(40,41)"
         id="g314"><path
           d="m 200.764,516.6351 c 0,22.9198 -18.5802,41.5 -41.5,41.5 -22.9198,0 -41.5,-18.5802 -41.5,-41.5 0,-22.9198 18.5802,-41.5 41.5,-41.5 22.9198,0 41.5,18.5802 41.5,41.5 z"
           id="path316"
           style="fill:none;stroke:#000000;stroke-width:1;stroke-linecap:butt;stroke-linejoin:round;stroke-miterlimit:1;stroke-opacity:1;stroke-dasharray:none" /></g><g
         transform="translate(40,41)"
         id="g318"><text
           transform="matrix(1,0,0,-1,141.764,511.0351)"
           id="text320"><tspan
             x="0 7 14 21 28"
             y="0"
             id="tspan322"
             style="font-size:14px;font-variant:normal;font-weight:normal;writing-mode:lr-tb;fill:#000000;fill-opacity:1;fill-rule:nonzero;stroke:none;font-family:Times;-inkscape-font-specification:Times-Roman">19768</tspan></text>
</g><g
         transform="translate(40,41)"
         id="g324"><path
           d="m 34.54098,464.3822 c 0,0 27,0 27,0 0,0.7759 -0.03345,1.5515 -0.10025,2.3246 -0.06681,0.773 -0.16691,1.5429 -0.30002,2.3073 -0.13312,0.7644 -0.29912,1.5228 -0.49755,2.2729 -0.19844,0.7502 -0.42912,1.4914 -0.6914,2.2217 -0.26228,0.7302 -0.55592,1.4488 -0.8801,2.1538 -0.32418,0.705 -0.6786,1.3957 -1.06227,2.0701 -0.38367,0.6745 -0.79624,1.3321 -1.23655,1.971 -0.44031,0.6389 -0.90797,1.2585 -1.40165,1.8571 -0.49369,0.5987 -1.01295,1.1757 -1.55634,1.7296 -0.54339,0.554 -1.11041,1.0842 -1.69948,1.5892 -0.58906,0.5051 -1.19962,0.9845 -1.82998,1.437 -0.63036,0.4525 -1.27993,0.8776 -1.94691,1.2741 -0.66697,0.3965 -1.35073,0.7641 -2.04936,1.1017 -0.69864,0.3376 -1.41151,0.645 -2.13662,0.9212 -0.72511,0.2762 -1.46179,0.5211 -2.20799,0.7338 -0.7462,0.2128 -1.50122,0.3933 -2.26297,0.541 -0.76175,0.1478 -1.52951,0.2626 -2.30115,0.3442 -0.77163,0.0816 -1.54643,0.1299 -2.32223,0.1447 -0.7758,0.0149 -1.55187,-0.004 -2.32607,-0.0557 -0.7742,-0.0519 -1.54579,-0.1373 -2.31264,-0.2557 -0.76685,-0.1185 -1.52823,-0.2699 -2.28203,-0.454 -0.7538,-0.184 -1.49932,-0.4004 -2.23448,-0.6487 -0.73516,-0.2482 -1.45927,-0.528 -2.17033,-0.8386 -0.71106,-0.3107 -1.40839,-0.6518 -2.09006,-1.0225 -0.68168,-0.3707 -1.34705,-0.7705 -1.99428,-1.1985 -0.64723,-0.428 -1.27571,-0.8837 -1.88368,-1.3659 -0.60798,-0.4821 -1.19489,-0.9902 -1.7591,-1.5229 -0.56421,-0.5327 -1.10519,-1.0894 -1.62145,-1.6687 -0.51625,-0.5793 -1.00729,-1.1806 -1.47175,-1.8021 -0.46447,-0.6216 -0.90192,-1.2629 -1.31114,-1.9222 -0.40922,-0.6592 -0.78984,-1.3358 -1.14078,-2.0279 -0.35095,-0.692 -0.671896,-1.3989 -0.961956,-2.1185 -0.29006,-0.7197 -0.54896,-1.4516 -0.775981,-2.1936 -0.227021,-0.742 -0.421951,-1.4934 -0.584247,-2.2522 -0.162297,-0.7587 -0.291808,-1.5242 -0.388174,-2.2941 -0.096367,-0.7699 -0.159498,-1.5437 -0.189219,-2.319 -0.02972,-0.7754 -0.026003,-1.5517 0.011143,-2.3267 0.037146,-0.7751 0.107685,-1.5482 0.211421,-2.3172 0.103736,-0.7689 0.240573,-1.5331 0.410129,-2.2903 0.169556,-0.7571 0.371674,-1.5067 0.605792,-2.2465 0.234117,-0.7397 0.500015,-1.4691 0.796955,-2.186 0.296939,-0.7168 0.624647,-1.4206 0.982197,-2.1092 0.35756,-0.6887 0.74464,-1.3616 1.16015,-2.0169 0.41552,-0.6553 0.8591,-1.2924 1.32949,-1.9095 0.4704,-0.6171 0.96718,-1.2136 1.48895,-1.7879 0.52178,-0.5743 1.06807,-1.1259 1.63736,-1.6531 0.56928,-0.5273 1.16103,-1.0298 1.7736,-1.5061 0.61257,-0.4762 1.24538,-0.9259 1.89668,-1.3477 0.65129,-0.4217 1.32047,-0.8152 2.00566,-1.1794 0.68519,-0.3641 1.38576,-0.6985 2.09976,-1.0023 0.714,-0.3038 1.44076,-0.5767 2.17827,-0.8179 0.7375,-0.2412 1.48506,-0.4505 2.24059,-0.6273 0.75552,-0.1768 1.51832,-0.3209 2.28627,-0.432 0.76795,-0.1111 1.54032,-0.1891 2.31498,-0.2336 0.77466,-0.0446 1.55088,-0.0557 2.3265,-0.0335 0.77562,0.0223 1.54992,0.0781 2.32074,0.167 0.77082,0.089 1.53745,0.2112 2.29775,0.3662 0.76029,0.155 1.51355,0.3428 2.25768,0.5627 0.74413,0.2199 1.47843,0.4718 2.20086,0.7549 0.72243,0.2832 1.43232,0.5973 2.1277,0.9416 0.69537,0.3443 1.37557,0.7184 2.03872,1.1213 0.66314,0.4029 1.30862,0.8342 1.93461,1.2927 0.626,0.4585 1.23194,0.9438 1.81614,1.4544 0.5842,0.5107 1.14611,1.0463 1.68417,1.6054 0,0 -19.45408,18.7227 -19.45408,18.7227"
           id="path326"
           style="fill:#39beb1;fill-opacity:1;fill-rule:nonzero;stroke:#000000;stroke-width:0.5;stroke-linecap:butt;stroke-linejoin:round;stroke-miterlimit:1;stroke-opacity:1;stroke-dasharray:none" /></g><g
         transform="translate(40,41)"
         id="g328"><path
           d="m 34.54098,464.3822 c 0,0 19.45408,-18.7227 19.45408,-18.7227 0.59787,0.6212 1.16564,1.2708 1.70136,1.9463 0.53572,0.6756 1.03877,1.3764 1.50743,2.1001 0.46865,0.7237 0.90238,1.4694 1.29968,2.2346 0.3973,0.7652 0.75772,1.549 1.08002,2.3486 0.3223,0.7997 0.60611,1.6144 0.85045,2.4412 0.24435,0.8269 0.44895,1.6649 0.6131,2.5113 0.16416,0.8465 0.28767,1.7003 0.37013,2.5585 0.08245,0.8582 0.12375,1.7199 0.12375,2.5821 0,0 -27,0 -27,0"
           id="path330"
           style="fill:#e495a5;fill-opacity:1;fill-rule:nonzero;stroke:#000000;stroke-width:0.5;stroke-linecap:butt;stroke-linejoin:round;stroke-miterlimit:1;stroke-opacity:1;stroke-dasharray:none" /></g><g
         transform="translate(40,41)"
         id="g332"><path
           d="m 61.54098,464.3822 c 0,14.9117 -12.08831,27 -27,27 -14.91169,0 -27,-12.0883 -27,-27 0,-14.9117 12.08831,-27 27,-27 14.91169,0 27,12.0883 27,27 z"
           id="path334"
           style="fill:none;stroke:#000000;stroke-width:1;stroke-linecap:butt;stroke-linejoin:round;stroke-miterlimit:1;stroke-opacity:1;stroke-dasharray:none" /></g><g
         transform="translate(40,41)"
         id="g336"><text
           transform="matrix(1,0,0,-1,17.04098,458.7822)"
           id="text338"><tspan
             x="0 7 14 21 28"
             y="0"
             id="tspan340"
             style="font-size:14px;font-variant:normal;font-weight:normal;writing-mode:lr-tb;fill:#000000;fill-opacity:1;fill-rule:nonzero;stroke:none;font-family:Times;-inkscape-font-specification:Times-Roman">19741</tspan></text>
</g><g
         transform="translate(40,41)"
         id="g342"><path
           d="M 120.8253,500.5311 C 104.6582,493.7579 85.96273,485.9254 70.11623,479.2865"
           id="path344"
           style="fill:none;stroke:#000000;stroke-width:3.37155294;stroke-linecap:butt;stroke-linejoin:round;stroke-miterlimit:1;stroke-opacity:1;stroke-dasharray:none" /></g><g
         transform="translate(40,41)"
         id="g346"><path
           d="m 59.66682,474.9087 12.31982,-0.3218 -6.67882,1.3995 5.1828,2.1714 -0.45821,1.0936 -0.4582,1.0937 -5.18279,-2.1714 3.68676,5.7423 -8.41136,-9.0073 z"
           id="path348"
           style="fill:#000000;fill-opacity:1;fill-rule:nonzero;stroke:#000000;stroke-width:1;stroke-linecap:butt;stroke-linejoin:round;stroke-miterlimit:1;stroke-opacity:1;stroke-dasharray:none" /></g><g
         transform="translate(40,41)"
         id="g350"><path
           d="m 174.4599,460.1465 c -0.0239,0.089 -0.0479,0.178 -0.0718,0.2669"
           id="path352"
           style="fill:none;stroke:#000000;stroke-width:5.94459915;stroke-linecap:butt;stroke-linejoin:round;stroke-miterlimit:1;stroke-opacity:1;stroke-dasharray:none" /></g><g
         transform="translate(40,41)"
         id="g354"><path
           d="m 170.0705,476.4635 -3.4632,-21.4515 3.6496,11.2417 2.5738,-9.5675 2.3874,0.6422 2.3874,0.6423 -2.5738,9.5675 8.7972,-7.8934 -13.7584,16.8187 z"
           id="path356"
           style="fill:#000000;fill-opacity:1;fill-rule:nonzero;stroke:#000000;stroke-width:1;stroke-linecap:butt;stroke-linejoin:round;stroke-miterlimit:1;stroke-opacity:1;stroke-dasharray:none" /></g><g
         transform="translate(40,41)"
         id="g358"><path
           d="m 101.3547,411.7845 c -10.37964,8.1711 -20.34075,16.0128 -29.25817,23.0328"
           id="path360"
           style="fill:none;stroke:#000000;stroke-width:6.12484121;stroke-linecap:butt;stroke-linejoin:round;stroke-miterlimit:1;stroke-opacity:1;stroke-dasharray:none" /></g><g
         transform="translate(40,41)"
         id="g362"><path
           d="m 55.93271,447.542 10.35891,-19.8474 -3.92303,11.5197 8.02089,-6.3143 1.58501,2.0134 1.58501,2.0134 -8.02089,6.3143 12.11875,-1.1089 -21.72465,5.4098 z"
           id="path364"
           style="fill:#000000;fill-opacity:1;fill-rule:nonzero;stroke:#000000;stroke-width:1;stroke-linecap:butt;stroke-linejoin:round;stroke-miterlimit:1;stroke-opacity:1;stroke-dasharray:none" /></g><g
         transform="translate(40,41)"
         id="g366"><path
           d="m 918.0883,873.2934 c 0,0 29.5,0 29.5,0 0,0.9656 -0.0474,1.9306 -0.1421,2.8915 -0.0946,0.9609 -0.2364,1.9166 -0.4248,2.8637 -0.1883,0.947 -0.4231,1.8842 -0.7034,2.8082 -0.2803,0.924 -0.6058,1.8337 -0.9753,2.7258 -0.3695,0.892 -0.7826,1.7654 -1.2378,2.617 -0.4551,0.8516 -0.9518,1.6803 -1.4883,2.4831 -0.5364,0.8029 -1.112,1.5789 -1.7245,2.3253 -0.6126,0.7464 -1.2614,1.4623 -1.9442,2.1451 -0.6827,0.6827 -1.3986,1.3316 -2.145,1.9441 -0.7464,0.6126 -1.5225,1.1881 -2.3253,1.7246 -0.8029,0.5364 -1.6316,1.0331 -2.4831,1.4883 -0.8516,0.4552 -1.725,0.8682 -2.6171,1.2378 -0.892,0.3695 -1.8017,0.695 -2.7257,0.9752 -0.924,0.2803 -1.8612,0.5151 -2.8083,0.7035 -0.947,0.1883 -1.9027,0.3301 -2.8636,0.4248 -0.961,0.0946 -1.9259,0.142 -2.8915,0.142 -0.9656,0 -1.9306,-0.0474 -2.8915,-0.142 -0.961,-0.0947 -1.9167,-0.2365 -2.8637,-0.4248 -0.947,-0.1884 -1.8842,-0.4232 -2.8082,-0.7035 -0.924,-0.2802 -1.8337,-0.6057 -2.7258,-0.9752 -0.8921,-0.3696 -1.7655,-0.7826 -2.617,-1.2378 -0.8516,-0.4552 -1.6803,-0.9519 -2.4832,-1.4883 -0.8028,-0.5365 -1.5788,-1.112 -2.3252,-1.7246 -0.7464,-0.6125 -1.4623,-1.2614 -2.1451,-1.9441 -0.6827,-0.6828 -1.3316,-1.3987 -1.9441,-2.1451 -0.6126,-0.7464 -1.1881,-1.5224 -1.7246,-2.3253 -0.5364,-0.8028 -1.0331,-1.6315 -1.4883,-2.4831 -0.4552,-0.8516 -0.8683,-1.725 -1.2378,-2.617 -0.3695,-0.8921 -0.695,-1.8018 -0.9753,-2.7258 -0.2803,-0.924 -0.515,-1.8612 -0.7034,-2.8082 -0.1884,-0.9471 -0.3301,-1.9028 -0.4248,-2.8637 -0.0946,-0.9609 -0.142,-1.9259 -0.142,-2.8915 0,-0.9656 0.0474,-1.9306 0.142,-2.8915 0.0947,-0.9609 0.2364,-1.9166 0.4248,-2.8637 0.1884,-0.947 0.4231,-1.8842 0.7034,-2.8082 0.2803,-0.924 0.6058,-1.8337 0.9753,-2.7258 0.3695,-0.892 0.7826,-1.7654 1.2378,-2.617 0.4552,-0.8516 0.9519,-1.6803 1.4883,-2.4831 0.5365,-0.8029 1.112,-1.5789 1.7246,-2.3253 0.6125,-0.7464 1.2614,-1.4623 1.9441,-2.145 0.6828,-0.6828 1.3987,-1.3316 2.1451,-1.9442 0.7464,-0.6126 1.5224,-1.1881 2.3252,-1.7245 0.8029,-0.5365 1.6316,-1.0332 2.4832,-1.4884 0.8515,-0.4551 1.7249,-0.8682 2.617,-1.2377 0.8921,-0.3696 1.8018,-0.695 2.7258,-0.9753 0.924,-0.2803 1.8612,-0.5151 2.8082,-0.7035 0.947,-0.1883 1.9027,-0.3301 2.8637,-0.4247 0.9609,-0.0947 1.9259,-0.1421 2.8915,-0.1421 0.9656,0 1.9305,0.0474 2.8915,0.1421 0.9609,0.0946 1.9166,0.2364 2.8636,0.4247 0.9471,0.1884 1.8843,0.4232 2.8083,0.7035 0.924,0.2803 1.8337,0.6057 2.7257,0.9753 0.8921,0.3695 1.7655,0.7826 2.6171,1.2377 0.8515,0.4552 1.6802,0.9519 2.4831,1.4884 0.8028,0.5364 1.5789,1.1119 2.3253,1.7245 0.7464,0.6126 1.4623,1.2614 2.145,1.9442 0.6828,0.6827 1.3316,1.3986 1.9442,2.145 0.6125,0.7464 1.1881,1.5224 1.7245,2.3253 0.5365,0.8028 1.0332,1.6315 1.4883,2.4831 0.4552,0.8516 0.8683,1.725 1.2378,2.617 0.3695,0.8921 0.695,1.8018 0.9753,2.7258 0.2803,0.924 0.5151,1.8612 0.7034,2.8082 0.1884,0.9471 0.3302,1.9028 0.4248,2.8637 0.0947,0.9609 0.1421,1.9259 0.1421,2.8915 0,0 -29.5,0 -29.5,0"
           id="path368"
           style="fill:#aca4e2;fill-opacity:1;fill-rule:nonzero;stroke:#000000;stroke-width:0.5;stroke-linecap:butt;stroke-linejoin:round;stroke-miterlimit:1;stroke-opacity:1;stroke-dasharray:none" /></g><g
         transform="translate(40,41)"
         id="g370"><path
           d="m 947.5883,873.2934 c 0,16.2924 -13.2076,29.5 -29.5,29.5 -16.2924,0 -29.5,-13.2076 -29.5,-29.5 0,-16.2924 13.2076,-29.5 29.5,-29.5 16.2924,0 29.5,13.2076 29.5,29.5 z"
           id="path372"
           style="fill:none;stroke:#000000;stroke-width:1;stroke-linecap:butt;stroke-linejoin:round;stroke-miterlimit:1;stroke-opacity:1;stroke-dasharray:none" /></g><g
         transform="translate(40,41)"
         id="g374"><text
           transform="matrix(1,0,0,-1,900.5883,867.6934)"
           id="text376"><tspan
             x="0 7 14 21 28"
             y="0"
             id="tspan378"
             style="font-size:14px;font-variant:normal;font-weight:normal;writing-mode:lr-tb;fill:#000000;fill-opacity:1;fill-rule:nonzero;stroke:none;font-family:Times;-inkscape-font-specification:Times-Roman">19791</tspan></text>
</g><g
         transform="translate(40,41)"
         id="g380"><path
           d="m 919.5809,754.5829 c 0,0 27,0 27,0 0,0.8837 -0.0434,1.7669 -0.13,2.6464 -0.0866,0.8795 -0.2164,1.7542 -0.3888,2.621 -0.1724,0.8668 -0.3872,1.7246 -0.6438,2.5703 -0.2565,0.8457 -0.5544,1.6783 -0.8926,2.4947 -0.3382,0.8165 -0.7163,1.6159 -1.1329,2.3953 -0.4166,0.7794 -0.8712,1.5379 -1.3622,2.2727 -0.491,0.7348 -1.0177,1.4451 -1.5784,2.1282 -0.5606,0.6831 -1.1545,1.3384 -1.7794,1.9633 -0.6249,0.6249 -1.2801,1.2187 -1.9632,1.7794 -0.6832,0.5606 -1.3935,1.0874 -2.1283,1.5784 -0.7348,0.4909 -1.4933,0.9456 -2.2727,1.3622 -0.7794,0.4166 -1.5787,0.7946 -2.3952,1.1328 -0.8165,0.3382 -1.6491,0.6361 -2.4948,0.8927 -0.8457,0.2565 -1.7035,0.4714 -2.5702,0.6438 -0.8668,0.1724 -1.7415,0.3021 -2.621,0.3888 -0.8795,0.0866 -1.7627,0.13 -2.6465,0.13 -0.8837,0 -1.7669,-0.0434 -2.6464,-0.13 -0.8795,-0.0867 -1.7542,-0.2164 -2.621,-0.3888 -0.8668,-0.1724 -1.7246,-0.3873 -2.5703,-0.6438 -0.8456,-0.2566 -1.6782,-0.5545 -2.4947,-0.8927 -0.8165,-0.3382 -1.6159,-0.7162 -2.3953,-1.1328 -0.7794,-0.4166 -1.5379,-0.8713 -2.2727,-1.3622 -0.7348,-0.491 -1.445,-1.0178 -2.1282,-1.5784 -0.6831,-0.5607 -1.3383,-1.1545 -1.9632,-1.7794 -0.625,-0.6249 -1.2188,-1.2802 -1.7794,-1.9633 -0.5607,-0.6831 -1.0875,-1.3934 -1.5784,-2.1282 -0.491,-0.7348 -0.9456,-1.4933 -1.3622,-2.2727 -0.4166,-0.7794 -0.7947,-1.5788 -1.1329,-2.3953 -0.3382,-0.8164 -0.6361,-1.649 -0.8927,-2.4947 -0.2565,-0.8457 -0.4714,-1.7035 -0.6438,-2.5703 -0.1724,-0.8668 -0.3021,-1.7415 -0.3888,-2.621 -0.0866,-0.8795 -0.13,-1.7627 -0.13,-2.6464 0,-0.8838 0.0434,-1.767 0.13,-2.6465 0.0867,-0.8795 0.2164,-1.7542 0.3888,-2.621 0.1724,-0.8667 0.3873,-1.7245 0.6438,-2.5702 0.2566,-0.8457 0.5545,-1.6783 0.8927,-2.4948 0.3382,-0.8165 0.7163,-1.6158 1.1329,-2.3952 0.4166,-0.7794 0.8712,-1.5379 1.3622,-2.2727 0.4909,-0.7348 1.0177,-1.4451 1.5784,-2.1282 0.5606,-0.6832 1.1544,-1.3384 1.7794,-1.9633 0.6249,-0.6249 1.2801,-1.2188 1.9632,-1.7794 0.6832,-0.5606 1.3934,-1.0874 2.1282,-1.5784 0.7348,-0.491 1.4933,-0.9456 2.2727,-1.3622 0.7794,-0.4166 1.5788,-0.7947 2.3953,-1.1329 0.8165,-0.3382 1.6491,-0.6361 2.4947,-0.8926 0.8457,-0.2565 1.7035,-0.4714 2.5703,-0.6438 0.8668,-0.1724 1.7415,-0.3022 2.621,-0.3888 0.8795,-0.0866 1.7627,-0.13 2.6464,-0.13 0.8838,0 1.767,0.0434 2.6465,0.13 0.8795,0.0866 1.7542,0.2164 2.621,0.3888 0.8667,0.1724 1.7245,0.3873 2.5702,0.6438 0.8457,0.2565 1.6783,0.5544 2.4948,0.8926 0.8165,0.3382 1.6158,0.7163 2.3952,1.1329 0.7794,0.4166 1.5379,0.8712 2.2727,1.3622 0.7348,0.491 1.4451,1.0178 2.1283,1.5784 0.6831,0.5606 1.3383,1.1545 1.9632,1.7794 0.6249,0.6249 1.2188,1.2801 1.7794,1.9633 0.5607,0.6831 1.0874,1.3934 1.5784,2.1282 0.491,0.7348 0.9456,1.4933 1.3622,2.2727 0.4166,0.7794 0.7947,1.5787 1.1329,2.3952 0.3382,0.8165 0.6361,1.6491 0.8926,2.4948 0.2566,0.8457 0.4714,1.7035 0.6438,2.5702 0.1724,0.8668 0.3022,1.7415 0.3888,2.621 0.0866,0.8795 0.13,1.7627 0.13,2.6465 0,0 -27,0 -27,0"
           id="path382"
           style="fill:#aca4e2;fill-opacity:1;fill-rule:nonzero;stroke:#000000;stroke-width:0.5;stroke-linecap:butt;stroke-linejoin:round;stroke-miterlimit:1;stroke-opacity:1;stroke-dasharray:none" /></g><g
         transform="translate(40,41)"
         id="g384"><path
           d="m 946.5809,754.5829 c 0,14.9117 -12.0883,27 -27,27 -14.9117,0 -27,-12.0883 -27,-27 0,-14.9117 12.0883,-27 27,-27 14.9117,0 27,12.0883 27,27 z"
           id="path386"
           style="fill:none;stroke:#000000;stroke-width:1;stroke-linecap:butt;stroke-linejoin:round;stroke-miterlimit:1;stroke-opacity:1;stroke-dasharray:none" /></g><g
         transform="translate(40,41)"
         id="g388"><text
           transform="matrix(1,0,0,-1,902.0809,748.9829)"
           id="text390"><tspan
             x="0 7 14 21 28"
             y="0"
             id="tspan392"
             style="font-size:14px;font-variant:normal;font-weight:normal;writing-mode:lr-tb;fill:#000000;fill-opacity:1;fill-rule:nonzero;stroke:none;font-family:Times;-inkscape-font-specification:Times-Roman">19745</tspan></text>
</g><g
         transform="translate(40,41)"
         id="g394"><path
           d="m 918.4611,843.6439 c 0.1769,-14.0674 0.3915,-31.1344 0.5853,-46.549"
           id="path396"
           style="fill:none;stroke:#000000;stroke-width:4.48452187;stroke-linecap:butt;stroke-linejoin:round;stroke-miterlimit:1;stroke-opacity:1;stroke-dasharray:none" /></g><g
         transform="translate(40,41)"
         id="g398"><path
           d="m 919.2384,781.8245 6.5382,15.0318 -4.8901,-7.5363 -0.094,7.4736 -1.7421,-0.0219 -1.7422,-0.0219 0.0941,-7.4736 -5.0782,7.4109 6.9143,-14.8626 z"
           id="path400"
           style="fill:#000000;fill-opacity:1;fill-rule:nonzero;stroke:#000000;stroke-width:1;stroke-linecap:butt;stroke-linejoin:round;stroke-miterlimit:1;stroke-opacity:1;stroke-dasharray:none" /></g><g
         transform="translate(40,41)"
         id="g402"><path
           d="m 1100.673,927.3572 c 0,0 144,0 144,0 0,2.3563 -0.058,4.7123 -0.173,7.0658 -0.116,2.3534 -0.289,4.7037 -0.52,7.0487 -0.231,2.3449 -0.52,4.6839 -0.865,7.0147 -0.346,2.3308 -0.749,4.6528 -1.209,6.9638 -0.459,2.3111 -0.976,4.6105 -1.548,6.8962 -0.573,2.2857 -1.201,4.557 -1.885,6.8118 -0.684,2.2549 -1.424,4.4926 -2.217,6.7111 -0.794,2.2186 -1.642,4.4174 -2.544,6.5943 -0.902,2.177 -1.857,4.3315 -2.864,6.4615 -1.008,2.1301 -2.067,4.2352 -3.178,6.3132 -1.111,2.0781 -2.272,4.1286 -3.484,6.1497 -1.211,2.021 -2.472,4.012 -3.781,5.971 -1.309,1.96 -2.666,3.886 -4.07,5.779 -1.404,1.893 -2.853,3.75 -4.348,5.572 -1.495,1.821 -3.034,3.606 -4.617,5.352 -1.582,1.746 -3.207,3.452 -4.873,5.119 -1.667,1.666 -3.373,3.291 -5.119,4.873 -1.746,1.583 -3.531,3.122 -5.352,4.617 -1.822,1.495 -3.679,2.944 -5.572,4.348 -1.893,1.404 -3.819,2.761 -5.779,4.07 -1.959,1.309 -3.95,2.57 -5.971,3.781 -2.021,1.212 -4.072,2.373 -6.15,3.484 -2.078,1.111 -4.183,2.17 -6.313,3.178 -2.13,1.007 -4.284,1.962 -6.461,2.864 -2.177,0.902 -4.376,1.75 -6.595,2.544 -2.218,0.793 -4.456,1.533 -6.711,2.217 -2.255,0.684 -4.526,1.312 -6.812,1.885 -2.285,0.572 -4.585,1.089 -6.896,1.548 -2.311,0.46 -4.633,0.863 -6.964,1.209 -2.33,0.345 -4.669,0.634 -7.014,0.865 -2.345,0.231 -4.696,0.404 -7.049,0.52 -2.353,0.115 -4.709,0.173 -7.066,0.173 -2.356,0 -4.712,-0.058 -7.066,-0.173 -2.353,-0.116 -4.703,-0.289 -7.048,-0.52 -2.345,-0.231 -4.684,-0.52 -7.015,-0.865 -2.331,-0.346 -4.653,-0.749 -6.964,-1.209 -2.311,-0.459 -4.61,-0.976 -6.896,-1.548 -2.286,-0.573 -4.557,-1.201 -6.812,-1.885 -2.255,-0.684 -4.492,-1.424 -6.711,-2.217 -2.218,-0.794 -4.417,-1.642 -6.594,-2.544 -2.177,-0.902 -4.332,-1.857 -6.462,-2.864 -2.13,-1.008 -4.235,-2.067 -6.313,-3.178 -2.078,-1.111 -4.128,-2.272 -6.15,-3.484 -2.021,-1.211 -4.012,-2.472 -5.971,-3.781 -1.959,-1.309 -3.886,-2.666 -5.778,-4.07 -1.893,-1.404 -3.751,-2.853 -5.572,-4.348 -1.822,-1.495 -3.606,-3.034 -5.352,-4.617 -1.746,-1.582 -3.453,-3.207 -5.1191,-4.873 -1.6662,-1.667 -3.2912,-3.373 -4.8736,-5.119 -1.5824,-1.746 -3.1217,-3.531 -4.6166,-5.352 -1.4948,-1.822 -2.9447,-3.679 -4.3484,-5.572 -1.4036,-1.893 -2.7606,-3.819 -4.0697,-5.779 -1.3091,-1.959 -2.5699,-3.95 -3.7813,-5.971 -1.2114,-2.0211 -2.373,-4.0716 -3.4837,-6.1497 -1.1108,-2.078 -2.1704,-4.1831 -3.1778,-6.3132 -1.0075,-2.13 -1.9625,-4.2845 -2.8642,-6.4615 -0.9017,-2.1769 -1.7499,-4.3757 -2.5437,-6.5943 -0.7938,-2.2185 -1.5331,-4.4562 -2.2171,-6.7111 -0.684,-2.2548 -1.3125,-4.5261 -1.8851,-6.8118 -0.5725,-2.2857 -1.0889,-4.5851 -1.5485,-6.8962 -0.4597,-2.311 -0.8626,-4.633 -1.2084,-6.9638 -0.3457,-2.3308 -0.6342,-4.6698 -0.8652,-7.0147 -0.2309,-2.345 -0.4043,-4.6953 -0.5199,-7.0487 -0.1156,-2.3535 -0.1735,-4.7095 -0.1735,-7.0658 0,-2.3563 0.0579,-4.7123 0.1735,-7.0657 0.1156,-2.3535 0.289,-4.7038 0.5199,-7.0488 0.231,-2.3449 0.5195,-4.6839 0.8652,-7.0147 0.3458,-2.3308 0.7487,-4.6528 1.2084,-6.9638 0.4596,-2.311 0.976,-4.6104 1.5485,-6.8961 0.5726,-2.2857 1.2011,-4.557 1.8851,-6.8119 0.684,-2.2548 1.4233,-4.4926 2.2171,-6.7111 0.7938,-2.2186 1.642,-4.4174 2.5437,-6.5943 0.9017,-2.177 1.8567,-4.3314 2.8642,-6.4615 1.0074,-2.1301 2.067,-4.2351 3.1778,-6.3132 1.1107,-2.0781 2.2723,-4.1286 3.4837,-6.1497 1.2114,-2.0211 2.4722,-4.0121 3.7813,-5.9713 1.3091,-1.9592 2.6661,-3.886 4.0697,-5.7786 1.4037,-1.8926 2.8536,-3.7505 4.3484,-5.5719 1.4949,-1.8215 3.0342,-3.606 4.6166,-5.3519 1.5824,-1.7459 3.2074,-3.4527 4.8736,-5.1189 1.6661,-1.6661 3.3731,-3.2911 5.1191,-4.8736 1.746,-1.5824 3.53,-3.1217 5.352,-4.6165 1.821,-1.4948 3.679,-2.9447 5.572,-4.3484 1.892,-1.4036 3.819,-2.7606 5.778,-4.0697 1.959,-1.3091 3.95,-2.5699 5.971,-3.7813 2.022,-1.2114 4.072,-2.373 6.15,-3.4838 2.078,-1.1107 4.183,-2.1703 6.313,-3.1777 2.13,-1.0075 4.285,-1.9625 6.462,-2.8642 2.177,-0.9018 4.376,-1.7499 6.594,-2.5437 2.219,-0.7939 4.456,-1.5331 6.711,-2.2171 2.255,-0.684 4.526,-1.3126 6.812,-1.8851 2.286,-0.5725 4.585,-1.0889 6.896,-1.5486 2.311,-0.4597 4.633,-0.8626 6.964,-1.2083 2.331,-0.3457 4.67,-0.6342 7.015,-0.8652 2.345,-0.2309 4.695,-0.4043 7.048,-0.5199 2.354,-0.1157 4.71,-0.1735 7.066,-0.1735 2.357,0 4.713,0.0578 7.066,0.1735 2.353,0.1156 4.704,0.289 7.049,0.5199 2.345,0.231 4.684,0.5195 7.014,0.8652 2.331,0.3457 4.653,0.7486 6.964,1.2083 2.311,0.4597 4.611,0.9761 6.896,1.5486 2.286,0.5725 4.557,1.2011 6.812,1.8851 2.255,0.684 4.493,1.4232 6.711,2.2171 2.219,0.7938 4.418,1.6419 6.595,2.5437 2.177,0.9017 4.331,1.8567 6.461,2.8642 2.13,1.0074 4.235,2.067 6.313,3.1777 2.078,1.1108 4.129,2.2724 6.15,3.4838 2.021,1.2114 4.012,2.4722 5.971,3.7813 1.96,1.3091 3.886,2.6661 5.779,4.0697 1.893,1.4037 3.75,2.8536 5.572,4.3484 1.821,1.4948 3.606,3.0341 5.352,4.6165 1.746,1.5825 3.452,3.2075 5.119,4.8736 1.666,1.6662 3.291,3.373 4.873,5.1189 1.583,1.7459 3.122,3.5304 4.617,5.3519 1.495,1.8214 2.944,3.6793 4.348,5.5719 1.404,1.8926 2.761,3.8194 4.07,5.7786 1.309,1.9592 2.57,3.9502 3.781,5.9713 1.212,2.0211 2.373,4.0716 3.484,6.1497 1.111,2.0781 2.17,4.1831 3.178,6.3132 1.007,2.1301 1.962,4.2845 2.864,6.4615 0.902,2.1769 1.75,4.3757 2.544,6.5943 0.793,2.2185 1.533,4.4563 2.217,6.7111 0.684,2.2549 1.312,4.5262 1.885,6.8119 0.572,2.2857 1.089,4.5851 1.548,6.8961 0.46,2.311 0.863,4.633 1.209,6.9638 0.345,2.3308 0.634,4.6698 0.865,7.0147 0.231,2.345 0.404,4.6953 0.52,7.0488 0.115,2.3534 0.173,4.7094 0.173,7.0657 0,0 -144,0 -144,0"
           id="path404"
           style="fill:#aca4e2;fill-opacity:1;fill-rule:nonzero;stroke:#000000;stroke-width:0.5;stroke-linecap:butt;stroke-linejoin:round;stroke-miterlimit:1;stroke-opacity:1;stroke-dasharray:none" /></g><g
         transform="translate(40,41)"
         id="g406"><path
           d="m 1244.673,927.3572 c 0,79.5288 -64.471,143.9998 -144,143.9998 -79.529,0 -143.9998,-64.471 -143.9998,-143.9998 0,-79.529 64.4708,-144 143.9998,-144 79.529,0 144,64.471 144,144 z"
           id="path408"
           style="fill:none;stroke:#000000;stroke-width:1;stroke-linecap:butt;stroke-linejoin:round;stroke-miterlimit:1;stroke-opacity:1;stroke-dasharray:none" /></g><g
         transform="translate(40,41)"
         id="g410"><text
           transform="matrix(1,0,0,-1,1083.173,921.7572)"
           id="text412"><tspan
             x="0 7 14 21 28"
             y="0"
             id="tspan414"
             style="font-size:14px;font-variant:normal;font-weight:normal;writing-mode:lr-tb;fill:#000000;fill-opacity:1;fill-rule:nonzero;stroke:none;font-family:Times;-inkscape-font-specification:Times-Roman">19812</tspan></text>
</g><g
         transform="translate(40,41)"
         id="g416"><path
           d="m 962.287,886.3807 c -0.0886,-0.0262 -0.1771,-0.0524 -0.2655,-0.0786"
           id="path418"
           style="fill:none;stroke:#000000;stroke-width:6.18093491;stroke-linecap:butt;stroke-linejoin:round;stroke-miterlimit:1;stroke-opacity:1;stroke-dasharray:none" /></g><g
         transform="translate(40,41)"
         id="g420"><path
           d="m 946.4106,881.6797 22.3876,-3.0402 -11.7745,3.4812 9.8777,2.9248 -0.7355,2.4839 -0.7355,2.4838 -9.8777,-2.9248 7.9808,9.3309 -17.1229,-14.7396 z"
           id="path422"
           style="fill:#000000;fill-opacity:1;fill-rule:nonzero;stroke:#000000;stroke-width:1;stroke-linecap:butt;stroke-linejoin:round;stroke-miterlimit:1;stroke-opacity:1;stroke-dasharray:none" /></g><g
         transform="translate(40,41)"
         id="g424"><path
           d="M 996.3804,827.8548 C 979.9873,812.2146 964.2097,797.1617 951.2648,784.8114"
           id="path426"
           style="fill:none;stroke:#000000;stroke-width:4.82103682;stroke-linecap:butt;stroke-linejoin:round;stroke-miterlimit:1;stroke-opacity:1;stroke-dasharray:none" /></g><g
         transform="translate(40,41)"
         id="g428"><path
           d="m 939.3463,773.4404 16.6191,5.8609 -9.4867,-1.6967 5.8136,5.5466 -1.3188,1.3823 -1.3188,1.3823 -5.8136,-5.5465 2.1405,9.3965 -6.6353,-16.3254 z"
           id="path430"
           style="fill:#000000;fill-opacity:1;fill-rule:nonzero;stroke:#000000;stroke-width:1;stroke-linecap:butt;stroke-linejoin:round;stroke-miterlimit:1;stroke-opacity:1;stroke-dasharray:none" /></g></g></g></svg>