<?xml version="1.0" encoding="UTF-8" standalone="no"?>
<!-- Created with Inkscape (http://www.inkscape.org/) -->

<svg
   xmlns:dc="http://purl.org/dc/elements/1.1/"
   xmlns:cc="http://creativecommons.org/ns#"
   xmlns:rdf="http://www.w3.org/1999/02/22-rdf-syntax-ns#"
   xmlns:svg="http://www.w3.org/2000/svg"
   xmlns="http://www.w3.org/2000/svg"
   xmlns:sodipodi="http://sodipodi.sourceforge.net/DTD/sodipodi-0.dtd"
   xmlns:inkscape="http://www.inkscape.org/namespaces/inkscape"
   id="svg2"
   version="1.1"
   inkscape:version="0.48.2 r9819"
   width="1186.25"
   height="1257.5"
   xml:space="preserve"
   sodipodi:docname="s390_mainfram_achritecture_support_031.svg"><metadata
     id="metadata8"><rdf:RDF><cc:Work
         rdf:about=""><dc:format>image/svg+xml</dc:format><dc:type
           rdf:resource="http://purl.org/dc/dcmitype/StillImage" /><dc:title /></cc:Work></rdf:RDF></metadata><defs
     id="defs6" /><sodipodi:namedview
     pagecolor="#ffffff"
     bordercolor="#666666"
     borderopacity="1"
     objecttolerance="10"
     gridtolerance="10"
     guidetolerance="10"
     inkscape:pageopacity="0"
     inkscape:pageshadow="2"
     inkscape:window-width="1680"
     inkscape:window-height="1002"
     id="namedview4"
     showgrid="false"
     inkscape:zoom="0.53082211"
     inkscape:cx="593.125"
     inkscape:cy="628.75"
     inkscape:window-x="0"
     inkscape:window-y="0"
     inkscape:window-maximized="1"
     inkscape:current-layer="layer1" /><g
     inkscape:groupmode="layer"
     id="layer1"
     inkscape:label="Layer"><rect
       style="fill:#ffffff"
       id="rect3124"
       width="1177.4189"
       height="1247.1221"
       x="7.535481"
       y="6.6101303"
       ry="53.055481" /></g><g
     id="g10"
     inkscape:groupmode="layer"
     inkscape:label="s390 mainfram_achritecture_support_031"
     transform="matrix(1.25,0,0,-1.25,0,1257.5)"><g
       id="g12" /><g
       id="g14"><g
         id="g16"
         transform="translate(40,41)"><text
   transform="matrix(1,0,0,-1,8,10)"
   id="text18"><tspan
     style="fill:#000000;fill-opacity:1;fill-rule:nonzero;stroke:none;font-family:Times;font-variant:normal;font-weight:normal;font-size:30;writing-mode:lr;-inkscape-font-specification:Times-Roman"
     x="0 16.686 31.686 40.02 55.02 62.52 84.186 92.52 105.834 117.51 129.186 136.686 156.696 171.696 195.03 218.364 233.364 248.364 256.698 265.032 280.032 287.532 302.532 317.532 325.032 345.042 360.042 383.376 406.71 421.71 436.71 445.044 453.378 468.378 475.878 497.544 512.544 525.858 534.192 542.526 550.86 565.86 573.36 590.28 605.28 620.28 627.78 642.78 657.78 672.78 687.78 702.78 717.78 732.78 747.78 762.78 777.78 792.78 807.78 822.78 837.78"
     y="0"
     sodipodi:role="line"
     id="tspan20">Spin Glass Community 31 Community Quality = 0.486910994764398</tspan></text>

</g><g
         id="g22"
         transform="translate(40,41)"><path
           d="m 355.6949,414.5163 -96.8123,0 0,-36 96.8123,0 0,36 z"
           style="fill:#bababa;fill-opacity:1;fill-rule:nonzero;stroke:#000000;stroke-opacity:1;stroke-width:3.078041;stroke-linecap:butt;stroke-linejoin:round;stroke-miterlimit:1;stroke-dasharray:none"
           id="path24" /></g><g
         id="g26"
         transform="translate(40,41)"><text
   transform="matrix(1,0,0,-1,267.0861,390.5163)"
   id="text28"><tspan
     style="fill:#000000;fill-opacity:1;fill-rule:nonzero;stroke:none;font-family:Times;font-variant:normal;font-weight:normal;font-size:15;writing-mode:lr;-inkscape-font-specification:Times-Roman"
     x="0 8.343 15 22.5 29.157 34.995 39.162 43.329 49.986 57.486 61.236 72.069 76.236"
     y="0"
     sodipodi:role="line"
     id="tspan30">Sebastian Ott</tspan></text>

</g><g
         id="g32"
         transform="translate(40,41)"><path
           d="m 742.2962,139.5868 -120.0789,0 0,-36 120.0789,0 0,36 z"
           style="fill:#e5e5e5;fill-opacity:1;fill-rule:nonzero;stroke:#000000;stroke-opacity:1;stroke-width:1.459382;stroke-linecap:butt;stroke-linejoin:round;stroke-miterlimit:1;stroke-dasharray:none"
           id="path34" /></g><g
         id="g36"
         transform="translate(40,41)"><text
   transform="matrix(1,0,0,-1,629.9875,115.5868)"
   id="text38"><tspan
     style="fill:#000000;fill-opacity:1;fill-rule:nonzero;stroke:none;font-family:Times;font-variant:normal;font-weight:normal;font-size:15;writing-mode:lr;-inkscape-font-specification:Times-Roman"
     x="0 8.343 12.51 19.167 24.162 30.819 38.319 42.069 52.902 59.559 67.059 73.716 78.711 82.878 89.535 97.035"
     y="0"
     sodipodi:role="line"
     id="tspan40">Stefan Haberland</tspan></text>

</g><g
         id="g42"
         transform="translate(40,41)"><path
           d="m 535.4872,409.2757 -171.9944,0 0,-36 171.9944,0 0,36 z"
           style="fill:#bfbfbf;fill-opacity:1;fill-rule:nonzero;stroke:#000000;stroke-opacity:1;stroke-width:2.187484;stroke-linecap:butt;stroke-linejoin:round;stroke-miterlimit:1;stroke-dasharray:none"
           id="path44" /></g><g
         id="g46"
         transform="translate(40,41)"><text
   transform="matrix(1,0,0,-1,371.4914,383.6078)"
   id="text48"><tspan
     style="fill:#000000;fill-opacity:1;fill-rule:nonzero;stroke:none;font-family:Times;font-variant:normal;font-weight:normal;font-size:19.1697;writing-mode:lr;-inkscape-font-specification:Times-Roman"
     x="0 17.04569724 25.5532101 31.9367202 37.26206286 42.58740552 52.17225552 56.96468052 67.62686766 76.13438052 85.71923052 99.56358786 104.88893052 114.47378052 122.98129338 129.36480348 136.82565072 146.41050072"
     y="0"
     sodipodi:role="line"
     id="tspan50">Martin Schwidefsky</tspan></text>

</g><g
         id="g52"
         transform="translate(40,41)"><path
           d="m 363.4905,394.4451 c -0.0841,0.003 -0.1682,0.006 -0.2522,0.009"
           style="fill:none;stroke:#000000;stroke-opacity:1;stroke-width:6.324555;stroke-linecap:butt;stroke-linejoin:round;stroke-miterlimit:1;stroke-dasharray:none"
           id="path54" /></g><g
         id="g56"
         transform="translate(40,41)"><path
           d="m 365.314,388.84 -9.7894,5.8986 10.1971,5.1619 -0.4077,-11.0605 z"
           style="fill:#000000;fill-opacity:1;fill-rule:nonzero;stroke:#000000;stroke-opacity:1;stroke-width:1;stroke-linecap:butt;stroke-linejoin:round;stroke-miterlimit:1;stroke-dasharray:none"
           id="path58" /></g><g
         id="g60"
         transform="translate(40,41)"><path
           d="M 465.1239,373.1619 C 505.4572,326.4309 613.1343,201.6737 659.9754,147.4024"
           style="fill:none;stroke:#000000;stroke-opacity:1;stroke-width:1.414214;stroke-linecap:butt;stroke-linejoin:round;stroke-miterlimit:1;stroke-dasharray:none"
           id="path62" /></g><g
         id="g64"
         transform="translate(40,41)"><path
           d="m 662.8066,149.4789 3.8843,-9.8571 -9.1835,5.2834 5.2992,4.5737 z"
           style="fill:#000000;fill-opacity:1;fill-rule:nonzero;stroke:#000000;stroke-opacity:1;stroke-width:1;stroke-linecap:butt;stroke-linejoin:round;stroke-miterlimit:1;stroke-dasharray:none"
           id="path66" /></g><g
         id="g68"
         transform="translate(40,41)"><path
           d="m 703.1742,590.8546 -109.4275,0 0,-36 109.4275,0 0,36 z"
           style="fill:#b5b5b5;fill-opacity:1;fill-rule:nonzero;stroke:#000000;stroke-opacity:1;stroke-width:2.187484;stroke-linecap:butt;stroke-linejoin:round;stroke-miterlimit:1;stroke-dasharray:none"
           id="path70" /></g><g
         id="g72"
         transform="translate(40,41)"><text
   transform="matrix(1,0,0,-1,601.6037,566.8546)"
   id="text74"><tspan
     style="fill:#000000;fill-opacity:1;fill-rule:nonzero;stroke:none;font-family:Times;font-variant:normal;font-weight:normal;font-size:15;writing-mode:lr;-inkscape-font-specification:Times-Roman"
     x="0 10.833 18.333 22.5 30 36.657 41.652 45.402 56.235 62.892 70.392 77.892 82.059 88.716"
     y="0"
     sodipodi:role="line"
     id="tspan76">Holger Dengler</tspan></text>

</g><g
         id="g78"
         transform="translate(40,41)"><path
           d="m 469.2955,409.35 c 35.8294,32.6977 111.4514,101.7097 152.047,138.757"
           style="fill:none;stroke:#000000;stroke-opacity:1;stroke-width:3.162278;stroke-linecap:butt;stroke-linejoin:round;stroke-miterlimit:1;stroke-dasharray:none"
           id="path80" /></g><g
         id="g82"
         transform="translate(40,41)"><path
           d="m 618.9892,550.6978 9.7459,4.1556 -5.0273,-9.3262 -4.7186,5.1706 z"
           style="fill:#000000;fill-opacity:1;fill-rule:nonzero;stroke:#000000;stroke-opacity:1;stroke-width:1;stroke-linecap:butt;stroke-linejoin:round;stroke-miterlimit:1;stroke-dasharray:none"
           id="path84" /></g><g
         id="g86"
         transform="translate(40,41)"><path
           d="m 135.5658,375.8299 -119.42259,0 0,-36 119.42259,0 0,36 z"
           style="fill:#e8e8e8;fill-opacity:1;fill-rule:nonzero;stroke:#000000;stroke-opacity:1;stroke-width:1.459382;stroke-linecap:butt;stroke-linejoin:round;stroke-miterlimit:1;stroke-dasharray:none"
           id="path88" /></g><g
         id="g90"
         transform="translate(40,41)"><text
   transform="matrix(1,0,0,-1,23.99903,351.8299)"
   id="text92"><tspan
     style="fill:#000000;fill-opacity:1;fill-rule:nonzero;stroke:none;font-family:Times;font-variant:normal;font-weight:normal;font-size:15;writing-mode:lr;-inkscape-font-specification:Times-Roman"
     x="0 13.338 17.505 24.162 31.662 38.319 44.976 49.143 52.893 63.726 71.226 75.393 82.05 89.55 96.207"
     y="0"
     sodipodi:role="line"
     id="tspan94">Michael Holzheu</tspan></text>

</g><g
         id="g96"
         transform="translate(40,41)"><path
           d="m 363.0152,375.8472 c -1.4512,-0.1843 -2.8933,-0.3615 -4.3238,-0.5309 -72.3594,-8.5686 -155.662,-13.0755 -213.0258,-15.3524"
           style="fill:none;stroke:#000000;stroke-opacity:1;stroke-width:1.414214;stroke-linecap:butt;stroke-linejoin:round;stroke-miterlimit:1;stroke-dasharray:none"
           id="path98" /></g><g
         id="g100"
         transform="translate(40,41)"><path
           d="m 145.7487,356.4646 -10.1272,3.1128 9.8581,3.882 0.2691,-6.9948 z"
           style="fill:#000000;fill-opacity:1;fill-rule:nonzero;stroke:#000000;stroke-opacity:1;stroke-width:1;stroke-linecap:butt;stroke-linejoin:round;stroke-miterlimit:1;stroke-dasharray:none"
           id="path102" /></g><g
         id="g104"
         transform="translate(40,41)"><path
           d="m 768.5785,390.5572 -88.1488,0 0,-36 88.1488,0 0,36 z"
           style="fill:#c4c4c4;fill-opacity:1;fill-rule:nonzero;stroke:#000000;stroke-opacity:1;stroke-width:1.918763;stroke-linecap:butt;stroke-linejoin:round;stroke-miterlimit:1;stroke-dasharray:none"
           id="path106" /></g><g
         id="g108"
         transform="translate(40,41)"><text
   transform="matrix(1,0,0,-1,688.467,366.5556)"
   id="text110"><tspan
     style="fill:#000000;fill-opacity:1;fill-rule:nonzero;stroke:none;font-family:Times;font-variant:normal;font-weight:normal;font-size:15.00389;writing-mode:lr;-inkscape-font-specification:Times-Roman"
     x="0 5.83951399 12.49824037 20.00018537 23.75115787 34.58696723 38.75504787 45.41377425 52.91571925 60.41766425 67.07639063"
     y="0"
     sodipodi:role="line"
     id="tspan112">Jan Glauber</tspan></text>

</g><g
         id="g114"
         transform="translate(40,41)"><path
           d="m 535.7516,385.4044 c 43.9162,-2.9891 95.9702,-6.5321 134.279,-9.1395"
           style="fill:none;stroke:#000000;stroke-opacity:1;stroke-width:2.44949;stroke-linecap:butt;stroke-linejoin:round;stroke-miterlimit:1;stroke-dasharray:none"
           id="path116" /></g><g
         id="g118"
         transform="translate(40,41)"><path
           d="m 670.7138,379.7266 9.7392,-4.1711 -10.2146,-2.8128 0.4754,6.9839 z"
           style="fill:#000000;fill-opacity:1;fill-rule:nonzero;stroke:#000000;stroke-opacity:1;stroke-width:1;stroke-linecap:butt;stroke-linejoin:round;stroke-miterlimit:1;stroke-dasharray:none"
           id="path120" /></g><g
         id="g122"
         transform="translate(40,41)"><path
           d="m 573.7649,79.66804 -123.7433,0 0,-36 123.7433,0 0,36 z"
           style="fill:#c7c7c7;fill-opacity:1;fill-rule:nonzero;stroke:#000000;stroke-opacity:1;stroke-width:1.459382;stroke-linecap:butt;stroke-linejoin:round;stroke-miterlimit:1;stroke-dasharray:none"
           id="path124" /></g><g
         id="g126"
         transform="translate(40,41)"><text
   transform="matrix(1,0,0,-1,457.9574,55.63318)"
   id="text128"><tspan
     style="fill:#000000;fill-opacity:1;fill-rule:nonzero;stroke:none;font-family:Times;font-variant:normal;font-weight:normal;font-size:15.08714;writing-mode:lr;-inkscape-font-specification:Times-Roman"
     x="0 8.39146727 12.58267476 19.27834749 24.30236511 30.99803784 38.54160784 42.04785918 55.08767428 61.78334701 65.97455451 73.51812451 81.06169451 88.60526451 96.14883451 102.84450724"
     y="0"
     sodipodi:role="line"
     id="tspan130">Stefan Weinhuber</tspan></text>

</g><g
         id="g132"
         transform="translate(40,41)"><path
           d="M 452.934,373.0851 C 463.2689,318.4968 494.0715,155.8008 506.5525,89.87728"
           style="fill:none;stroke:#000000;stroke-opacity:1;stroke-width:1.414214;stroke-linecap:butt;stroke-linejoin:round;stroke-miterlimit:1;stroke-dasharray:none"
           id="path134" /></g><g
         id="g136"
         transform="translate(40,41)"><path
           d="m 510.0385,90.27902 -1.5786,-10.47656 -5.2992,9.17436 6.8778,1.3022 z"
           style="fill:#000000;fill-opacity:1;fill-rule:nonzero;stroke:#000000;stroke-opacity:1;stroke-width:1;stroke-linecap:butt;stroke-linejoin:round;stroke-miterlimit:1;stroke-dasharray:none"
           id="path138" /></g><g
         id="g140"
         transform="translate(40,41)"><path
           d="m 264.9553,642.0628 -131.7433,0 0,-36 131.7433,0 0,36 z"
           style="fill:#e8e8e8;fill-opacity:1;fill-rule:nonzero;stroke:#000000;stroke-opacity:1;stroke-width:1.728103;stroke-linecap:butt;stroke-linejoin:round;stroke-miterlimit:1;stroke-dasharray:none"
           id="path142" /></g><g
         id="g144"
         transform="translate(40,41)"><text
   transform="matrix(1,0,0,-1,141.3981,618.0628)"
   id="text146"><tspan
     style="fill:#000000;fill-opacity:1;fill-rule:nonzero;stroke:none;font-family:Times;font-variant:normal;font-weight:normal;font-size:15;writing-mode:lr;-inkscape-font-specification:Times-Roman"
     x="0 10.833 17.49 24.99 32.49 37.485 41.652 49.152 52.902 62.907 67.902 75.402 82.059 88.716 96.216 103.716 110.373"
     y="0"
     sodipodi:role="line"
     id="tspan148">Hendrik Brueckner</tspan></text>

</g><g
         id="g150"
         transform="translate(40,41)"><path
           d="M 429.841,409.5421 C 385.317,450.9334 276.6813,551.9251 225.9757,599.0629"
           style="fill:none;stroke:#000000;stroke-opacity:1;stroke-width:1.414214;stroke-linecap:butt;stroke-linejoin:round;stroke-miterlimit:1;stroke-dasharray:none"
           id="path152" /></g><g
         id="g154"
         transform="translate(40,41)"><path
           d="m 223.5824,596.5091 -4.9411,9.3722 9.7072,-4.2454 -4.7661,-5.1268 z"
           style="fill:#000000;fill-opacity:1;fill-rule:nonzero;stroke:#000000;stroke-opacity:1;stroke-width:1;stroke-linecap:butt;stroke-linejoin:round;stroke-miterlimit:1;stroke-dasharray:none"
           id="path156" /></g><g
         id="g158"
         transform="translate(40,41)"><path
           d="m 424.6451,657.3537 -111.5983,0 0,-36 111.5983,0 0,36 z"
           style="fill:#ffffff;fill-opacity:1;fill-rule:nonzero;stroke:#000000;stroke-opacity:1;stroke-width:1;stroke-linecap:butt;stroke-linejoin:round;stroke-miterlimit:1;stroke-dasharray:none"
           id="path160" /></g><g
         id="g162"
         transform="translate(40,41)"><text
   transform="matrix(1,0,0,-1,321.1965,633.2531)"
   id="text164"><tspan
     style="fill:#000000;fill-opacity:1;fill-rule:nonzero;stroke:none;font-family:Times;font-variant:normal;font-weight:normal;font-size:15.25138;writing-mode:lr;-inkscape-font-specification:Times-Roman"
     x="0 8.48281756 13.5615271 20.33008954 27.95577954 35.58146954 39.39431454 49.566985 53.80381836 60.57238081 66.5082179 73.27678035 80.90247035 88.52816035"
     y="0"
     sodipodi:role="line"
     id="tspan166">Frank Blaschka</tspan></text>

</g><g
         id="g168"
         transform="translate(40,41)"><path
           d="M 364.2191,621.1014 C 353.5427,578.9837 327.1268,474.7753 314.3859,424.5138"
           style="fill:none;stroke:#000000;stroke-opacity:1;stroke-width:2;stroke-linecap:butt;stroke-linejoin:round;stroke-miterlimit:1;stroke-dasharray:none"
           id="path170" /></g><g
         id="g172"
         transform="translate(40,41)"><path
           d="m 317.7353,423.4825 -5.85,-8.8334 -0.9354,10.5535 6.7854,-1.7201 z"
           style="fill:#000000;fill-opacity:1;fill-rule:nonzero;stroke:#000000;stroke-opacity:1;stroke-width:1;stroke-linecap:butt;stroke-linejoin:round;stroke-miterlimit:1;stroke-dasharray:none"
           id="path174" /></g><g
         id="g176"
         transform="translate(40,41)"><path
           d="m 278.0024,800.9966 -96.9789,0 0,-36 96.9789,0 0,36 z"
           style="fill:#f5f5f5;fill-opacity:1;fill-rule:nonzero;stroke:#000000;stroke-opacity:1;stroke-width:1.459382;stroke-linecap:butt;stroke-linejoin:round;stroke-miterlimit:1;stroke-dasharray:none"
           id="path178" /></g><g
         id="g180"
         transform="translate(40,41)"><text
   transform="matrix(1,0,0,-1,189.0183,776.9524)"
   id="text182"><tspan
     style="fill:#000000;fill-opacity:1;fill-rule:nonzero;stroke:none;font-family:Times;font-variant:normal;font-weight:normal;font-size:15.11036;writing-mode:lr;-inkscape-font-specification:Times-Roman"
     x="0 10.91270199 15.94445187 21.82540398 29.38058398 33.57824199 40.28421976 44.06180976 54.14041988 59.17216976 65.87814753 73.43332753"
     y="0"
     sodipodi:role="line"
     id="tspan184">Ursula Braun</tspan></text>

</g><g
         id="g186"
         transform="translate(40,41)"><path
           d="m 351.1993,657.5461 c -24.6027,25.3638 -69.3152,71.4594 -97.1513,100.1565"
           style="fill:none;stroke:#000000;stroke-opacity:1;stroke-width:1.414214;stroke-linecap:butt;stroke-linejoin:round;stroke-miterlimit:1;stroke-dasharray:none"
           id="path188" /></g><g
         id="g190"
         transform="translate(40,41)"><path
           d="m 251.4666,755.337 -4.4503,9.6148 9.4749,-4.741 -5.0246,-4.8738 z"
           style="fill:#000000;fill-opacity:1;fill-rule:nonzero;stroke:#000000;stroke-opacity:1;stroke-width:1;stroke-linecap:butt;stroke-linejoin:round;stroke-miterlimit:1;stroke-dasharray:none"
           id="path192" /></g><g
         id="g194"
         transform="translate(40,41)"><path
           d="m 500.3348,926.4451 -92.4762,0 0,-36 92.4762,0 0,36 z"
           style="fill:#d9d9d9;fill-opacity:1;fill-rule:nonzero;stroke:#000000;stroke-opacity:1;stroke-width:1.728103;stroke-linecap:butt;stroke-linejoin:round;stroke-miterlimit:1;stroke-dasharray:none"
           id="path196" /></g><g
         id="g198"
         transform="translate(40,41)"><text
   transform="matrix(1,0,0,-1,415.9778,902.4451)"
   id="text200"><tspan
     style="fill:#000000;fill-opacity:1;fill-rule:nonzero;stroke:none;font-family:Times;font-variant:normal;font-weight:normal;font-size:15;writing-mode:lr;-inkscape-font-specification:Times-Roman"
     x="0 8.343 12.51 19.167 24.162 30.819 38.319 42.069 52.074 58.731 64.569 72.069"
     y="0"
     sodipodi:role="line"
     id="tspan202">Stefan Raspl</tspan></text>

</g><g
         id="g204"
         transform="translate(40,41)"><path
           d="m 374.5719,657.4274 c 14.5549,45.9423 53.0551,167.4667 70.5938,222.827"
           style="fill:none;stroke:#000000;stroke-opacity:1;stroke-width:2;stroke-linecap:butt;stroke-linejoin:round;stroke-miterlimit:1;stroke-dasharray:none"
           id="path206" /></g><g
         id="g208"
         transform="translate(40,41)"><path
           d="m 441.9267,881.6198 6.3568,8.476 0.3163,-10.5901 -6.6731,2.1141 z"
           style="fill:#000000;fill-opacity:1;fill-rule:nonzero;stroke:#000000;stroke-opacity:1;stroke-width:1;stroke-linecap:butt;stroke-linejoin:round;stroke-miterlimit:1;stroke-dasharray:none"
           id="path210" /></g><g
         id="g212"
         transform="translate(40,41)"><path
           d="m 312.7889,634.3045 c -12.1167,-1.0914 -25.1228,-2.2629 -37.8546,-3.4097"
           style="fill:none;stroke:#000000;stroke-opacity:1;stroke-width:1.414214;stroke-linecap:butt;stroke-linejoin:round;stroke-miterlimit:1;stroke-dasharray:none"
           id="path214" /></g><g
         id="g216"
         transform="translate(40,41)"><path
           d="m 275.0782,627.3937 -10.2737,2.5887 9.6457,4.3831 0.628,-6.9718 z"
           style="fill:#000000;fill-opacity:1;fill-rule:nonzero;stroke:#000000;stroke-opacity:1;stroke-width:1;stroke-linecap:butt;stroke-linejoin:round;stroke-miterlimit:1;stroke-dasharray:none"
           id="path218" /></g><g
         id="g220"
         transform="translate(40,41)"><path
           d="m 274.1638,176.6913 -130.4107,0 0,-36 130.4107,0 0,36 z"
           style="fill:#ffffff;fill-opacity:1;fill-rule:nonzero;stroke:#000000;stroke-opacity:1;stroke-width:1;stroke-linecap:butt;stroke-linejoin:round;stroke-miterlimit:1;stroke-dasharray:none"
           id="path222" /></g><g
         id="g224"
         transform="translate(40,41)"><text
   transform="matrix(1,0,0,-1,151.6059,152.6817)"
   id="text226"><tspan
     style="fill:#000000;fill-opacity:1;fill-rule:nonzero;stroke:none;font-family:Times;font-variant:normal;font-weight:normal;font-size:15.02404;writing-mode:lr;-inkscape-font-specification:Times-Roman"
     x="0 8.35637105 15.02404 19.19771831 25.86538726 30.86839258 34.62440258 45.47476427 52.98678427 59.65445322 64.65745854 72.16947854 78.8371475 83.84015282 88.01383113 94.68150008 98.85517839 103.0288567 109.69652566"
     y="0"
     sodipodi:role="line"
     id="tspan228">Peter Oberparleiter</tspan></text>

</g><g
         id="g230"
         transform="translate(40,41)"><path
           d="m 216.511,176.9581 c 17.1657,41.5174 59.1903,143.1597 79.468,192.204"
           style="fill:none;stroke:#000000;stroke-opacity:1;stroke-width:2.828427;stroke-linecap:butt;stroke-linejoin:round;stroke-miterlimit:1;stroke-dasharray:none"
           id="path232" /></g><g
         id="g234"
         transform="translate(40,41)"><path
           d="m 292.7897,370.6088 7.0554,7.904 -0.5865,-10.5786 -6.4689,2.6746 z"
           style="fill:#000000;fill-opacity:1;fill-rule:nonzero;stroke:#000000;stroke-opacity:1;stroke-width:1;stroke-linecap:butt;stroke-linejoin:round;stroke-miterlimit:1;stroke-dasharray:none"
           id="path236" /></g><g
         id="g238"
         transform="translate(40,41)"><path
           d="m 235.2898,764.8953 c 8.1869,-26.173 23.219,-76.2114 32.6794,-119.6325 17.2334,-79.0972 30.1067,-173.9006 35.912,-220.3138"
           style="fill:none;stroke:#000000;stroke-opacity:1;stroke-width:1.414214;stroke-linecap:butt;stroke-linejoin:round;stroke-miterlimit:1;stroke-dasharray:none"
           id="path240" /></g><g
         id="g242"
         transform="translate(40,41)"><path
           d="m 307.3883,425.1059 -2.2486,-10.3535 -4.6987,9.496 6.9473,0.8575 z"
           style="fill:#000000;fill-opacity:1;fill-rule:nonzero;stroke:#000000;stroke-opacity:1;stroke-width:1;stroke-linecap:butt;stroke-linejoin:round;stroke-miterlimit:1;stroke-dasharray:none"
           id="path244" /></g><g
         id="g246"
         transform="translate(40,41)"><path
           d="m 262.1694,801.2379 c 39.8656,22.2682 107.3203,59.9473 150.7188,84.1889"
           style="fill:none;stroke:#000000;stroke-opacity:1;stroke-width:2;stroke-linecap:butt;stroke-linejoin:round;stroke-miterlimit:1;stroke-dasharray:none"
           id="path248" /></g><g
         id="g250"
         transform="translate(40,41)"><path
           d="m 411.3281,888.5643 10.4372,1.8211 -7.0235,-7.9323 -3.4137,6.1112 z"
           style="fill:#000000;fill-opacity:1;fill-rule:nonzero;stroke:#000000;stroke-opacity:1;stroke-width:1;stroke-linecap:butt;stroke-linejoin:round;stroke-miterlimit:1;stroke-dasharray:none"
           id="path252" /></g><g
         id="g254"
         transform="translate(40,41)"><path
           d="M 226.0224,764.7649 C 220.7488,737.2208 210.7071,684.7725 204.4849,652.2737"
           style="fill:none;stroke:#000000;stroke-opacity:1;stroke-width:1.414214;stroke-linecap:butt;stroke-linejoin:round;stroke-miterlimit:1;stroke-dasharray:none"
           id="path256" /></g><g
         id="g258"
         transform="translate(40,41)"><path
           d="m 207.8517,651.2453 -5.3181,-9.1634 -1.5571,10.4798 6.8752,-1.3164 z"
           style="fill:#000000;fill-opacity:1;fill-rule:nonzero;stroke:#000000;stroke-opacity:1;stroke-width:1;stroke-linecap:butt;stroke-linejoin:round;stroke-miterlimit:1;stroke-dasharray:none"
           id="path260" /></g><g
         id="g262"
         transform="translate(40,41)"><path
           d="m 563.4702,79.80824 c 18.264,6.42365 38.9827,13.71064 57.9447,20.37976"
           style="fill:none;stroke:#000000;stroke-opacity:1;stroke-width:1.414214;stroke-linecap:butt;stroke-linejoin:round;stroke-miterlimit:1;stroke-dasharray:none"
           id="path264" /></g><g
         id="g266"
         transform="translate(40,41)"><path
           d="m 620.2602,103.492 10.5949,0.0162 -8.2723,-6.61965 -2.3226,6.60345 z"
           style="fill:#000000;fill-opacity:1;fill-rule:nonzero;stroke:#000000;stroke-opacity:1;stroke-width:1;stroke-linecap:butt;stroke-linejoin:round;stroke-miterlimit:1;stroke-dasharray:none"
           id="path268" /></g><g
         id="g270"
         transform="translate(40,41)"><path
           d="m 852.5371,718.5952 -120.8594,0 0,-36 120.8594,0 0,36 z"
           style="fill:#ffffff;fill-opacity:1;fill-rule:nonzero;stroke:#000000;stroke-opacity:1;stroke-width:1;stroke-linecap:butt;stroke-linejoin:round;stroke-miterlimit:1;stroke-dasharray:none"
           id="path272" /></g><g
         id="g274"
         transform="translate(40,41)"><text
   transform="matrix(1,0,0,-1,739.6426,694.5752)"
   id="text276"><tspan
     style="fill:#000000;fill-opacity:1;fill-rule:nonzero;stroke:none;font-family:Times;font-variant:normal;font-weight:normal;font-size:15.0498;writing-mode:lr;-inkscape-font-specification:Times-Roman"
     x="0 5.0115834 12.5364834 20.0613834 27.5862834 31.08385692 39.75555168 47.28045168 53.95955292 61.48445292 67.34183508 74.02093632 81.54583632 88.22493756 93.23652096 99.9156222"
     y="0"
     sodipodi:role="line"
     id="tspan278">Ingo Tuchscherer</tspan></text>

</g><g
         id="g280"
         transform="translate(40,41)"><path
           d="M 771.831,682.564 C 746.9479,660.4363 704.6186,622.7942 676.5967,597.8753"
           style="fill:none;stroke:#000000;stroke-opacity:1;stroke-width:2;stroke-linecap:butt;stroke-linejoin:round;stroke-miterlimit:1;stroke-dasharray:none"
           id="path282" /></g><g
         id="g284"
         transform="translate(40,41)"><path
           d="m 678.8974,595.2375 -9.7985,-4.0298 5.1468,9.2607 4.6517,-5.2309 z"
           style="fill:#000000;fill-opacity:1;fill-rule:nonzero;stroke:#000000;stroke-opacity:1;stroke-width:1;stroke-linecap:butt;stroke-linejoin:round;stroke-miterlimit:1;stroke-dasharray:none"
           id="path286" /></g></g><rect
       style="fill:#ffffff"
       id="rect3263"
       width="1086.9932"
       height="45.212887"
       x="54.63224"
       y="1163.3065"
       transform="matrix(0.8,0,0,-0.8,0,1006)" /></g></svg>