<?xml version="1.0" encoding="UTF-8" standalone="no"?>
<!-- Created with Inkscape (http://www.inkscape.org/) -->

<svg
   xmlns:dc="http://purl.org/dc/elements/1.1/"
   xmlns:cc="http://creativecommons.org/ns#"
   xmlns:rdf="http://www.w3.org/1999/02/22-rdf-syntax-ns#"
   xmlns:svg="http://www.w3.org/2000/svg"
   xmlns="http://www.w3.org/2000/svg"
   xmlns:sodipodi="http://sodipodi.sourceforge.net/DTD/sodipodi-0.dtd"
   xmlns:inkscape="http://www.inkscape.org/namespaces/inkscape"
   version="1.1"
   width="1556.25"
   height="1498.75"
   id="svg2"
   xml:space="preserve"
   inkscape:version="0.48.2 r9819"
   sodipodi:docname="kvm_community.svg"><sodipodi:namedview
     pagecolor="#ffffff"
     bordercolor="#666666"
     borderopacity="1"
     objecttolerance="10"
     gridtolerance="10"
     guidetolerance="10"
     inkscape:pageopacity="0"
     inkscape:pageshadow="2"
     inkscape:window-width="1680"
     inkscape:window-height="1002"
     id="namedview152"
     showgrid="false"
     inkscape:zoom="0.44537701"
     inkscape:cx="778.125"
     inkscape:cy="749.375"
     inkscape:window-x="0"
     inkscape:window-y="0"
     inkscape:window-maximized="1"
     inkscape:current-layer="layer1" /><metadata
     id="metadata8"><rdf:RDF><cc:Work
         rdf:about=""><dc:format>image/svg+xml</dc:format><dc:type
           rdf:resource="http://purl.org/dc/dcmitype/StillImage" /><dc:title /></cc:Work></rdf:RDF></metadata><defs
     id="defs6"><clipPath
       id="clipPath20"><path
         d="m 36,1163 1174,0 0,-1128 -1174,0 0,1128 z"
         id="path22" /></clipPath></defs><g
     inkscape:groupmode="layer"
     id="layer1"
     inkscape:label="Layer"><rect
       style="fill:#ffffff"
       id="rect3130"
       width="1526.7964"
       height="1466.1736"
       x="15.717021"
       y="19.104715"
       ry="53.055481" /></g><g
     transform="matrix(1.25,0,0,-1.25,0,1498.75)"
     id="g10"><g
       id="g12"><path
         d="m 36,1163 1174,0 0,-1128 -1174,0 0,1128 z"
         id="path14"
         style="fill:#ffffff;fill-opacity:1;fill-rule:nonzero;stroke:none" /></g><g
       id="g16"><g
         clip-path="url(#clipPath20)"
         id="g18"><path
   d="m 36,1163 1174,0 0,-1128 -1174,0 0,1128 z"
   id="path24"
   style="fill:none;stroke:#ffffff;stroke-width:1;stroke-linecap:butt;stroke-linejoin:round;stroke-miterlimit:10;stroke-opacity:1;stroke-dasharray:none" /><path
   d="m 649.758,648.387 96,0 0,-36 -96,0 0,36 z"
   id="path26"
   style="fill:#bdbdbd;fill-opacity:1;fill-rule:nonzero;stroke:#000000;stroke-width:3.35629797;stroke-linecap:butt;stroke-linejoin:round;stroke-miterlimit:10;stroke-opacity:1;stroke-dasharray:none" /><text
   transform="matrix(1,0,0,-1,657.75781,625.70312)"
   id="text28"><tspan
     x="0 13.50675 22.499016 27.747562 32.243694 45.750443 50.998989 60.009609 65.258156 70.506699"
     y="0"
     id="tspan30"
     style="font-size:18.3515625px;font-variant:normal;writing-mode:lr-tb;fill:#000000;fill-opacity:1;fill-rule:nonzero;stroke:none;font-family:Nimbus Roman No9 L;-inkscape-font-specification:NimbusRomNo9L-Regu">Avi Kivity</tspan></text>

<path
   d="m 828.781,591.281 101,0 0,-36 -101,0 0,36 z"
   id="path32"
   style="fill:#c2c2c2;fill-opacity:1;fill-rule:nonzero;stroke:#000000;stroke-width:3.01775002;stroke-linecap:butt;stroke-linejoin:round;stroke-miterlimit:10;stroke-opacity:1;stroke-dasharray:none" /><text
   transform="matrix(1,0,0,-1,836.78125,569.76172)"
   id="text34"><tspan
     x="0 10.502919 14.995584 21.75712 29.269938 33.026344 43.499214 50.245724 54.753414 61.499924 69.012741 76.525558"
     y="0"
     id="tspan36"
     style="font-size:15.02563477px;font-variant:normal;writing-mode:lr-tb;fill:#000000;fill-opacity:1;fill-rule:nonzero;stroke:none;font-family:Nimbus Roman No9 L;-inkscape-font-specification:NimbusRomNo9L-Regu">Gleb Natapov</tspan></text>

<path
   d="m 745.926,615.234 c 22.433,-7.058 49.355,-15.527 73.117,-23.004"
   id="path38"
   style="fill:none;stroke:#000000;stroke-width:6;stroke-linecap:butt;stroke-linejoin:round;stroke-miterlimit:10;stroke-opacity:1;stroke-dasharray:none" /><path
   d="m 820.703,597.215 7.961,-8.008 -11.113,-2.008 3.152,10.016 z"
   id="path40"
   style="fill:#000000;fill-opacity:1;fill-rule:nonzero;stroke:#000000;stroke-width:1;stroke-linecap:butt;stroke-linejoin:round;stroke-miterlimit:10;stroke-opacity:1;stroke-dasharray:none" /><path
   d="m 552.055,303.164 133,0 0,-36 -133,0 0,36 z"
   id="path42"
   style="fill:#c9c9c9;fill-opacity:1;fill-rule:nonzero;stroke:#000000;stroke-width:2.8777051;stroke-linecap:butt;stroke-linejoin:round;stroke-miterlimit:10;stroke-opacity:1;stroke-dasharray:none" /><text
   transform="matrix(1,0,0,-1,560.05469,281.65234)"
   id="text44"><tspan
     x="0 9.0074701 15.748061 23.254286 30.760511 38.266739 45.007328 48.760441 59.254143 66.760368 72.750336 80.256561 84.7603 92.266525 99.007111 109.50082"
     y="0"
     id="tspan46"
     style="font-size:15.01245117px;font-variant:normal;writing-mode:lr-tb;fill:#000000;fill-opacity:1;fill-rule:nonzero;stroke:none;font-family:Nimbus Roman No9 L;-inkscape-font-specification:NimbusRomNo9L-Regu">Takuya Yoshikawa</tspan></text>

<path
   d="M 709.574,612.031 C 725.152,585.516 749.297,534.914 737.68,491.551 718.703,420.703 668.879,349 640.031,311.605"
   id="path48"
   style="fill:none;stroke:#000000;stroke-width:2.44949007;stroke-linecap:butt;stroke-linejoin:round;stroke-miterlimit:10;stroke-opacity:1;stroke-dasharray:none" /><path
   d="m 642.445,309.008 -8.918,-5.715 3.407,10.031 5.511,-4.316 z"
   id="path50"
   style="fill:#000000;fill-opacity:1;fill-rule:nonzero;stroke:#000000;stroke-width:1;stroke-linecap:butt;stroke-linejoin:round;stroke-miterlimit:10;stroke-opacity:1;stroke-dasharray:none" /><path
   d="m 864.461,844.543 113,0 0,-36 -113,0 0,36 z"
   id="path52"
   style="fill:#cfcfcf;fill-opacity:1;fill-rule:nonzero;stroke:#000000;stroke-width:2.8777051;stroke-linecap:butt;stroke-linejoin:round;stroke-miterlimit:10;stroke-opacity:1;stroke-dasharray:none" /><text
   transform="matrix(1,0,0,-1,872.46094,823.04297)"
   id="text54"><tspan
     x="0 13.5 20.25 24.75 32.25 36.75 43.5 49.5 53.25 63.75 69 75.75 83.25 89.25"
     y="0"
     id="tspan56"
     style="font-size:15px;font-variant:normal;writing-mode:lr-tb;fill:#000000;fill-opacity:1;fill-rule:nonzero;stroke:none;font-family:Nimbus Roman No9 L;-inkscape-font-specification:NimbusRomNo9L-Regu">Mathias Krause</tspan></text>

<path
   d="m 718.359,648.488 c 40.11,35.254 128.754,113.157 174.329,153.211"
   id="path58"
   style="fill:none;stroke:#000000;stroke-width:4;stroke-linecap:butt;stroke-linejoin:round;stroke-miterlimit:10;stroke-opacity:1;stroke-dasharray:none" /><path
   d="m 890.59,804.512 9.82,3.972 -5.199,-9.23 -4.621,5.258 z"
   id="path60"
   style="fill:#000000;fill-opacity:1;fill-rule:nonzero;stroke:#000000;stroke-width:1;stroke-linecap:butt;stroke-linejoin:round;stroke-miterlimit:10;stroke-opacity:1;stroke-dasharray:none" /><path
   d="m 750.113,1118.109 88,0 0,-36 -88,0 0,36 z"
   id="path62"
   style="fill:#f7f7f7;fill-opacity:1;fill-rule:nonzero;stroke:#000000;stroke-width:1.45938206;stroke-linecap:butt;stroke-linejoin:round;stroke-miterlimit:10;stroke-opacity:1;stroke-dasharray:none" /><text
   transform="matrix(1,0,0,-1,758.11328,1096.6094)"
   id="text64"><tspan
     x="0 6 10.5 18 24 31.5 39 46.5 50.25 59.25 63.75"
     y="0"
     id="tspan66"
     style="font-size:15px;font-variant:normal;writing-mode:lr-tb;fill:#000000;fill-opacity:1;fill-rule:nonzero;stroke:none;font-family:Nimbus Roman No9 L;-inkscape-font-specification:NimbusRomNo9L-Regu">Jinsong Liu</tspan></text>

<path
   d="m 707.203,648.414 c 16.828,33.094 51.664,106.231 66.895,172.324 20.699,89.836 21.718,199.836 20.851,250.86"
   id="path68"
   style="fill:none;stroke:#000000;stroke-width:1.41421402;stroke-linecap:butt;stroke-linejoin:round;stroke-miterlimit:10;stroke-opacity:1;stroke-dasharray:none" /><path
   d="m 791.445,1071.777 3.293,10.071 3.707,-9.926 -7,-0.145 z"
   id="path70"
   style="fill:#000000;fill-opacity:1;fill-rule:nonzero;stroke:#000000;stroke-width:1;stroke-linecap:butt;stroke-linejoin:round;stroke-miterlimit:10;stroke-opacity:1;stroke-dasharray:none" /><path
   d="m 816.961,510.211 124,0 0,-36 -124,0 0,36 z"
   id="path72"
   style="fill:#d1d1d1;fill-opacity:1;fill-rule:nonzero;stroke:#000000;stroke-width:2.18748403;stroke-linecap:butt;stroke-linejoin:round;stroke-miterlimit:10;stroke-opacity:1;stroke-dasharray:none" /><text
   transform="matrix(1,0,0,-1,824.96094,488.64063)"
   id="text74"><tspan
     x="0 9.7453575 16.503748 24.001337 31.498926 38.257317 45.754906 52.498211 60.041058 67.508476 72.758301 79.501602 83.273026 94.511864 98.283287"
     y="0"
     id="tspan76"
     style="font-size:15.08569336px;font-variant:normal;writing-mode:lr-tb;fill:#000000;fill-opacity:1;fill-rule:nonzero;stroke:none;font-family:Nimbus Roman No9 L;-inkscape-font-specification:NimbusRomNo9L-Regu">Raghavendra K T</tspan></text>

<path
   d="m 721.449,612.32 c 32.149,-24.515 89.696,-68.398 125.617,-95.789"
   id="path78"
   style="fill:none;stroke:#000000;stroke-width:2.44949007;stroke-linecap:butt;stroke-linejoin:round;stroke-miterlimit:10;stroke-opacity:1;stroke-dasharray:none" /><path
   d="m 849.438,519.125 5.828,-8.848 -10.075,3.282 4.247,5.566 z"
   id="path80"
   style="fill:#000000;fill-opacity:1;fill-rule:nonzero;stroke:#000000;stroke-width:1;stroke-linecap:butt;stroke-linejoin:round;stroke-miterlimit:10;stroke-opacity:1;stroke-dasharray:none" /><path
   d="m 1091.141,909.516 114,0 0,-36 -114,0 0,36 z"
   id="path82"
   style="fill:#d6d6d6;fill-opacity:1;fill-rule:nonzero;stroke:#000000;stroke-width:1.45938206;stroke-linecap:butt;stroke-linejoin:round;stroke-miterlimit:10;stroke-opacity:1;stroke-dasharray:none" /><text
   transform="matrix(1,0,0,-1,1099.1406,888.01562)"
   id="text84"><tspan
     x="0 9.75 17.25 22.5 27 33 37.5 45 50.25 55.5 62.25 67.5 71.25 81.75 88.5 93"
     y="0"
     id="tspan86"
     style="font-size:15px;font-variant:normal;writing-mode:lr-tb;fill:#000000;fill-opacity:1;fill-rule:nonzero;stroke:none;font-family:Nimbus Roman No9 L;-inkscape-font-specification:NimbusRomNo9L-Regu">Christoffer Dall</tspan></text>

<path
   d="m 729.07,648.539 c 79.848,46.297 290.957,168.695 379.305,219.922"
   id="path88"
   style="fill:none;stroke:#000000;stroke-width:1.41421402;stroke-linecap:butt;stroke-linejoin:round;stroke-miterlimit:10;stroke-opacity:1;stroke-dasharray:none" /><path
   d="m 1106.629,871.492 10.406,1.988 -6.894,-8.042 -3.512,6.054 z"
   id="path90"
   style="fill:#000000;fill-opacity:1;fill-rule:nonzero;stroke:#000000;stroke-width:1;stroke-linecap:butt;stroke-linejoin:round;stroke-miterlimit:10;stroke-opacity:1;stroke-dasharray:none" /><path
   d="m 915.871,667.059 149,0 0,-36 -149,0 0,36 z"
   id="path92"
   style="fill:#f5f5f5;fill-opacity:1;fill-rule:nonzero;stroke:#000000;stroke-width:1.45938206;stroke-linecap:butt;stroke-linejoin:round;stroke-miterlimit:10;stroke-opacity:1;stroke-dasharray:none" /><text
   transform="matrix(1,0,0,-1,923.87109,645.5)"
   id="text94"><tspan
     x="0 9.752388 17.24379 22.504351 26.996176 32.995327 37.502228 42.009125 48.746864 56.283485 60.006577 69.758965 77.250366 82.510925 90.002327 94.509224 99.754715 106.50753 113.26034 120.75174 127.50455"
     y="0"
     id="tspan96"
     style="font-size:15.07324219px;font-variant:normal;writing-mode:lr-tb;fill:#000000;fill-opacity:1;fill-rule:nonzero;stroke:none;font-family:Nimbus Roman No9 L;-inkscape-font-specification:NimbusRomNo9L-Regu">Christian Borntraeger</tspan></text>

<path
   d="m 746.078,633.469 c 43.219,2.758 107.551,6.863 159.348,10.172"
   id="path98"
   style="fill:none;stroke:#000000;stroke-width:1.41421402;stroke-linecap:butt;stroke-linejoin:round;stroke-miterlimit:10;stroke-opacity:1;stroke-dasharray:none" /><path
   d="m 905.406,647.145 10.203,-2.856 -9.757,-4.129 -0.446,6.985 z"
   id="path100"
   style="fill:#000000;fill-opacity:1;fill-rule:nonzero;stroke:#000000;stroke-width:1;stroke-linecap:butt;stroke-linejoin:round;stroke-miterlimit:10;stroke-opacity:1;stroke-dasharray:none" /><path
   d="m 693.055,342.844 133,0 0,-36 -133,0 0,36 z"
   id="path102"
   style="fill:#d4d4d4;fill-opacity:1;fill-rule:nonzero;stroke:#000000;stroke-width:2.52603197;stroke-linecap:butt;stroke-linejoin:round;stroke-miterlimit:10;stroke-opacity:1;stroke-dasharray:none" /><text
   transform="matrix(1,0,0,-1,701.05469,320.79687)"
   id="text104"><tspan
     x="0 14.244472 18.746855 25.508272 33.007015 39.752743 46.498474 51.000854 54.750225 63.754993 67.504364 71.253731 81.011513 87.004227 91.506607 96.730629 104.26075 108.76313"
     y="0"
     id="tspan106"
     style="font-size:15.68774414px;font-variant:normal;writing-mode:lr-tb;fill:#000000;fill-opacity:1;fill-rule:nonzero;stroke:none;font-family:Nimbus Roman No9 L;-inkscape-font-specification:NimbusRomNo9L-Regu">Michael S. Tsirkin</tspan></text>

<path
   d="m 707.211,612.086 c 9.359,-19.004 23.297,-49.859 30.469,-78.137 16.027,-63.199 20.34,-140.004 21.48,-180.664"
   id="path108"
   style="fill:none;stroke:#000000;stroke-width:1.41421402;stroke-linecap:butt;stroke-linejoin:round;stroke-miterlimit:10;stroke-opacity:1;stroke-dasharray:none" /><path
   d="m 762.664,353.133 -3.262,-10.078 -3.734,9.914 6.996,0.164 z"
   id="path110"
   style="fill:#000000;fill-opacity:1;fill-rule:nonzero;stroke:#000000;stroke-width:1;stroke-linecap:butt;stroke-linejoin:round;stroke-miterlimit:10;stroke-opacity:1;stroke-dasharray:none" /><path
   d="m 598.48,530.75 136,0 0,-36 -136,0 0,36 z"
   id="path112"
   style="fill:#d4d4d4;fill-opacity:1;fill-rule:nonzero;stroke:#000000;stroke-width:2.2896471;stroke-linecap:butt;stroke-linejoin:round;stroke-miterlimit:10;stroke-opacity:1;stroke-dasharray:none" /><text
   transform="matrix(1,0,0,-1,606.48047,508.09766)"
   id="text114"><tspan
     x="0 16.497114 24.755142 30.759258 38.998344 47.256374 52.521812 62.257195 66.746078 77.996689 87.751015 95.251419 103.50945 108.77489 114.04033"
     y="0"
     id="tspan116"
     style="font-size:18.94042969px;font-variant:normal;writing-mode:lr-tb;fill:#000000;fill-opacity:1;fill-rule:nonzero;stroke:none;font-family:Nimbus Roman No9 L;-inkscape-font-specification:NimbusRomNo9L-Regu">Marcelo Tosatti</tspan></text>

<path
   d="M 698.016,612.273 C 695.047,593.125 687.316,562.703 680,540.527"
   id="path118"
   style="fill:none;stroke:#000000;stroke-width:2.44949007;stroke-linecap:butt;stroke-linejoin:round;stroke-miterlimit:10;stroke-opacity:1;stroke-dasharray:none" /><path
   d="m 683.277,539.285 -6.586,-8.297 -0.027,10.594 6.613,-2.297 z"
   id="path120"
   style="fill:#000000;fill-opacity:1;fill-rule:nonzero;stroke:#000000;stroke-width:1;stroke-linecap:butt;stroke-linejoin:round;stroke-miterlimit:10;stroke-opacity:1;stroke-dasharray:none" /><path
   d="m 495.605,628.406 124,0 0,-36 -124,0 0,36 z"
   id="path122"
   style="fill:#b8b8b8;fill-opacity:1;fill-rule:nonzero;stroke:#000000;stroke-width:3.64368892;stroke-linecap:butt;stroke-linejoin:round;stroke-miterlimit:10;stroke-opacity:1;stroke-dasharray:none" /><text
   transform="matrix(1,0,0,-1,503.60547,606.1875)"
   id="text124"><tspan
     x="0 11.256785 15.756319 22.497671 30.749466 34.501728 45.758514 54.010311 60.751659 69.003456 77.255249 82.50206 90.753853 99.005653"
     y="0"
     id="tspan126"
     style="font-size:15.89941406px;font-variant:normal;writing-mode:lr-tb;fill:#000000;fill-opacity:1;fill-rule:nonzero;stroke:none;font-family:Nimbus Roman No9 L;-inkscape-font-specification:NimbusRomNo9L-Regu">Xiao Guangrong</tspan></text>

<path
   d="m 649.652,616.992 c -6.293,-1.07 -12.855,-2.101 -19.441,-3.051"
   id="path128"
   style="fill:none;stroke:#000000;stroke-width:7.34846878;stroke-linecap:butt;stroke-linejoin:round;stroke-miterlimit:10;stroke-opacity:1;stroke-dasharray:none" /><path
   d="m 630.652,607.508 -10.789,5.004 9.028,7.738 1.761,-12.742 z"
   id="path130"
   style="fill:#000000;fill-opacity:1;fill-rule:nonzero;stroke:#000000;stroke-width:1;stroke-linecap:butt;stroke-linejoin:round;stroke-miterlimit:10;stroke-opacity:1;stroke-dasharray:none" /><path
   d="m 665.895,859.941 105,0 0,-36 -105,0 0,36 z"
   id="path132"
   style="fill:#c4c4c4;fill-opacity:1;fill-rule:nonzero;stroke:#000000;stroke-width:2.2896471;stroke-linecap:butt;stroke-linejoin:round;stroke-miterlimit:10;stroke-opacity:1;stroke-dasharray:none" /><text
   transform="matrix(1,0,0,-1,673.89453,838.44141)"
   id="text134"><tspan
     x="0 9.75 17.25 22.5 30 36.75 41.25 45.75 52.5 56.25 66.75 74.25 81"
     y="0"
     id="tspan136"
     style="font-size:15px;font-variant:normal;writing-mode:lr-tb;fill:#000000;fill-opacity:1;fill-rule:nonzero;stroke:none;font-family:Nimbus Roman No9 L;-inkscape-font-specification:NimbusRomNo9L-Regu">Cornelia Huck</tspan></text>

<path
   d="m 699.52,648.422 c 3.593,36.832 11.796,120.933 16.109,165.152"
   id="path138"
   style="fill:none;stroke:#000000;stroke-width:2.44949007;stroke-linecap:butt;stroke-linejoin:round;stroke-miterlimit:10;stroke-opacity:1;stroke-dasharray:none" /><path
   d="m 712.156,814.035 4.457,9.613 2.512,-10.293 -6.969,0.68 z"
   id="path140"
   style="fill:#000000;fill-opacity:1;fill-rule:nonzero;stroke:#000000;stroke-width:1;stroke-linecap:butt;stroke-linejoin:round;stroke-miterlimit:10;stroke-opacity:1;stroke-dasharray:none" /><path
   d="m 500.852,962.273 83,0 0,-36 -83,0 0,36 z"
   id="path142"
   style="fill:#d6d6d6;fill-opacity:1;fill-rule:nonzero;stroke:#000000;stroke-width:1.72810304;stroke-linecap:butt;stroke-linejoin:round;stroke-miterlimit:10;stroke-opacity:1;stroke-dasharray:none" /><text
   transform="matrix(1,0,0,-1,508.85156,940.72656)"
   id="text144"><tspan
     x="0 5.9936118 12.755249 20.284912 24.004566 35.253883 39.756622 45.750233 52.496811 60.026474"
     y="0"
     id="tspan146"
     style="font-size:15.05932617px;font-variant:normal;writing-mode:lr-tb;fill:#000000;fill-opacity:1;fill-rule:nonzero;stroke:none;font-family:Nimbus Roman No9 L;-inkscape-font-specification:NimbusRomNo9L-Regu">Jan Kiszka</tspan></text>

<path
   d="M 688.734,648.617 C 662.66,701.277 587.129,853.836 556.004,916.699"
   id="path148"
   style="fill:none;stroke:#000000;stroke-width:2;stroke-linecap:butt;stroke-linejoin:round;stroke-miterlimit:10;stroke-opacity:1;stroke-dasharray:none" /><path
   d="m 552.707,915.477 -1.301,10.511 7.574,-7.406 -6.273,-3.105 z"
   id="path150"
   style="fill:#000000;fill-opacity:1;fill-rule:nonzero;stroke:#000000;stroke-width:1;stroke-linecap:butt;stroke-linejoin:round;stroke-miterlimit:10;stroke-opacity:1;stroke-dasharray:none" /><path
   d="m 457.141,112.223 110,0 0,-36 -110,0 0,36 z"
   id="path152"
   style="fill:#ffffff;fill-opacity:1;fill-rule:nonzero;stroke:#000000;stroke-width:1;stroke-linecap:butt;stroke-linejoin:round;stroke-miterlimit:10;stroke-opacity:1;stroke-dasharray:none" /><text
   transform="matrix(1,0,0,-1,465.14063,90.71875)"
   id="text154"><tspan
     x="0 10.503589 15.755383 22.50769 30.010254 34.496788 38.24807 48.751659 54.003452 61.506016 69.008575 76.511139 80.997673 87.749985"
     y="0"
     id="tspan156"
     style="font-size:15.00512695px;font-variant:normal;writing-mode:lr-tb;fill:#000000;fill-opacity:1;fill-rule:nonzero;stroke:none;font-family:Nimbus Roman No9 L;-inkscape-font-specification:NimbusRomNo9L-Regu">Grant Grundler</tspan></text>

<path
   d="m 522.344,112.531 c 18.828,33.785 59.125,106.086 81.121,145.555"
   id="path158"
   style="fill:none;stroke:#000000;stroke-width:1.41421402;stroke-linecap:butt;stroke-linejoin:round;stroke-miterlimit:10;stroke-opacity:1;stroke-dasharray:none" /><path
   d="m 600.457,259.879 7.926,7.031 -1.813,-10.437 -6.113,3.406 z"
   id="path160"
   style="fill:#000000;fill-opacity:1;fill-rule:nonzero;stroke:#000000;stroke-width:1;stroke-linecap:butt;stroke-linejoin:round;stroke-miterlimit:10;stroke-opacity:1;stroke-dasharray:none" /><path
   d="m 981.02,630.867 c -10.602,-20.012 -28.911,-52.781 -48.04,-78.785 -8.726,-11.863 -19.402,-24.086 -28.949,-34.367"
   id="path162"
   style="fill:none;stroke:#000000;stroke-width:2.44949007;stroke-linecap:butt;stroke-linejoin:round;stroke-miterlimit:10;stroke-opacity:1;stroke-dasharray:none" /><path
   d="m 906.406,515.133 -9.41,-4.867 4.32,9.672 5.09,-4.805 z"
   id="path164"
   style="fill:#000000;fill-opacity:1;fill-rule:nonzero;stroke:#000000;stroke-width:1;stroke-linecap:butt;stroke-linejoin:round;stroke-miterlimit:10;stroke-opacity:1;stroke-dasharray:none" /><path
   d="M 964.781,667.207 C 915.578,702.102 807.762,778.562 752.512,817.746"
   id="path166"
   style="fill:none;stroke:#000000;stroke-width:2.44949007;stroke-linecap:butt;stroke-linejoin:round;stroke-miterlimit:10;stroke-opacity:1;stroke-dasharray:none" /><path
   d="m 750.246,815.062 -6.133,8.641 10.18,-2.93 -4.047,-5.711 z"
   id="path168"
   style="fill:#000000;fill-opacity:1;fill-rule:nonzero;stroke:#000000;stroke-width:1;stroke-linecap:butt;stroke-linejoin:round;stroke-miterlimit:10;stroke-opacity:1;stroke-dasharray:none" /><path
   d="m 761.457,343.059 c 4.371,35.269 17.563,114.339 52.305,170.351 8.246,13.301 20.265,25.469 31.761,35.313"
   id="path170"
   style="fill:none;stroke:#000000;stroke-width:1.41421402;stroke-linecap:butt;stroke-linejoin:round;stroke-miterlimit:10;stroke-opacity:1;stroke-dasharray:none" /><path
   d="m 843.398,551.508 9.946,3.644 -5.504,-9.054 -4.442,5.41 z"
   id="path172"
   style="fill:#000000;fill-opacity:1;fill-rule:nonzero;stroke:#000000;stroke-width:1;stroke-linecap:butt;stroke-linejoin:round;stroke-miterlimit:10;stroke-opacity:1;stroke-dasharray:none" /><path
   d="m 695.246,306.746 c -0.922,-0.258 -1.848,-0.519 -2.769,-0.777"
   id="path174"
   style="fill:none;stroke:#000000;stroke-width:1.41421402;stroke-linecap:butt;stroke-linejoin:round;stroke-miterlimit:10;stroke-opacity:1;stroke-dasharray:none" /><path
   d="m 693.152,302.52 -10.574,0.66 8.68,6.078 1.894,-6.738 z"
   id="path176"
   style="fill:#000000;fill-opacity:1;fill-rule:nonzero;stroke:#000000;stroke-width:1;stroke-linecap:butt;stroke-linejoin:round;stroke-miterlimit:10;stroke-opacity:1;stroke-dasharray:none" /><path
   d="m 666.227,530.863 c 2.964,19.149 10.699,49.567 18.011,71.746"
   id="path178"
   style="fill:none;stroke:#000000;stroke-width:6.78233004;stroke-linecap:butt;stroke-linejoin:round;stroke-miterlimit:10;stroke-opacity:1;stroke-dasharray:none" /><path
   d="m 678.664,604.648 8.887,7.5 2.328,-11.39 -11.215,3.89 z"
   id="path180"
   style="fill:#000000;fill-opacity:1;fill-rule:nonzero;stroke:#000000;stroke-width:1;stroke-linecap:butt;stroke-linejoin:round;stroke-miterlimit:10;stroke-opacity:1;stroke-dasharray:none" /><path
   d="m 730.039,530.828 c 28.031,7.977 60.828,17.305 88.527,25.184"
   id="path182"
   style="fill:none;stroke:#000000;stroke-width:2;stroke-linecap:butt;stroke-linejoin:round;stroke-miterlimit:10;stroke-opacity:1;stroke-dasharray:none" /><path
   d="m 817.945,559.473 10.575,-0.629 -8.661,-6.102 -1.914,6.731 z"
   id="path184"
   style="fill:#000000;fill-opacity:1;fill-rule:nonzero;stroke:#000000;stroke-width:1;stroke-linecap:butt;stroke-linejoin:round;stroke-miterlimit:10;stroke-opacity:1;stroke-dasharray:none" /><path
   d="m 937.965,277.734 113,0 0,-36 -113,0 0,36 z"
   id="path186"
   style="fill:#e3e3e3;fill-opacity:1;fill-rule:nonzero;stroke:#000000;stroke-width:1.45938206;stroke-linecap:butt;stroke-linejoin:round;stroke-miterlimit:10;stroke-opacity:1;stroke-dasharray:none" /><text
   transform="matrix(1,0,0,-1,945.96484,256.18359)"
   id="text188"><tspan
     x="0 11.2526 15.756652 22.505199 30.03706 36.725353 44.257214 51.789074 58.477364 63.749668 67.515594 78.753136 84.010368 90.758919"
     y="0"
     id="tspan190"
     style="font-size:15.0637207px;font-variant:normal;writing-mode:lr-tb;fill:#000000;fill-opacity:1;fill-rule:nonzero;stroke:none;font-family:Nimbus Roman No9 L;-inkscape-font-specification:NimbusRomNo9L-Regu">Alexander Graf</tspan></text>

<path
   d="M 690.07,494.555 C 747.984,449.875 897.227,334.746 962.785,284.176"
   id="path192"
   style="fill:none;stroke:#000000;stroke-width:1.41421402;stroke-linecap:butt;stroke-linejoin:round;stroke-miterlimit:10;stroke-opacity:1;stroke-dasharray:none" /><path
   d="m 965.312,286.645 5.778,-8.879 -10.055,3.336 4.277,5.543 z"
   id="path194"
   style="fill:#000000;fill-opacity:1;fill-rule:nonzero;stroke:#000000;stroke-width:1;stroke-linecap:butt;stroke-linejoin:round;stroke-miterlimit:10;stroke-opacity:1;stroke-dasharray:none" /><path
   d="M 662.641,494.512 C 654.277,454.793 634.371,360.277 624.426,313.035"
   id="path196"
   style="fill:none;stroke:#000000;stroke-width:4.24264097;stroke-linecap:butt;stroke-linejoin:round;stroke-miterlimit:10;stroke-opacity:1;stroke-dasharray:none" /><path
   d="m 628.043,312.195 -5.695,-9.023 -1.571,10.551 7.266,-1.528 z"
   id="path198"
   style="fill:#000000;fill-opacity:1;fill-rule:nonzero;stroke:#000000;stroke-width:1;stroke-linecap:butt;stroke-linejoin:round;stroke-miterlimit:10;stroke-opacity:1;stroke-dasharray:none" /><path
   d="m 734.586,506.168 c 22.945,-2.219 48.629,-4.703 71.898,-6.953"
   id="path200"
   style="fill:none;stroke:#000000;stroke-width:3.16227794;stroke-linecap:butt;stroke-linejoin:round;stroke-miterlimit:10;stroke-opacity:1;stroke-dasharray:none" /><path
   d="m 807.023,502.68 9.618,-4.446 -10.293,-2.523 0.675,6.969 z"
   id="path202"
   style="fill:#000000;fill-opacity:1;fill-rule:nonzero;stroke:#000000;stroke-width:1;stroke-linecap:butt;stroke-linejoin:round;stroke-miterlimit:10;stroke-opacity:1;stroke-dasharray:none" /><path
   d="m 401.496,410.02 77,0 0,-36 -77,0 0,36 z"
   id="path204"
   style="fill:#dbdbdb;fill-opacity:1;fill-rule:nonzero;stroke:#000000;stroke-width:2.37814498;stroke-linecap:butt;stroke-linejoin:round;stroke-miterlimit:10;stroke-opacity:1;stroke-dasharray:none" /><text
   transform="matrix(1,0,0,-1,409.49609,388.51953)"
   id="text206"><tspan
     x="0 10.5 18 25.5 29.25 39 46.5 53.25"
     y="0"
     id="tspan208"
     style="font-size:15px;font-variant:normal;writing-mode:lr-tb;fill:#000000;fill-opacity:1;fill-rule:nonzero;stroke:none;font-family:Nimbus Roman No9 L;-inkscape-font-specification:NimbusRomNo9L-Regu">Guo Chao</tspan></text>

<path
   d="M 632.574,494.676 C 592.598,473.363 526.113,437.922 482.668,414.766"
   id="path210"
   style="fill:none;stroke:#000000;stroke-width:3.74165702;stroke-linecap:butt;stroke-linejoin:round;stroke-miterlimit:10;stroke-opacity:1;stroke-dasharray:none" /><path
   d="m 484.234,411.633 -10.468,-1.613 7.175,7.792 3.293,-6.179 z"
   id="path212"
   style="fill:#000000;fill-opacity:1;fill-rule:nonzero;stroke:#000000;stroke-width:1;stroke-linecap:butt;stroke-linejoin:round;stroke-miterlimit:10;stroke-opacity:1;stroke-dasharray:none" /><path
   d="m 352.434,841.594 105,0 0,-36 -105,0 0,36 z"
   id="path214"
   style="fill:#ededed;fill-opacity:1;fill-rule:nonzero;stroke:#000000;stroke-width:1.45938206;stroke-linecap:butt;stroke-linejoin:round;stroke-miterlimit:10;stroke-opacity:1;stroke-dasharray:none" /><text
   transform="matrix(1,0,0,-1,360.43359,820.09375)"
   id="text216"><tspan
     x="0 8.25 15 19.5 24.75 28.5 42 48.75 53.25 60.75 68.25 74.25 81"
     y="0"
     id="tspan218"
     style="font-size:15px;font-variant:normal;writing-mode:lr-tb;fill:#000000;fill-opacity:1;fill-rule:nonzero;stroke:none;font-family:Nimbus Roman No9 L;-inkscape-font-specification:NimbusRomNo9L-Regu">Petr Matousek</tspan></text>

<path
   d="m 662.754,530.965 c -5.645,24.508 -18.094,68.715 -39.949,100.64 -49.735,72.649 -133,135.52 -180.907,168.149"
   id="path220"
   style="fill:none;stroke:#000000;stroke-width:1.41421402;stroke-linecap:butt;stroke-linejoin:round;stroke-miterlimit:10;stroke-opacity:1;stroke-dasharray:none" /><path
   d="m 439.723,797 -6.34,8.492 10.25,-2.683 -3.91,-5.809 z"
   id="path222"
   style="fill:#000000;fill-opacity:1;fill-rule:nonzero;stroke:#000000;stroke-width:1;stroke-linecap:butt;stroke-linejoin:round;stroke-miterlimit:10;stroke-opacity:1;stroke-dasharray:none" /><path
   d="m 204.621,278.594 102,0 0,-36 -102,0 0,36 z"
   id="path224"
   style="fill:#dedede;fill-opacity:1;fill-rule:nonzero;stroke:#000000;stroke-width:1.45938206;stroke-linecap:butt;stroke-linejoin:round;stroke-miterlimit:10;stroke-opacity:1;stroke-dasharray:none" /><text
   transform="matrix(1,0,0,-1,212.62109,257.09375)"
   id="text226"><tspan
     x="0 8.25 12.75 19.5 24.75 31.5 39 42.75 51 56.25 60.75 65.25 71.25 78"
     y="0"
     id="tspan228"
     style="font-size:15px;font-variant:normal;writing-mode:lr-tb;fill:#000000;fill-opacity:1;fill-rule:nonzero;stroke:none;font-family:Nimbus Roman No9 L;-inkscape-font-specification:NimbusRomNo9L-Regu">Stefan Fritsch</tspan></text>

<path
   d="M 645.871,494.68 C 612.754,466.18 544.98,409.996 481.695,370.816 424.906,335.66 355.27,303.164 308.41,282.703"
   id="path230"
   style="fill:none;stroke:#000000;stroke-width:1.41421402;stroke-linecap:butt;stroke-linejoin:round;stroke-miterlimit:10;stroke-opacity:1;stroke-dasharray:none" /><path
   d="m 309.629,279.414 -10.567,-0.766 7.782,7.188 2.785,-6.422 z"
   id="path232"
   style="fill:#000000;fill-opacity:1;fill-rule:nonzero;stroke:#000000;stroke-width:1;stroke-linecap:butt;stroke-linejoin:round;stroke-miterlimit:10;stroke-opacity:1;stroke-dasharray:none" /><path
   d="m 675.406,494.734 c 16.36,-33.027 51.235,-103.441 70.559,-142.453"
   id="path234"
   style="fill:none;stroke:#000000;stroke-width:2.44949007;stroke-linecap:butt;stroke-linejoin:round;stroke-miterlimit:10;stroke-opacity:1;stroke-dasharray:none" /><path
   d="m 749.219,353.598 1.301,-10.512 -7.575,7.406 6.274,3.106 z"
   id="path236"
   style="fill:#000000;fill-opacity:1;fill-rule:nonzero;stroke:#000000;stroke-width:1;stroke-linecap:butt;stroke-linejoin:round;stroke-miterlimit:10;stroke-opacity:1;stroke-dasharray:none" /><path
   d="m 646.258,530.891 c -17.188,15.414 -42.028,37.695 -61.047,54.75"
   id="path238"
   style="fill:none;stroke:#000000;stroke-width:4.24264097;stroke-linecap:butt;stroke-linejoin:round;stroke-miterlimit:10;stroke-opacity:1;stroke-dasharray:none" /><path
   d="m 582.684,582.922 -4.965,9.441 9.926,-3.914 -4.961,-5.527 z"
   id="path240"
   style="fill:#000000;fill-opacity:1;fill-rule:nonzero;stroke:#000000;stroke-width:1;stroke-linecap:butt;stroke-linejoin:round;stroke-miterlimit:10;stroke-opacity:1;stroke-dasharray:none" /><path
   d="m 619.762,626.055 c 6.574,0.996 13.238,1.922 19.765,2.746"
   id="path242"
   style="fill:none;stroke:#000000;stroke-width:4.47213602;stroke-linecap:butt;stroke-linejoin:round;stroke-miterlimit:10;stroke-opacity:1;stroke-dasharray:none" /><path
   d="m 639.238,632.707 10.391,-2.695 -9.461,-5.074 -0.93,7.769 z"
   id="path244"
   style="fill:#000000;fill-opacity:1;fill-rule:nonzero;stroke:#000000;stroke-width:1;stroke-linecap:butt;stroke-linejoin:round;stroke-miterlimit:10;stroke-opacity:1;stroke-dasharray:none" /><path
   d="m 385.469,1159.129 123,0 0,-36 -123,0 0,36 z"
   id="path246"
   style="fill:#e8e8e8;fill-opacity:1;fill-rule:nonzero;stroke:#000000;stroke-width:1.45938206;stroke-linecap:butt;stroke-linejoin:round;stroke-miterlimit:10;stroke-opacity:1;stroke-dasharray:none" /><text
   transform="matrix(1,0,0,-1,393.46875,1137.6289)"
   id="text248"><tspan
     x="0 9.75 17.25 22.5 27 33 37.5 42 48.75 56.25 60 70.5 75 79.5 87 94.5 101.25"
     y="0"
     id="tspan250"
     style="font-size:15px;font-variant:normal;writing-mode:lr-tb;fill:#000000;fill-opacity:1;fill-rule:nonzero;stroke:none;font-family:Nimbus Roman No9 L;-inkscape-font-specification:NimbusRomNo9L-Regu">Christian Hildner</tspan></text>

<path
   d="m 533.551,962.438 c -16.821,34.718 -53.617,110.66 -73.391,151.468"
   id="path252"
   style="fill:none;stroke:#000000;stroke-width:1.41421402;stroke-linecap:butt;stroke-linejoin:round;stroke-miterlimit:10;stroke-opacity:1;stroke-dasharray:none" /><path
   d="m 456.961,1112.48 -1.211,10.524 7.512,-7.473 -6.301,-3.051 z"
   id="path254"
   style="fill:#000000;fill-opacity:1;fill-rule:nonzero;stroke:#000000;stroke-width:1;stroke-linecap:butt;stroke-linejoin:round;stroke-miterlimit:10;stroke-opacity:1;stroke-dasharray:none" /><path
   d="m 716.207,75.871 111,0 0,-36 -111,0 0,36 z"
   id="path256"
   style="fill:#ffffff;fill-opacity:1;fill-rule:nonzero;stroke:#000000;stroke-width:1;stroke-linecap:butt;stroke-linejoin:round;stroke-miterlimit:10;stroke-opacity:1;stroke-dasharray:none" /><text
   transform="matrix(1,0,0,-1,724.20703,53.816406)"
   id="text258"><tspan
     x="0 9.7457285 14.971698 19.507151 26.2554 30.00617 40.473804 44.255962 58.505756 66.007301 73.508842 79.503799 87.005341"
     y="0"
     id="tspan260"
     style="font-size:15.69360447px;font-variant:normal;writing-mode:lr-tb;fill:#000000;fill-opacity:1;fill-rule:nonzero;stroke:none;font-family:Nimbus Roman No9 L;-inkscape-font-specification:NimbusRomNo9L-Regu">Eric B Munson</tspan></text>

<path
   d="m 764.199,76 c -16.328,40.211 -55.129,140.238 -74.344,227.645 -14.011,63.726 -19.847,140.328 -22.097,180.808"
   id="path262"
   style="fill:none;stroke:#000000;stroke-width:1.41421402;stroke-linecap:butt;stroke-linejoin:round;stroke-miterlimit:10;stroke-opacity:1;stroke-dasharray:none" /><path
   d="m 664.25,484.473 2.977,10.168 4.015,-9.805 -6.992,-0.363 z"
   id="path264"
   style="fill:#000000;fill-opacity:1;fill-rule:nonzero;stroke:#000000;stroke-width:1;stroke-linecap:butt;stroke-linejoin:round;stroke-miterlimit:10;stroke-opacity:1;stroke-dasharray:none" /><path
   d="m 937.898,275.414 c -31.011,8.594 -69.855,19.363 -103.367,28.648"
   id="path266"
   style="fill:none;stroke:#000000;stroke-width:1.41421402;stroke-linecap:butt;stroke-linejoin:round;stroke-miterlimit:10;stroke-opacity:1;stroke-dasharray:none" /><path
   d="m 833.477,300.723 -8.704,6.047 10.575,0.699 -1.871,-6.746 z"
   id="path268"
   style="fill:#000000;fill-opacity:1;fill-rule:nonzero;stroke:#000000;stroke-width:1;stroke-linecap:butt;stroke-linejoin:round;stroke-miterlimit:10;stroke-opacity:1;stroke-dasharray:none" /><path
   d="m 888.023,473.969 c 20.2,-40.657 69.012,-138.895 92.864,-186.907"
   id="path270"
   style="fill:none;stroke:#000000;stroke-width:1.41421402;stroke-linecap:butt;stroke-linejoin:round;stroke-miterlimit:10;stroke-opacity:1;stroke-dasharray:none" /><path
   d="m 984.129,288.406 1.316,-10.515 -7.586,7.398 6.27,3.117 z"
   id="path272"
   style="fill:#000000;fill-opacity:1;fill-rule:nonzero;stroke:#000000;stroke-width:1;stroke-linecap:butt;stroke-linejoin:round;stroke-miterlimit:10;stroke-opacity:1;stroke-dasharray:none" /><path
   d="m 247.59,592.883 78,0 0,-36 -78,0 0,36 z"
   id="path274"
   style="fill:#ffffff;fill-opacity:1;fill-rule:nonzero;stroke:#000000;stroke-width:1;stroke-linecap:butt;stroke-linejoin:round;stroke-miterlimit:10;stroke-opacity:1;stroke-dasharray:none" /><text
   transform="matrix(1,0,0,-1,255.58984,571.35547)"
   id="text276"><tspan
     x="0 10.494539 18.012117 25.529696 33.002167 36.760956 47.255497 54.006279"
     y="0"
     id="tspan278"
     style="font-size:15.03515625px;font-variant:normal;writing-mode:lr-tb;fill:#000000;fill-opacity:1;fill-rule:nonzero;stroke:none;font-family:Nimbus Roman No9 L;-inkscape-font-specification:NimbusRomNo9L-Regu">Dong Hao</tspan></text>

<path
   d="m 325.707,580.012 c 41.641,5.457 108.457,14.215 159.695,20.929"
   id="path280"
   style="fill:none;stroke:#000000;stroke-width:2.44949007;stroke-linecap:butt;stroke-linejoin:round;stroke-miterlimit:10;stroke-opacity:1;stroke-dasharray:none" /><path
   d="m 485.062,604.426 10.368,-2.168 -9.457,-4.77 -0.911,6.938 z"
   id="path282"
   style="fill:#000000;fill-opacity:1;fill-rule:nonzero;stroke:#000000;stroke-width:1;stroke-linecap:butt;stroke-linejoin:round;stroke-miterlimit:10;stroke-opacity:1;stroke-dasharray:none" /><path
   d="m 40.199,680.742 110,0 0,-36 -110,0 0,36 z"
   id="path284"
   style="fill:#ffffff;fill-opacity:1;fill-rule:nonzero;stroke:#000000;stroke-width:1;stroke-linecap:butt;stroke-linejoin:round;stroke-miterlimit:10;stroke-opacity:1;stroke-dasharray:none" /><text
   transform="matrix(1,0,0,-1,48.199219,659.23438)"
   id="text286"><tspan
     x="0 9.757617 17.263477 24.769337 31.509598 39.015457 45.755718 53.261578 57.014507 71.260628 78.000893 85.506752"
     y="0"
     id="tspan288"
     style="font-size:15.01171875px;font-variant:normal;writing-mode:lr-tb;fill:#000000;fill-opacity:1;fill-rule:nonzero;stroke:none;font-family:Nimbus Roman No9 L;-inkscape-font-specification:NimbusRomNo9L-Regu">Runzhen Wang</tspan></text>

<path
   d="M 150.516,656.484 C 234.16,647.016 392.859,629.051 485.473,618.57"
   id="path290"
   style="fill:none;stroke:#000000;stroke-width:1.41421402;stroke-linecap:butt;stroke-linejoin:round;stroke-miterlimit:10;stroke-opacity:1;stroke-dasharray:none" /><path
   d="m 486.059,622.027 9.543,-4.605 -10.332,-2.352 0.789,6.957 z"
   id="path292"
   style="fill:#000000;fill-opacity:1;fill-rule:nonzero;stroke:#000000;stroke-width:1;stroke-linecap:butt;stroke-linejoin:round;stroke-miterlimit:10;stroke-opacity:1;stroke-dasharray:none" /><path
   d="m 1083.434,545.57 97,0 0,-36 -97,0 0,36 z"
   id="path294"
   style="fill:#ffffff;fill-opacity:1;fill-rule:nonzero;stroke:#000000;stroke-width:1;stroke-linecap:butt;stroke-linejoin:round;stroke-miterlimit:10;stroke-opacity:1;stroke-dasharray:none" /><text
   transform="matrix(1,0,0,-1,1091.4336,524.05859)"
   id="text296"><tspan
     x="0 9.757617 17.263477 24.003738 31.509598 39.015457 42.768387 53.246567 57.750084 65.255943 72.761803"
     y="0"
     id="tspan298"
     style="font-size:15.01171875px;font-variant:normal;writing-mode:lr-tb;fill:#000000;fill-opacity:1;fill-rule:nonzero;stroke:none;font-family:Nimbus Roman No9 L;-inkscape-font-specification:NimbusRomNo9L-Regu">Chegu Vinod</tspan></text>

<path
   d="m 1083.219,536.383 c -40.84,7.39 -99.352,17.976 -143.235,25.918"
   id="path300"
   style="fill:none;stroke:#000000;stroke-width:2;stroke-linecap:butt;stroke-linejoin:round;stroke-miterlimit:10;stroke-opacity:1;stroke-dasharray:none" /><path
   d="m 939.227,558.879 -9.215,5.226 10.461,1.661 -1.246,-6.887 z"
   id="path302"
   style="fill:#000000;fill-opacity:1;fill-rule:nonzero;stroke:#000000;stroke-width:1;stroke-linecap:butt;stroke-linejoin:round;stroke-miterlimit:10;stroke-opacity:1;stroke-dasharray:none" /></g></g></g></svg>